<svg width="16" height="16" viewBox="0 0 16 16" fill="none" xmlns="http://www.w3.org/2000/svg">
<path d="M12.5 7H11V9H12.5C13.4688 9 14.2943 9.34115 14.9766 10.0234C15.6589 10.7057 16 11.5312 16 12.5C16 13.4688 15.6589 14.2943 14.9766 14.9766C14.2943 15.6589 13.4688 16 12.5 16C11.5312 16 10.7057 15.6589 10.0234 14.9766C9.34115 14.2943 9 13.4688 9 12.5V11H7V12.5C7 13.4688 6.65885 14.2943 5.97656 14.9766C5.29427 15.6589 4.46875 16 3.5 16C2.53125 16 1.70573 15.6589 1.02344 14.9766C0.341146 14.2943 0 13.4688 0 12.5C0 11.5312 0.341146 10.7057 1.02344 10.0234C1.70573 9.34115 2.53125 9 3.5 9H5V7H3.5C2.53125 7 1.70573 6.65885 1.02344 5.97656C0.341146 5.29427 0 4.46875 0 3.5C0 2.53125 0.341146 1.70573 1.02344 1.02344C1.70573 0.341146 2.53125 0 3.5 0C4.46875 0 5.29427 0.341146 5.97656 1.02344C6.65885 1.70573 7 2.53125 7 3.5V5H9V3.5C9 2.53125 9.34115 1.70573 10.0234 1.02344C10.7057 0.341146 11.5312 0 12.5 0C13.4688 0 14.2943 0.341146 14.9766 1.02344C15.6589 1.70573 16 2.53125 16 3.5C16 4.46875 15.6589 5.29427 14.9766 5.97656C14.2943 6.65885 13.4688 7 12.5 7ZM11 12.5C11 12.9167 11.1458 13.2708 11.4375 13.5625C11.7292 13.8542 12.0833 14 12.5 14C12.9167 14 13.2708 13.8542 13.5625 13.5625C13.8542 13.2708 14 12.9167 14 12.5C14 12.0833 13.8542 11.7292 13.5625 11.4375C13.2708 11.1458 12.9167 11 12.5 11H11.5C11.3646 11 11.2474 11.0495 11.1484 11.1484C11.0495 11.2474 11 11.3646 11 11.5V12.5ZM5 3.5C5 3.08333 4.85417 2.72917 4.5625 2.4375C4.27083 2.14583 3.91667 2 3.5 2C3.08333 2 2.72917 2.14583 2.4375 2.4375C2.14583 2.72917 2 3.08333 2 3.5C2 3.91667 2.14583 4.27083 2.4375 4.5625C2.72917 4.85417 3.08333 5 3.5 5H4.5C4.63542 5 4.7526 4.95052 4.85156 4.85156C4.95052 4.7526 5 4.63542 5 4.5V3.5ZM5 11.5C5 11.3646 4.95052 11.2474 4.85156 11.1484C4.7526 11.0495 4.63542 11 4.5 11H3.5C3.08333 11 2.72917 11.1458 2.4375 11.4375C2.14583 11.7292 2 12.0833 2 12.5C2 12.9167 2.14583 13.2708 2.4375 13.5625C2.72917 13.8542 3.08333 14 3.5 14C3.91667 14 4.27083 13.8542 4.5625 13.5625C4.85417 13.2708 5 12.9167 5 12.5V11.5ZM9 7H7V9H9V7ZM12.5 2C12.0833 2 11.7292 2.14583 11.4375 2.4375C11.1458 2.72917 11 3.08333 11 3.5V4.5C11 4.63542 11.0495 4.7526 11.1484 4.85156C11.2474 4.95052 11.3646 5 11.5 5H12.5C12.9167 5 13.2708 4.85417 13.5625 4.5625C13.8542 4.27083 14 3.91667 14 3.5C14 3.08333 13.8542 2.72917 13.5625 2.4375C13.2708 2.14583 12.9167 2 12.5 2Z" fill="#5865F2"/>
</svg>