<svg width="1312" height="999" viewBox="0 0 1312 999" fill="none" xmlns="http://www.w3.org/2000/svg">
<path d="M233.243 767.76L233.256 998.108L1077.84 998.111L1077.83 767.763L233.243 767.76Z" fill="#C2B8FF"/>
<path d="M655.507 767.764L1077.8 767.765L1077.81 998.112L655.52 998.11L655.507 767.764Z" fill="#B6AAFF"/>
<path d="M1081.6 433.046L1019.41 554.464L291.556 554.462L229.349 433.044C280.849 369.717 345.816 318.665 419.527 283.602C493.237 248.539 573.837 230.346 655.464 230.346C737.091 230.346 817.692 248.54 891.406 283.603C965.121 318.667 1030.09 369.719 1081.6 433.046V433.046Z" fill="#6A50FF"/>
<path d="M1081.63 433.009L1019.44 554.426L655.5 554.425L655.482 230.345C737.454 228.168 818.782 245.395 892.834 280.62C966.886 315.846 1031.57 368.073 1081.6 433.044L1081.63 433.009Z" fill="#553BEA"/>
<path d="M1221.36 356.272L1077.8 844.577L233.253 844.574L89.6756 356.268L186.426 319.426C205.9 356.523 233.722 388.591 267.7 413.104C301.679 437.618 340.884 453.907 382.229 460.688L422.158 460.688C510.445 446.812 576.455 311.727 603.333 182.747L707.752 182.747C734.645 311.727 800.669 446.882 888.958 460.689L928.852 460.69C970.196 453.909 1009.4 437.62 1043.38 413.107C1077.35 388.594 1105.17 356.526 1124.64 319.43L1221.36 356.272Z" fill="#C9C0FF"/>
<path d="M1221.36 356.238L1077.81 844.541L655.517 844.539L655.48 182.784L707.516 182.784C734.408 311.763 800.432 446.918 888.72 460.725L928.649 460.725C969.993 453.944 1009.2 437.656 1043.17 413.143C1077.15 388.63 1104.97 356.562 1124.44 319.466L1221.36 356.238Z" fill="#C2B8FF"/>
<path d="M118.055 383.891C102.693 384.268 87.4098 381.567 73.1062 375.949C58.8026 370.33 45.7674 361.907 34.768 351.175C23.7687 340.443 15.0274 327.619 9.05882 313.458C3.09026 299.297 0.0150308 284.085 0.0141812 268.718C0.0133317 253.351 3.08688 238.139 9.05387 223.978C15.0209 209.817 23.7607 196.993 34.7589 186.261C45.7571 175.529 58.7914 167.105 73.0944 161.487C87.3974 155.869 102.68 153.169 118.043 153.546C148.588 153.546 177.884 165.68 199.484 187.279C221.085 208.878 233.22 238.173 233.222 268.719C233.224 299.264 221.091 328.559 199.493 350.158C177.895 371.757 148.601 383.891 118.055 383.891Z" fill="#C2B8FF"/>
<path d="M1192.95 383.884C1162.4 383.884 1133.11 371.75 1111.51 350.151C1089.91 328.552 1077.77 299.257 1077.77 268.711C1077.77 238.166 1089.9 208.871 1111.5 187.272C1133.1 165.673 1162.39 153.539 1192.94 153.539C1208.3 153.162 1223.58 155.862 1237.89 161.481C1252.19 167.099 1265.23 175.523 1276.22 186.255C1287.22 196.987 1295.97 209.811 1301.93 223.972C1307.9 238.133 1310.98 253.345 1310.98 268.712C1310.98 284.079 1307.91 299.291 1301.94 313.452C1295.97 327.613 1287.23 340.437 1276.23 351.169C1265.24 361.901 1252.2 370.324 1237.9 375.943C1223.6 381.561 1208.31 384.261 1192.95 383.884V383.884Z" fill="#B6AAFF"/>
<path d="M655.459 0.000591624C632.68 0.000500525 610.413 6.75516 591.473 19.4104C572.534 32.0657 557.772 50.0531 549.056 71.0981C540.34 92.1431 538.061 115.3 542.506 137.642C546.952 159.983 557.922 180.505 574.03 196.612C590.138 212.719 610.661 223.689 633.002 228.133C655.344 232.577 678.501 230.296 699.546 221.579C720.591 212.862 738.577 198.1 751.231 179.16C763.886 160.22 770.639 137.953 770.638 115.174C770.66 100.042 767.696 85.0556 761.915 71.0719C756.135 57.0882 747.651 44.3826 736.951 33.6832C726.251 22.9839 713.545 14.5012 699.561 8.72124C685.577 2.94131 670.59 -0.0221873 655.459 0.000591624V0.000591624Z" fill="#C2B8FF"/>
<path d="M655.482 444.588L524.185 575.892L655.496 707.196L786.793 575.893L655.482 444.588Z" fill="#6A50FF"/>
<path d="M885.844 598.303L940.138 652.594L885.85 706.884L831.556 652.593L885.844 598.303Z" fill="#553BEA"/>
<path d="M425.174 598.301L479.468 652.591L425.18 706.881L370.886 652.591L425.174 598.301Z" fill="#6A50FF"/>
<path d="M655.474 230.346L655.462 0.00219727C686.007 0.00230769 715.303 12.1366 736.903 33.7356C758.503 55.3346 770.639 84.6291 770.641 115.175C770.642 145.72 758.51 175.015 736.912 196.613C715.314 218.212 686.02 230.346 655.474 230.346V230.346Z" fill="#B6AAFF"/>
<path d="M786.798 575.859L655.501 707.127L655.487 444.59L786.798 575.859Z" fill="#553BEA"/>
</svg>