<svg width="1002" height="1000" viewBox="0 0 1002 1000" fill="none" xmlns="http://www.w3.org/2000/svg">
<path d="M501.939 6.72597e-05C369.471 -0.0684777 242.353 52.2565 148.318 145.558C54.2842 238.86 0.967078 365.566 0 498.03C0.815273 630.904 53.9588 758.104 147.914 852.065C241.868 946.025 369.065 999.177 501.939 1000C634.547 1000 761.724 947.322 855.492 853.553C949.261 759.785 1001.94 632.608 1001.94 500C1001.94 367.392 949.261 240.215 855.492 146.447C761.724 52.6785 634.547 6.72597e-05 501.939 6.72597e-05V6.72597e-05Z" fill="#D6CFFF"/>
<path d="M999.972 498.03C1000.05 630.503 947.727 757.63 854.425 851.671C761.122 945.711 634.412 999.033 501.942 1000V0C634.001 0.0896831 760.624 52.5894 854.004 145.969C947.383 239.348 999.883 365.972 999.972 498.03Z" fill="#BEB3FF"/>
<path d="M501.908 117.174C426.027 116.791 351.744 138.967 288.492 180.886C225.24 222.804 175.872 282.575 146.658 352.608C117.443 422.641 109.701 499.775 124.413 574.217C139.125 648.659 175.628 717.05 229.286 770.704C282.945 824.358 351.339 860.856 425.782 875.562C500.225 890.268 577.359 882.519 647.389 853.299C717.42 824.079 777.187 774.707 819.1 711.451C861.014 648.195 883.184 573.91 882.794 498.03C881.729 397.346 841.257 301.086 770.056 229.891C698.855 158.695 602.592 118.231 501.908 117.174V117.174Z" fill="#8E7AFC"/>
<path d="M882.798 498.03C882.755 599.388 842.739 696.639 771.435 768.674C700.132 840.71 603.294 881.717 501.942 882.795V117.175C602.887 117.386 699.636 157.58 771.015 228.958C842.393 300.337 882.586 397.086 882.798 498.03V498.03Z" fill="#6A50FF"/>
<path d="M560.538 468.76H531.237V351.586H560.538C564.396 351.549 568.223 352.282 571.795 353.741C575.367 355.2 578.612 357.357 581.34 360.085C584.068 362.814 586.225 366.059 587.684 369.63C589.144 373.202 589.877 377.029 589.84 380.887C590.322 388.314 593.612 395.279 599.042 400.369C604.473 405.458 611.637 408.29 619.079 408.29C626.522 408.29 633.685 405.458 639.116 400.369C644.546 395.279 647.837 388.314 648.319 380.887C648.335 369.339 646.073 357.901 641.661 347.229C637.249 336.556 630.775 326.859 622.609 318.693C614.443 310.528 604.746 304.053 594.074 299.642C583.401 295.23 571.963 292.967 560.415 292.983H531.114V263.682C531.373 259.683 530.81 255.672 529.458 251.899C528.106 248.127 525.994 244.671 523.254 241.747C520.513 238.822 517.202 236.491 513.525 234.898C509.847 233.304 505.882 232.482 501.874 232.482C497.866 232.482 493.901 233.304 490.224 234.898C486.546 236.491 483.235 238.822 480.494 241.747C477.754 244.671 475.642 248.127 474.29 251.899C472.938 255.672 472.375 259.683 472.634 263.682V292.983H439.424C427.881 292.971 416.449 295.236 405.782 299.647C395.116 304.059 385.423 310.531 377.261 318.693C369.099 326.856 362.627 336.548 358.215 347.214C353.803 357.881 351.539 369.313 351.551 380.856V439.336C351.535 450.884 353.797 462.322 358.209 472.994C362.621 483.667 369.095 493.364 377.261 501.53C385.427 509.695 395.124 516.17 405.796 520.582C416.469 524.993 427.907 527.256 439.455 527.24H472.665V648.323H439.455C435.597 648.36 431.77 647.628 428.198 646.168C424.626 644.709 421.382 642.552 418.653 639.824C415.925 637.095 413.768 633.85 412.308 630.279C410.849 626.707 410.117 622.88 410.154 619.022C409.672 611.595 406.381 604.63 400.951 599.54C395.52 594.451 388.356 591.619 380.914 591.619C373.471 591.619 366.308 594.451 360.877 599.54C355.447 604.63 352.156 611.595 351.674 619.022C351.658 630.57 353.92 642.008 358.332 652.68C362.744 663.353 369.218 673.05 377.384 681.215C385.55 689.381 395.247 695.856 405.919 700.268C416.592 704.679 428.03 706.942 439.578 706.926H472.788V736.227C472.528 740.226 473.092 744.237 474.444 748.009C475.796 751.782 477.907 755.238 480.648 758.162C483.389 761.087 486.7 763.418 490.378 765.011C494.055 766.605 498.02 767.427 502.028 767.427C506.036 767.427 510.001 766.605 513.678 765.011C517.356 763.418 520.667 761.087 523.408 758.162C526.148 755.238 528.26 751.782 529.612 748.009C530.964 744.237 531.527 740.226 531.268 736.227V706.926H560.569C572.117 706.942 583.555 704.679 594.228 700.268C604.9 695.856 614.597 689.381 622.763 681.215C630.929 673.05 637.403 663.353 641.815 652.68C646.227 642.008 648.489 630.57 648.473 619.022V556.634C648.485 545.085 646.218 533.648 641.803 522.977C637.387 512.307 630.909 502.612 622.741 494.449C614.572 486.286 604.873 479.815 594.199 475.407C583.525 470.999 572.086 468.74 560.538 468.76ZM472.634 468.76H439.424C435.566 468.797 431.739 468.065 428.167 466.605C424.596 465.146 421.351 462.989 418.622 460.261C415.894 457.532 413.737 454.287 412.278 450.716C410.819 447.144 410.086 443.317 410.123 439.459V380.979C410.086 377.121 410.819 373.294 412.278 369.723C413.737 366.151 415.894 362.906 418.622 360.178C421.351 357.45 424.596 355.293 428.167 353.833C431.739 352.374 435.566 351.641 439.424 351.678H472.634V468.76ZM589.809 619.145C589.846 623.003 589.113 626.83 587.653 630.402C586.194 633.973 584.037 637.218 581.309 639.947C578.581 642.675 575.336 644.832 571.764 646.291C568.193 647.751 564.366 648.483 560.508 648.446H531.206V527.363H560.508C564.366 527.326 568.193 528.059 571.764 529.518C575.336 530.977 578.581 533.134 581.309 535.862C584.037 538.591 586.194 541.836 587.653 545.408C589.113 548.979 589.846 552.806 589.809 556.664V619.145Z" fill="#D6CFFF"/>
<path d="M560.422 468.76H531.121V351.585H560.422C564.28 351.548 568.107 352.281 571.679 353.741C575.251 355.2 578.495 357.357 581.223 360.085C583.952 362.813 586.109 366.058 587.568 369.63C589.028 373.202 589.76 377.029 589.723 380.887C590.205 388.314 593.496 395.279 598.926 400.368C604.357 405.458 611.52 408.29 618.963 408.29C626.406 408.29 633.569 405.458 639 400.368C644.43 395.279 647.721 388.314 648.203 380.887C648.236 369.339 645.988 357.897 641.591 347.219C637.195 336.54 630.734 326.834 622.579 318.657C614.425 310.48 604.737 303.992 594.071 299.565C583.405 295.138 571.97 292.86 560.422 292.86H531.121V263.558C531.249 259.692 530.582 255.84 529.161 252.242C527.74 248.644 525.596 245.376 522.86 242.64C520.125 239.905 516.857 237.76 513.259 236.339C509.661 234.918 505.809 234.252 501.942 234.38V765.62C505.83 765.767 509.705 765.11 513.327 763.689C516.948 762.268 520.237 760.116 522.988 757.365C525.739 754.614 527.892 751.325 529.312 747.704C530.733 744.082 531.39 740.206 531.244 736.319V707.018H560.545C572.093 707.034 583.531 704.772 594.203 700.36C604.876 695.948 614.573 689.473 622.739 681.308C630.905 673.142 637.379 663.445 641.791 652.772C646.202 642.1 648.465 630.662 648.449 619.114V556.633C648.461 545.077 646.191 533.632 641.77 522.955C637.349 512.278 630.863 502.58 622.684 494.416C614.506 486.252 604.796 479.782 594.111 475.38C583.427 470.977 571.978 468.727 560.422 468.76V468.76ZM589.723 619.145C589.76 623.003 589.028 626.83 587.568 630.401C586.109 633.973 583.952 637.218 581.223 639.946C578.495 642.675 575.251 644.831 571.679 646.291C568.107 647.75 564.28 648.483 560.422 648.446H531.121V527.362H560.422C564.28 527.325 568.107 528.058 571.679 529.518C575.251 530.977 578.495 533.134 581.223 535.862C583.952 538.59 586.109 541.835 587.568 545.407C589.028 548.979 589.76 552.805 589.723 556.664V619.145Z" fill="#BEB3FF"/>
</svg>