<svg width="370" height="156" viewBox="0 0 370 156" fill="none" xmlns="http://www.w3.org/2000/svg">
<rect width="370" height="156" rx="4" fill="url(#paint0_linear)"/>
<mask id="mask0" mask-type="alpha" maskUnits="userSpaceOnUse" x="0" y="0" width="370" height="156">
<rect width="370" height="156" rx="4" fill="white"/>
</mask>
<g mask="url(#mask0)">
<path fill-rule="evenodd" clip-rule="evenodd" d="M428.688 247.165C481.777 218.377 489.68 159.749 446.34 116.215C403.001 72.6815 324.829 60.7281 271.74 89.5163C218.651 118.305 210.748 176.933 254.087 220.467C297.427 264 375.599 275.954 428.688 247.165Z" fill="url(#paint1_linear)"/>
<path opacity="0.3" fill-rule="evenodd" clip-rule="evenodd" d="M340.946 121.493C394.035 92.7048 401.938 34.0764 358.599 -9.45713C315.259 -52.9907 237.088 -64.9441 183.998 -36.1559C130.909 -7.36762 123.006 51.2608 166.346 94.7943C209.685 138.328 287.857 150.281 340.946 121.493Z" fill="url(#paint2_linear)"/>
</g>
<defs>
<linearGradient id="paint0_linear" x1="426.705" y1="203.816" x2="426.705" y2="0" gradientUnits="userSpaceOnUse">
<stop stop-color="#009EFD"/>
<stop offset="1" stop-color="#2AF598"/>
</linearGradient>
<linearGradient id="paint1_linear" x1="602.385" y1="227.384" x2="469.48" y2="-17.7105" gradientUnits="userSpaceOnUse">
<stop stop-color="#009EFD"/>
<stop offset="1" stop-color="#2AF598"/>
</linearGradient>
<linearGradient id="paint2_linear" x1="514.644" y1="101.712" x2="381.738" y2="-143.383" gradientUnits="userSpaceOnUse">
<stop stop-color="#009EFD"/>
<stop offset="1" stop-color="#2AF598"/>
</linearGradient>
</defs>
</svg>