<svg width="370" height="156" viewBox="0 0 370 156" fill="none" xmlns="http://www.w3.org/2000/svg">
<rect opacity="0.84" width="370" height="156" rx="4" fill="url(#paint0_linear)"/>
<mask id="mask0" mask-type="alpha" maskUnits="userSpaceOnUse" x="0" y="0" width="370" height="156">
<rect width="370" height="156" rx="4" fill="white"/>
</mask>
<g mask="url(#mask0)">
<path opacity="0.84" fill-rule="evenodd" clip-rule="evenodd" d="M428.688 247.165C481.777 218.377 489.68 159.749 446.34 116.215C403.001 72.6815 324.829 60.7281 271.74 89.5163C218.651 118.305 210.748 176.933 254.087 220.467C297.427 264 375.599 275.954 428.688 247.165Z" fill="url(#paint1_linear)"/>
<path opacity="0.2" fill-rule="evenodd" clip-rule="evenodd" d="M340.946 121.493C394.035 92.7048 401.938 34.0764 358.599 -9.45713C315.259 -52.9907 237.087 -64.9441 183.998 -36.1559C130.909 -7.36762 123.006 51.2608 166.346 94.7943C209.685 138.328 287.857 150.281 340.946 121.493Z" fill="url(#paint2_linear)"/>
</g>
<defs>
<linearGradient id="paint0_linear" x1="370" y1="0" x2="0" y2="0" gradientUnits="userSpaceOnUse">
<stop stop-color="#79CCFF"/>
<stop offset="1" stop-color="#9B74FF"/>
</linearGradient>
<linearGradient id="paint1_linear" x1="367.867" y1="37.3906" x2="219.186" y2="185.409" gradientUnits="userSpaceOnUse">
<stop stop-color="#79CCFF"/>
<stop offset="1" stop-color="#9B74FF"/>
</linearGradient>
<linearGradient id="paint2_linear" x1="280.125" y1="-88.2816" x2="131.444" y2="59.7373" gradientUnits="userSpaceOnUse">
<stop stop-color="#79CCFF"/>
<stop offset="1" stop-color="#9B74FF"/>
</linearGradient>
</defs>
</svg>