<svg width="370" height="156" viewBox="0 0 370 156" fill="none" xmlns="http://www.w3.org/2000/svg">
<rect width="370" height="156" rx="4" fill="url(#paint0_linear)"/>
<mask id="mask0" mask-type="alpha" maskUnits="userSpaceOnUse" x="0" y="0" width="370" height="156">
<rect width="370" height="156" rx="4" fill="white"/>
</mask>
<g mask="url(#mask0)">
<g filter="url(#filter0_d)">
<path fill-rule="evenodd" clip-rule="evenodd" d="M428.688 247.165C481.777 218.377 489.68 159.749 446.34 116.215C403.001 72.6815 324.829 60.7281 271.74 89.5163C218.651 118.305 210.748 176.933 254.087 220.467C297.427 264 375.599 275.954 428.688 247.165Z" fill="url(#paint1_linear)"/>
</g>
<g filter="url(#filter1_d)">
<path fill-rule="evenodd" clip-rule="evenodd" d="M340.946 121.493C394.035 92.7048 401.938 34.0764 358.599 -9.45713C315.259 -52.9907 237.087 -64.9441 183.998 -36.1559C130.909 -7.36763 123.006 51.2608 166.346 94.7943C209.685 138.328 287.857 150.281 340.946 121.493Z" fill="url(#paint2_linear)"/>
</g>
</g>
<defs>
<filter id="filter0_d" x="196.12" y="51.8297" width="308.189" height="249.022" filterUnits="userSpaceOnUse" color-interpolation-filters="sRGB">
<feFlood flood-opacity="0" result="BackgroundImageFix"/>
<feColorMatrix in="SourceAlpha" type="matrix" values="0 0 0 0 0 0 0 0 0 0 0 0 0 0 0 0 0 0 127 0"/>
<feOffset dy="8"/>
<feGaussianBlur stdDeviation="15"/>
<feColorMatrix type="matrix" values="0 0 0 0 0.117647 0 0 0 0 0.529412 0 0 0 0 0.941176 0 0 0 0.2 0"/>
<feBlend mode="normal" in2="BackgroundImageFix" result="effect1_dropShadow"/>
<feBlend mode="normal" in="SourceGraphic" in2="effect1_dropShadow" result="shape"/>
</filter>
<filter id="filter1_d" x="108.378" y="-73.8425" width="308.189" height="249.022" filterUnits="userSpaceOnUse" color-interpolation-filters="sRGB">
<feFlood flood-opacity="0" result="BackgroundImageFix"/>
<feColorMatrix in="SourceAlpha" type="matrix" values="0 0 0 0 0 0 0 0 0 0 0 0 0 0 0 0 0 0 127 0"/>
<feOffset dy="8"/>
<feGaussianBlur stdDeviation="15"/>
<feColorMatrix type="matrix" values="0 0 0 0 0.117647 0 0 0 0 0.529412 0 0 0 0 0.941176 0 0 0 0.2 0"/>
<feBlend mode="normal" in2="BackgroundImageFix" result="effect1_dropShadow"/>
<feBlend mode="normal" in="SourceGraphic" in2="effect1_dropShadow" result="shape"/>
</filter>
<linearGradient id="paint0_linear" x1="0" y1="0" x2="0" y2="156" gradientUnits="userSpaceOnUse">
<stop stop-color="#40BCF9"/>
<stop offset="1" stop-color="#1E87F0"/>
</linearGradient>
<linearGradient id="paint1_linear" x1="175.614" y1="141.642" x2="277.339" y2="329.236" gradientUnits="userSpaceOnUse">
<stop stop-color="#40BCF9"/>
<stop offset="1" stop-color="#1E87F0" stop-opacity="0.01"/>
</linearGradient>
<linearGradient id="paint2_linear" x1="87.8718" y1="15.9699" x2="189.597" y2="203.564" gradientUnits="userSpaceOnUse">
<stop stop-color="#40BCF9"/>
<stop offset="1" stop-color="#1E87F0" stop-opacity="0.01"/>
</linearGradient>
</defs>
</svg>