<svg width="136" height="32" viewBox="0 0 136 32" fill="none" xmlns="http://www.w3.org/2000/svg">
<g opacity="0.6">
<path d="M50.036 6.8C51.648 6.8 53.0433 7.06867 54.222 7.606C55.418 8.14333 56.3367 8.906 56.978 9.894C57.6193 10.882 57.94 12.052 57.94 13.404C57.94 14.7387 57.6193 15.9087 56.978 16.914C56.3367 17.902 55.418 18.6647 54.222 19.202C53.0433 19.722 51.648 19.982 50.036 19.982H46.37V25H42.158V6.8H50.036ZM49.802 16.55C51.0673 16.55 52.0293 16.2813 52.688 15.744C53.3467 15.1893 53.676 14.4093 53.676 13.404C53.676 12.3813 53.3467 11.6013 52.688 11.064C52.0293 10.5093 51.0673 10.232 49.802 10.232H46.37V16.55H49.802ZM64.5351 12.858C65.0204 12.182 65.6704 11.6707 66.4851 11.324C67.3171 10.9773 68.2704 10.804 69.3451 10.804V14.548C68.8944 14.5133 68.5911 14.496 68.4351 14.496C67.2737 14.496 66.3637 14.8253 65.7051 15.484C65.0464 16.1253 64.7171 17.096 64.7171 18.396V25H60.6611V11.012H64.5351V12.858ZM78.2858 25.208C76.8125 25.208 75.4865 24.9047 74.3078 24.298C73.1465 23.674 72.2365 22.816 71.5778 21.724C70.9191 20.632 70.5898 19.3927 70.5898 18.006C70.5898 16.6193 70.9191 15.38 71.5778 14.288C72.2365 13.196 73.1465 12.3467 74.3078 11.74C75.4865 11.116 76.8125 10.804 78.2858 10.804C79.7591 10.804 81.0765 11.116 82.2378 11.74C83.3991 12.3467 84.3091 13.196 84.9678 14.288C85.6265 15.38 85.9558 16.6193 85.9558 18.006C85.9558 19.3927 85.6265 20.632 84.9678 21.724C84.3091 22.816 83.3991 23.674 82.2378 24.298C81.0765 24.9047 79.7591 25.208 78.2858 25.208ZM78.2858 21.88C79.3258 21.88 80.1751 21.5333 80.8338 20.84C81.5098 20.1293 81.8478 19.1847 81.8478 18.006C81.8478 16.8273 81.5098 15.8913 80.8338 15.198C80.1751 14.4873 79.3258 14.132 78.2858 14.132C77.2458 14.132 76.3878 14.4873 75.7118 15.198C75.0358 15.8913 74.6978 16.8273 74.6978 18.006C74.6978 19.1847 75.0358 20.1293 75.7118 20.84C76.3878 21.5333 77.2458 21.88 78.2858 21.88ZM102.317 15.536C103.357 15.8653 104.172 16.42 104.761 17.2C105.35 17.9627 105.645 18.9073 105.645 20.034C105.645 21.6287 105.021 22.8593 103.773 23.726C102.542 24.5753 100.74 25 98.3649 25H88.9529V6.8H97.8449C100.064 6.8 101.762 7.22467 102.941 8.074C104.137 8.92333 104.735 10.076 104.735 11.532C104.735 12.416 104.518 13.2047 104.085 13.898C103.669 14.5913 103.08 15.1373 102.317 15.536ZM93.1389 9.972V14.262H97.3249C98.3649 14.262 99.1536 14.08 99.6909 13.716C100.228 13.352 100.497 12.8147 100.497 12.104C100.497 11.3933 100.228 10.8647 99.6909 10.518C99.1536 10.154 98.3649 9.972 97.3249 9.972H93.1389ZM98.0529 21.828C99.1623 21.828 99.9943 21.646 100.549 21.282C101.121 20.918 101.407 20.3547 101.407 19.592C101.407 18.084 100.289 17.33 98.0529 17.33H93.1389V21.828H98.0529ZM115.204 25.208C113.73 25.208 112.404 24.9047 111.226 24.298C110.064 23.674 109.154 22.816 108.496 21.724C107.837 20.632 107.508 19.3927 107.508 18.006C107.508 16.6193 107.837 15.38 108.496 14.288C109.154 13.196 110.064 12.3467 111.226 11.74C112.404 11.116 113.73 10.804 115.204 10.804C116.677 10.804 117.994 11.116 119.156 11.74C120.317 12.3467 121.227 13.196 121.886 14.288C122.544 15.38 122.874 16.6193 122.874 18.006C122.874 19.3927 122.544 20.632 121.886 21.724C121.227 22.816 120.317 23.674 119.156 24.298C117.994 24.9047 116.677 25.208 115.204 25.208ZM115.204 21.88C116.244 21.88 117.093 21.5333 117.752 20.84C118.428 20.1293 118.766 19.1847 118.766 18.006C118.766 16.8273 118.428 15.8913 117.752 15.198C117.093 14.4873 116.244 14.132 115.204 14.132C114.164 14.132 113.306 14.4873 112.63 15.198C111.954 15.8913 111.616 16.8273 111.616 18.006C111.616 19.1847 111.954 20.1293 112.63 20.84C113.306 21.5333 114.164 21.88 115.204 21.88ZM134.607 24.324C134.208 24.6187 133.714 24.844 133.125 25C132.553 25.1387 131.946 25.208 131.305 25.208C129.641 25.208 128.35 24.7833 127.431 23.934C126.53 23.0847 126.079 21.8367 126.079 20.19V14.444H123.921V11.324H126.079V7.918H130.135V11.324H133.619V14.444H130.135V20.138C130.135 20.7273 130.282 21.1867 130.577 21.516C130.889 21.828 131.322 21.984 131.877 21.984C132.518 21.984 133.064 21.8107 133.515 21.464L134.607 24.324Z" fill="white"/>
<rect width="32" height="32" rx="5" fill="white"/>
<path d="M14.3422 16.5281V25.9048L11.0493 23.0872C11.0493 23.0872 11.0493 20.6852 11.0493 18.1176V17.8723C12.161 16.7889 14.3422 16.5281 14.3422 16.5281Z" fill="url(#paint0_linear)"/>
<path d="M23.6552 11.7642C23.6552 11.8436 23.6538 11.9223 23.6514 11.9999C23.6037 13.4982 23.1047 14.6524 22.122 15.4437C21.1094 16.2589 19.8266 16.3546 18.1563 16.4777C17.5884 16.5195 16.6834 16.5413 15.2585 16.731C14.86 16.7837 14.5308 16.8355 14.3064 16.872C14.3021 16.8727 14.2979 16.8734 14.2938 16.8741C14.2938 16.8741 12.1447 17.1707 11.0493 18.4031V17.2127C11.0456 14.0851 13.3566 13.2571 14.812 13.2571C14.812 13.2571 15.5725 13.267 17.3231 13.2208C19.139 13.1733 20.0321 12.6739 20.0099 11.3113C20.004 10.9638 19.9267 10.6949 19.8083 10.4877C19.7377 10.3642 19.6525 10.2626 19.5594 10.1793C20.0032 10.1767 22.6982 10.2258 23.6552 11.7642Z" fill="url(#paint1_linear)"/>
<path d="M23.6553 11.7711C22.7048 10.2469 20.0283 10.1983 19.5875 10.2008C19.2457 9.89505 18.9559 9.83411 18.5567 9.83411L17.095 9.83401L14.1398 6.39824L13.8792 6.09521H17.3956C17.9956 6.09521 23.0746 6.16233 23.6079 10.8901C23.6201 10.999 23.63 11.1102 23.6373 11.2241C23.6496 11.4111 23.6553 11.5934 23.6553 11.7711Z" fill="#1F1F25"/>
<path d="M14.4453 6.86194H7.61905V6.10938H13.7992L14.4453 6.86194Z" fill="url(#paint2_linear)"/>
<path d="M15.3083 7.85242H7.65346V7.09985H14.6624L15.3083 7.85242Z" fill="url(#paint3_linear)"/>
<path d="M16.1546 8.84924H7.67072V8.09668H15.5092L16.1546 8.84924Z" fill="url(#paint4_linear)"/>
<path d="M17.0183 9.84712H7.70522V9.09473H16.3723L17.0183 9.84712Z" fill="url(#paint5_linear)"/>
</g>
<defs>
<linearGradient id="paint0_linear" x1="12.7033" y1="13.7974" x2="12.7033" y2="18.6584" gradientUnits="userSpaceOnUse">
<stop stop-color="#1F1F25"/>
<stop offset="1" stop-color="#1F1F25"/>
</linearGradient>
<linearGradient id="paint1_linear" x1="21.6653" y1="12.5151" x2="24.1774" y2="6.55175" gradientUnits="userSpaceOnUse">
<stop stop-color="#1F1F25"/>
<stop offset="1" stop-color="#1F1F25"/>
</linearGradient>
<linearGradient id="paint2_linear" x1="7.61907" y1="6.48571" x2="14.4453" y2="6.48571" gradientUnits="userSpaceOnUse">
<stop offset="0.29" stop-color="#1F1F25" stop-opacity="0"/>
<stop offset="1" stop-color="#1F1F25"/>
</linearGradient>
<linearGradient id="paint3_linear" x1="7.65348" y1="7.47619" x2="15.3083" y2="7.47619" gradientUnits="userSpaceOnUse">
<stop offset="0.29" stop-color="#1F1F25" stop-opacity="0"/>
<stop offset="1" stop-color="#1F1F25"/>
</linearGradient>
<linearGradient id="paint4_linear" x1="7.67074" y1="8.47301" x2="16.1547" y2="8.47301" gradientUnits="userSpaceOnUse">
<stop offset="0.29" stop-color="#1F1F25" stop-opacity="0"/>
<stop offset="1" stop-color="#1F1F25"/>
</linearGradient>
<linearGradient id="paint5_linear" x1="7.70524" y1="9.47097" x2="17.0184" y2="9.47097" gradientUnits="userSpaceOnUse">
<stop offset="0.29" stop-color="#1F1F25" stop-opacity="0"/>
<stop offset="1" stop-color="#1F1F25"/>
</linearGradient>
</defs>
</svg>