<svg width="602" height="327" viewBox="0 0 602 327" fill="none" xmlns="http://www.w3.org/2000/svg">
<g clip-path="url(#clip0)">
<path d="M302.932 327C466.17 327 598.5 318.249 598.5 307.454C598.5 296.659 466.17 287.908 302.932 287.908C139.695 287.908 7.36523 296.659 7.36523 307.454C7.36523 318.249 139.695 327 302.932 327Z" fill="#282932"/>
<path d="M291.602 93.4771C243.447 93.4771 208.871 124.339 208.871 196.351C208.871 277.964 243.447 299.567 291.602 299.567C339.758 299.567 376.394 275.906 376.394 196.351C376.393 111.308 339.758 93.4771 291.602 93.4771ZM291.919 272.477C258.565 272.477 241.14 252.93 241.14 196.403C241.14 146.527 259.278 120.224 292.632 120.224C325.986 120.224 344.125 137.501 344.125 196.403C344.125 251.505 325.273 272.477 291.919 272.477Z" fill="#2F2E41"/>
<path d="M180.035 242.644H160.125V184.076C160.125 180.965 158.888 177.982 156.686 175.782C154.484 173.583 151.497 172.347 148.383 172.347H143.718C142.176 172.347 140.649 172.65 139.224 173.24C137.8 173.829 136.505 174.693 135.415 175.782C134.325 176.871 133.46 178.164 132.87 179.587C132.279 181.01 131.976 182.536 131.976 184.076V242.644H75.8151C74.6597 242.644 73.524 242.345 72.5181 241.778C71.5121 241.21 70.6702 240.392 70.0738 239.404C69.4775 238.415 69.147 237.29 69.1145 236.136C69.082 234.983 69.3485 233.84 69.8883 232.82L129.328 120.441C130.069 119.04 130.518 117.503 130.648 115.924C130.779 114.345 130.587 112.755 130.085 111.252C129.584 109.749 128.782 108.363 127.729 107.177C126.677 105.992 125.394 105.032 123.96 104.355L120.451 102.7C117.727 101.415 114.612 101.225 111.751 102.17C108.89 103.115 106.502 105.122 105.082 107.777L32.5874 243.245C31.3529 245.552 30.707 248.127 30.707 250.743C30.707 252.831 31.1189 254.9 31.919 256.829C32.7192 258.759 33.892 260.512 35.3704 261.989C36.8489 263.466 38.6041 264.638 40.5359 265.437C42.4676 266.236 44.538 266.648 46.6289 266.648H131.976V303.682C131.976 305.528 132.34 307.357 133.047 309.062C133.754 310.768 134.791 312.318 136.098 313.623C137.405 314.929 138.957 315.965 140.664 316.671C142.372 317.378 144.202 317.741 146.05 317.741C147.899 317.741 149.729 317.378 151.436 316.671C153.144 315.965 154.696 314.929 156.003 313.623C157.31 312.318 158.346 310.768 159.054 309.062C159.761 307.357 160.125 305.528 160.125 303.682V266.648H180.035C183.222 266.648 186.278 265.383 188.531 263.132C190.784 260.881 192.05 257.829 192.05 254.646C192.05 251.463 190.784 248.41 188.531 246.159C186.278 243.908 183.222 242.644 180.035 242.644Z" fill="#5865F2"/>
<path d="M548.723 242.644H528.812V184.076C528.812 180.965 527.575 177.982 525.373 175.782C523.171 173.583 520.185 172.347 517.07 172.347H512.405C510.863 172.347 509.336 172.65 507.912 173.24C506.487 173.829 505.193 174.693 504.102 175.782C503.012 176.871 502.147 178.164 501.557 179.587C500.967 181.01 500.663 182.536 500.663 184.076V242.644H444.503C443.347 242.644 442.211 242.345 441.206 241.778C440.2 241.21 439.358 240.392 438.761 239.404C438.165 238.415 437.834 237.29 437.802 236.136C437.769 234.983 438.036 233.84 438.576 232.82L498.015 120.441C498.757 119.04 499.206 117.503 499.336 115.924C499.466 114.345 499.274 112.755 498.773 111.252C498.271 109.749 497.47 108.363 496.417 107.177C495.364 105.992 494.082 105.032 492.647 104.355L489.139 102.7C486.414 101.415 483.299 101.225 480.438 102.17C477.578 103.115 475.19 105.122 473.769 107.777L401.275 243.245C400.04 245.552 399.395 248.127 399.395 250.743C399.395 254.961 401.072 259.006 404.058 261.989C407.044 264.972 411.094 266.648 415.316 266.648H500.663V303.682C500.663 307.411 502.146 310.987 504.786 313.623C507.425 316.26 511.005 317.741 514.738 317.741C518.471 317.741 522.051 316.26 524.69 313.623C527.33 310.987 528.812 307.411 528.812 303.682V266.648H548.723C551.909 266.648 554.965 265.383 557.219 263.132C559.472 260.881 560.738 257.829 560.738 254.646C560.738 251.463 559.472 248.41 557.219 246.159C554.965 243.908 551.909 242.644 548.723 242.644Z" fill="#5865F2"/>
<path d="M185.528 235.785H165.617V177.218C165.617 175.677 165.313 174.152 164.723 172.729C164.133 171.306 163.268 170.013 162.178 168.924C161.088 167.835 159.793 166.971 158.369 166.381C156.944 165.792 155.417 165.489 153.875 165.489H149.21C146.096 165.489 143.109 166.724 140.907 168.924C138.705 171.124 137.468 174.107 137.468 177.218V235.785H81.3073C80.1519 235.785 79.0162 235.487 78.0103 234.92C77.0043 234.352 76.1623 233.534 75.566 232.546C74.9697 231.557 74.6392 230.432 74.6067 229.278C74.5742 228.124 74.8407 226.982 75.3804 225.961L134.82 113.583C135.561 112.182 136.01 110.645 136.141 109.066C136.271 107.486 136.079 105.897 135.578 104.394C135.076 102.891 134.274 101.505 133.222 100.319C132.169 99.1338 130.887 98.1738 129.452 97.4972L125.943 95.842C123.219 94.5568 120.104 94.367 117.243 95.312C114.382 96.2569 111.995 98.2642 110.574 100.919L38.0796 236.387C36.8451 238.694 36.1992 241.269 36.1992 243.885V243.885C36.1992 248.103 37.8767 252.148 40.8626 255.131C43.8486 258.114 47.8983 259.789 52.1211 259.789H137.468V296.824C137.468 298.67 137.832 300.498 138.539 302.204C139.247 303.91 140.283 305.46 141.59 306.765C142.897 308.071 144.449 309.106 146.156 309.813C147.864 310.519 149.694 310.883 151.542 310.883H151.543C155.275 310.883 158.855 309.402 161.495 306.765C164.134 304.129 165.617 300.553 165.617 296.824V259.789H185.528C187.105 259.789 188.668 259.479 190.125 258.876C191.583 258.273 192.908 257.388 194.023 256.274C195.139 255.16 196.024 253.836 196.628 252.38C197.232 250.924 197.542 249.364 197.542 247.787V247.787C197.542 246.211 197.232 244.651 196.628 243.194C196.024 241.738 195.139 240.415 194.023 239.301C192.908 238.186 191.583 237.302 190.125 236.699C188.668 236.096 187.105 235.785 185.528 235.785V235.785Z" stroke="#3F3D56" stroke-miterlimit="10"/>
<path d="M559.022 235.785H539.111V177.218C539.111 174.107 537.874 171.124 535.672 168.924C533.47 166.724 530.484 165.489 527.369 165.489H522.704C521.162 165.489 519.635 165.792 518.211 166.381C516.786 166.971 515.492 167.835 514.401 168.924C513.311 170.013 512.446 171.306 511.856 172.729C511.266 174.152 510.962 175.677 510.962 177.218V235.785H454.801C453.646 235.785 452.51 235.487 451.504 234.92C450.498 234.352 449.656 233.534 449.06 232.546C448.464 231.557 448.133 230.432 448.101 229.278C448.068 228.124 448.335 226.982 448.875 225.961L508.314 113.583C509.055 112.182 509.505 110.645 509.635 109.066C509.765 107.486 509.573 105.897 509.072 104.394C508.57 102.891 507.769 101.505 506.716 100.319C505.663 99.1338 504.381 98.1738 502.946 97.4972L499.437 95.842C496.713 94.5568 493.598 94.367 490.737 95.312C487.876 96.2569 485.489 98.2642 484.068 100.919L411.574 236.387C410.339 238.694 409.693 241.269 409.693 243.885C409.693 248.103 411.371 252.148 414.357 255.131C417.343 258.114 421.392 259.789 425.615 259.789H510.962V296.824C510.962 300.553 512.445 304.129 515.084 306.765C517.724 309.402 521.304 310.883 525.037 310.883V310.883C528.769 310.883 532.349 309.402 534.989 306.765C537.628 304.129 539.111 300.553 539.111 296.824V259.789H559.022C560.6 259.789 562.162 259.479 563.62 258.876C565.077 258.273 566.402 257.388 567.518 256.274C568.633 255.16 569.518 253.836 570.122 252.38C570.726 250.924 571.037 249.364 571.037 247.787V247.787C571.037 244.604 569.771 241.552 567.518 239.301C565.264 237.05 562.208 235.785 559.022 235.785V235.785Z" stroke="#3F3D56" stroke-miterlimit="10"/>
<path d="M302.589 87.3046C254.433 87.3046 219.857 118.167 219.857 190.178C219.857 271.791 254.433 293.395 302.589 293.395C350.745 293.395 387.38 269.734 387.38 190.178C387.38 105.136 350.745 87.3046 302.589 87.3046ZM302.905 266.305C269.551 266.305 252.126 246.758 252.126 190.231C252.126 140.354 270.265 114.052 303.619 114.052C336.973 114.052 355.111 131.329 355.111 190.231C355.111 245.333 336.259 266.305 302.905 266.305V266.305Z" stroke="#3F3D56" stroke-miterlimit="10"/>
<path d="M586.08 259.638C588.771 260.614 591.729 260.565 594.387 259.503C597.046 258.44 599.22 256.438 600.495 253.877C601.771 251.316 602.058 248.376 601.303 245.617C600.548 242.858 598.803 240.473 596.4 238.916L595.032 243.517L594.062 237.749C594.053 237.745 594.043 237.741 594.033 237.738C592.593 237.215 591.064 236.981 589.534 237.049C588.003 237.117 586.501 237.485 585.113 238.133C583.725 238.781 582.479 239.695 581.445 240.824C580.411 241.953 579.61 243.275 579.088 244.714C578.565 246.152 578.332 247.679 578.4 249.208C578.469 250.737 578.839 252.237 579.488 253.623C580.137 255.009 581.054 256.254 582.185 257.286C583.316 258.318 584.639 259.117 586.08 259.638H586.08Z" stroke="#3F3D56" stroke-miterlimit="10"/>
<path d="M573.867 279.524C574.329 282.155 575.684 284.547 577.702 286.298C579.721 288.05 582.281 289.055 584.954 289.145C587.626 289.235 590.248 288.404 592.38 286.792C594.512 285.18 596.025 282.885 596.664 280.291C597.303 277.697 597.029 274.963 595.89 272.547C594.75 270.131 592.813 268.179 590.404 267.02C587.995 265.861 585.261 265.564 582.659 266.18C580.057 266.796 577.746 268.287 576.114 270.402L581.309 278.214L574.21 274.068C573.66 275.833 573.542 277.704 573.867 279.524V279.524Z" stroke="#3F3D56" stroke-miterlimit="10"/>
<path d="M13.7622 239.065C14.1998 237.859 14.9344 236.782 15.8981 235.934C16.8618 235.086 18.0238 234.493 19.2769 234.212L19.9077 237.957L21.0773 234.023C22.7012 234.048 24.2754 234.586 25.5727 235.563C26.87 236.539 27.8232 237.901 28.2947 239.454C28.7662 241.006 28.7316 242.668 28.1958 244.2C27.6601 245.731 26.651 247.053 25.3143 247.974C23.9775 248.896 22.3822 249.369 20.7587 249.325C19.1352 249.282 17.5675 248.724 16.282 247.733C14.9964 246.741 14.0596 245.367 13.6067 243.809C13.1538 242.251 13.2082 240.59 13.7622 239.065V239.065Z" stroke="#3F3D56" stroke-miterlimit="10"/>
<path d="M19.4472 279.505C21.2158 280.146 23.1586 280.114 24.9053 279.416C26.652 278.718 28.0806 277.402 28.9186 275.72C29.7566 274.037 29.9455 272.105 29.4493 270.292C28.953 268.48 27.8064 266.913 26.2279 265.89L25.3292 268.913L24.692 265.124C24.6857 265.121 24.6791 265.118 24.6725 265.116C23.7267 264.773 22.7225 264.62 21.7174 264.665C20.7123 264.71 19.7259 264.952 18.8146 265.378C16.9739 266.238 15.5506 267.793 14.8577 269.701C14.1648 271.609 14.259 273.714 15.1197 275.552C15.9804 277.391 17.537 278.813 19.4472 279.505V279.505Z" stroke="#3F3D56" stroke-miterlimit="10"/>
<path d="M261.824 23.0607C265.358 23.0607 268.223 20.1949 268.223 16.6597C268.223 13.1245 265.358 10.2587 261.824 10.2587C258.289 10.2587 255.424 13.1245 255.424 16.6597C255.424 20.1949 258.289 23.0607 261.824 23.0607Z" fill="#2F2E41"/>
<path d="M277.433 54.1288C287.347 54.1288 295.384 43.714 295.384 30.8667C295.384 18.0195 287.347 7.60468 277.433 7.60468C267.519 7.60468 259.482 18.0195 259.482 30.8667C259.482 43.714 267.519 54.1288 277.433 54.1288Z" fill="#2F2E41"/>
<path opacity="0.1" d="M277.433 47.1033C268.441 47.1033 260.993 38.5345 259.686 27.354C259.55 28.52 259.482 29.6929 259.482 30.8667C259.482 43.714 267.519 54.1288 277.433 54.1288C287.347 54.1288 295.384 43.714 295.384 30.8667C295.384 29.6929 295.316 28.52 295.18 27.354C293.873 38.5345 286.425 47.1033 277.433 47.1033Z" fill="black"/>
<path d="M313.959 98.9906C313.574 100.575 311.912 101.844 310.071 102.731C306.201 104.595 301.427 105.151 296.796 105.337C295.615 105.409 294.43 105.387 293.252 105.272C290.97 105.051 288.829 104.067 287.175 102.478C287.057 102.401 286.961 102.295 286.895 102.171C286.828 102.047 286.795 101.907 286.797 101.766C286.799 101.626 286.837 101.487 286.907 101.365C286.977 101.243 287.077 101.14 287.197 101.067C289.662 98.3585 293.776 96.6978 297.92 95.502C301.062 94.5953 306.542 92.2468 309.969 92.5637C313.289 92.8707 314.446 96.9901 313.959 98.9906Z" fill="#3F3D56"/>
<path opacity="0.1" d="M313.959 98.9906C313.574 100.575 311.912 101.844 310.071 102.731C306.201 104.595 301.427 105.151 296.796 105.337C295.615 105.409 294.43 105.387 293.252 105.272C290.97 105.051 288.829 104.067 287.175 102.478C287.057 102.401 286.961 102.295 286.895 102.171C286.828 102.047 286.795 101.907 286.797 101.766C286.799 101.626 286.837 101.487 286.907 101.365C286.977 101.243 287.077 101.14 287.197 101.067C289.662 98.3585 293.776 96.6978 297.92 95.502C301.062 94.5953 306.542 92.2468 309.969 92.5637C313.289 92.8707 314.446 96.9901 313.959 98.9906Z" fill="black"/>
<path d="M264.751 87.1488C263.57 89.4646 263.356 92.1548 264.157 94.6282C264.971 97.0829 266.495 99.2408 268.536 100.829C273.544 104.843 280.436 105.396 286.853 105.34C292.478 105.291 298.094 104.906 303.672 104.187C305.542 104.021 307.379 103.595 309.13 102.92C311.224 102.013 313.065 100.351 313.81 98.1934C314.556 96.036 314.027 93.3943 312.256 91.9546C310.7 90.6896 308.554 90.5155 306.552 90.3952L295.099 89.7068C296.231 88.5615 297.738 87.9137 299.115 87.0811C300.944 85.9765 302.158 84.1218 303.487 82.4497C305.535 80.0015 307.764 77.71 310.154 75.5943C310.526 77.7329 311.879 79.4891 313.471 80.9647C315.063 82.4403 316.898 83.6283 318.553 85.0332C322.56 88.436 325.446 93.0545 329.66 96.1969C332.56 95.4349 335.27 94.0815 337.621 92.2216L335.983 89.2539C335.847 88.9485 335.634 88.6832 335.366 88.4835C334.902 88.1982 334.305 88.3452 333.766 88.2644C332.327 88.0486 331.699 86.387 331.134 85.0457C329.584 81.3634 326.616 78.5064 324.081 75.4184C322.21 73.1389 320.551 70.6939 319.123 68.1136C318.271 66.5748 317.492 64.9725 316.336 63.6467C315.181 62.3209 313.561 61.2785 311.803 61.2748C310.249 61.2715 308.816 62.0605 307.48 62.8541C303.411 65.2714 299.496 67.939 295.758 70.8416C293.802 72.3607 291.858 73.9657 289.563 74.8972C288.597 75.2893 287.578 75.5573 286.651 76.0345C285.028 76.8702 283.795 78.2842 282.469 79.5394C277.738 84.0162 271.26 86.9168 264.751 87.1488Z" fill="#3F3D56"/>
<path d="M288.698 55.2841C288.645 56.6526 288.354 58.0013 287.838 59.2699C287.577 59.9026 287.188 60.4746 286.696 60.9503C286.203 61.426 285.618 61.7952 284.977 62.0348C284.067 62.2788 283.112 62.3097 282.188 62.1253C281.382 62.0411 280.605 61.7765 279.915 61.351C278.841 60.6125 278.306 59.2949 278.111 58.0053C277.916 56.7173 278.003 55.4012 277.878 54.1038C277.756 53.0559 277.557 52.0185 277.282 51.0001C277.198 50.6614 277.112 50.3241 277.027 49.9869C276.945 49.6497 276.863 49.3125 276.789 48.9753C276.72 48.6583 276.656 48.3398 276.601 48.0198C276.556 47.7497 276.515 47.478 276.486 47.2048C276.458 46.3949 276.323 45.5921 276.085 44.8178C275.86 44.3155 275.58 43.8405 275.248 43.4017C275.106 43.1988 274.968 42.9958 274.842 42.785C274.476 42.2373 274.306 41.5821 274.36 40.9256C274.375 40.8242 274.399 40.7243 274.433 40.6275C274.446 40.59 274.46 40.5525 274.475 40.5166C274.616 40.4785 274.745 40.4066 274.851 40.3073C274.957 40.208 275.038 40.0842 275.086 39.9467C275.139 39.6514 275.114 39.3471 275.012 39.0647C274.896 38.67 274.736 38.2894 274.536 37.9297C274.405 37.6924 273.96 37.2646 273.957 36.9929C273.951 36.4465 275.018 36.0062 275.451 35.7908C276.771 35.1298 278.242 34.8313 279.715 34.9259C280.66 34.9899 281.684 35.2803 282.205 36.0718C282.673 36.7853 282.611 37.7095 282.811 38.5385C282.832 38.659 282.883 38.7723 282.959 38.8679C283.061 38.9608 283.189 39.0197 283.326 39.0365C283.557 39.0825 283.794 39.092 284.028 39.0647H284.03C284.092 39.0597 284.153 39.0509 284.214 39.0381C284.578 38.9708 284.923 38.8219 285.222 38.6025C285.416 38.551 285.611 38.5089 285.807 38.4761C285.815 38.4753 285.823 38.4737 285.831 38.4714C286.613 40.9397 286.714 43.5859 287.354 46.0995C287.671 47.35 288.125 48.5849 288.189 49.8714C288.194 49.9276 288.196 49.9853 288.197 50.0431C288.207 50.4568 288.174 50.8736 288.191 51.2858C288.197 51.4714 288.218 51.6562 288.253 51.8385C288.323 52.1316 288.41 52.4204 288.514 52.7034L288.519 52.7174C288.548 52.808 288.577 52.9001 288.6 52.9922C288.617 53.0593 288.633 53.1249 288.645 53.1921L288.647 53.1967C288.762 53.8866 288.78 54.5894 288.698 55.2841Z" fill="#FBBEBE"/>
<path d="M277.745 39.1412C282.831 39.1412 286.954 35.0172 286.954 29.93C286.954 24.8428 282.831 20.7189 277.745 20.7189C272.658 20.7189 268.535 24.8428 268.535 29.93C268.535 35.0172 272.658 39.1412 277.745 39.1412Z" fill="#FBBEBE"/>
<path d="M336.214 80.1167C335.948 77.6037 335.054 75.1978 333.617 73.1194C333.856 74.5401 334.095 75.9603 334.335 77.38C334.037 77.4662 333.72 77.4636 333.423 77.3724C333.127 77.2811 332.863 77.1052 332.665 76.8663C332.277 76.382 331.98 75.8314 331.789 75.2411C330.743 72.6432 329.375 70.187 327.717 67.9299C321.854 67.4413 316.058 65.0105 310.903 62.1769C305.745 59.3448 300.919 55.9492 295.83 52.9969C294.948 52.4636 294.029 51.994 293.08 51.5918C291.488 50.9533 289.701 50.6223 288.191 49.8714C288.09 49.8214 287.988 49.7683 287.889 49.7137C287.548 49.5282 287.225 49.3113 286.924 49.0658C286.761 48.9338 286.607 48.792 286.462 48.6411C285.709 47.7648 285.112 46.7657 284.696 45.6873C283.886 43.8951 283.598 41.7328 282.789 39.9405C283.161 39.5931 283.578 39.2985 284.03 39.0647H284.032C284.097 39.0303 284.163 38.9975 284.23 38.9663C284.55 38.8156 284.882 38.6939 285.224 38.6026C285.418 38.551 285.613 38.5089 285.809 38.4761C285.817 38.4753 285.825 38.4737 285.833 38.4714C286.745 38.3228 287.679 38.3967 288.557 38.6869C289.84 39.1209 290.921 39.9874 292 40.807C293.752 42.0417 295.433 43.375 297.034 44.8006C297.924 45.653 298.735 46.5897 299.692 47.3641C300.487 47.9779 301.326 48.5335 302.201 49.0268C307.378 52.1117 312.556 55.1961 317.735 58.2801C319.488 59.3245 321.242 60.369 322.956 61.4743C325.56 63.1542 328.07 64.9745 330.578 66.7934C332.056 67.8643 333.534 68.9359 335.011 70.0079C335.496 70.3171 335.921 70.7105 336.268 71.1694C336.574 71.6905 336.764 72.2715 336.825 72.8727C337.196 75.3017 336.986 77.784 336.214 80.1167Z" fill="#FBBEBE"/>
<path d="M290.984 62.2112C290.362 64.9979 287.546 66.6825 286.074 69.1305C284.245 72.1686 284.991 75.7 285.678 79.18C284.423 80.2619 283.168 81.3438 281.911 82.4257C281.218 83.0205 280.525 83.6185 279.779 84.1446C278.691 84.8737 277.554 85.5268 276.376 86.0993C275.265 86.6707 274.154 87.2426 273.042 87.815C272.009 88.3961 270.914 88.86 269.778 89.1983C267.589 89.7603 265.263 89.3669 263.096 88.7159C262.841 88.6488 262.595 88.5486 262.366 88.4177C262.231 88.3371 262.113 88.2304 262.019 88.1039C261.806 87.7208 261.728 87.2767 261.799 86.844C262.019 83.197 262.91 79.6265 263.799 76.0825C264.273 73.9564 264.912 71.8701 265.708 69.8424C266.488 68.1048 267.386 66.4222 268.394 64.8059C269.507 62.7723 270.825 60.8581 272.327 59.0934C273.059 58.4142 273.675 57.62 274.151 56.7422C274.705 55.4777 274.491 54.0273 274.603 52.6503C274.689 51.6157 274.964 50.6056 275.413 49.6699V49.6684C275.654 49.1644 275.944 48.6854 276.278 48.2383C276.43 48.5911 276.581 48.9435 276.732 49.2953C276.832 49.5263 276.931 49.7569 277.029 49.9869C277.157 50.2835 277.284 50.5791 277.41 50.8737C277.773 51.7198 278.137 52.5655 278.499 53.4106C278.891 54.4751 279.45 55.4706 280.154 56.3598C280.476 56.8151 280.91 57.1792 281.415 57.4164C281.919 57.6536 282.477 57.7559 283.033 57.7133C283.589 57.6707 284.124 57.4846 284.587 57.1732C285.049 56.8618 285.423 56.4358 285.672 55.9367C286.196 55.0051 286.576 53.9991 286.799 52.9532C287.107 51.6797 287.15 50.3564 286.924 49.0658C286.547 46.5803 285.491 44.0418 284.723 41.7328C284.41 40.9629 284.229 40.1459 284.187 39.316C284.189 39.2227 284.198 39.1298 284.215 39.0381C284.22 39.0147 284.225 38.9897 284.229 38.9663C284.549 38.8156 284.882 38.6939 285.224 38.6025C285.417 38.551 285.612 38.5089 285.809 38.4761C286.485 42.1356 287.162 45.795 287.84 49.4545C287.855 49.5404 287.873 49.6262 287.888 49.7137C287.985 50.2382 288.083 50.7628 288.193 51.2858C288.291 51.7604 288.397 52.2335 288.516 52.7034L288.52 52.7174C288.561 52.8767 288.603 53.0344 288.647 53.1921L288.648 53.1967C288.769 53.6276 288.903 54.0554 289.054 54.4769C289.972 57.017 291.572 59.5743 290.984 62.2112Z" fill="#6C63FF"/>
<path d="M328.358 101.374C328.329 101.911 328.433 102.447 328.661 102.934C329.237 103.987 330.62 104.227 331.817 104.325C338.808 104.9 345.841 104.686 352.783 103.686C353.16 103.661 353.525 103.547 353.85 103.355C354.837 102.663 354.229 100.976 353.151 100.436C352.073 99.8959 350.794 100.026 349.612 99.7921C348.437 99.4963 347.318 99.011 346.299 98.3552C343.901 96.977 341.537 95.5401 339.209 94.0446C337.823 93.1542 336.187 92.2039 334.625 92.7318C330.396 94.1627 328.33 96.8112 328.358 101.374Z" fill="#3F3D56"/>
<path d="M276.824 48.7801V48.7816C276.813 48.8472 276.802 48.9112 276.788 48.9752C276.771 49.0814 276.751 49.1891 276.731 49.2953C276.537 50.2866 276.3 51.2733 276.027 52.2537C275.277 54.9624 274.274 57.6274 273.278 60.2534C270.606 67.2945 267.933 74.336 265.26 81.3781C264.585 83.1517 263.912 84.9268 263.146 86.6644C262.89 87.2436 262.626 87.8275 262.364 88.4176C261.424 90.5299 260.522 92.711 260.222 94.9591C259.943 96.4387 259.911 97.9544 260.127 99.4445C260.427 100.918 261.321 102.358 262.722 102.903C263.405 103.17 264.384 103.527 264.197 104.237C264.095 104.628 263.652 104.818 263.254 104.884C262.728 104.968 262.191 104.935 261.679 104.787C261.168 104.64 260.695 104.382 260.294 104.031C259.547 103.368 258.972 102.336 257.978 102.225C257.29 102.15 256.656 102.562 256.025 102.851C253.453 104.027 250.456 103.204 247.754 102.369C247.966 101.274 249.065 100.553 250.156 100.334C251.247 100.114 252.376 100.27 253.489 100.241C253.845 100.26 254.199 100.169 254.502 99.98C254.773 99.7306 254.964 99.4053 255.048 99.0464C255.765 96.9218 256.298 94.7395 256.642 92.5236C257.001 90.2084 257.151 87.8572 257.663 85.57C258.061 83.7855 258.676 82.0573 259.203 80.3056C260.223 76.699 261.061 73.0432 261.713 69.3521C262.043 67.8187 262.279 66.2666 262.42 64.7044C262.509 63.4086 262.467 62.1066 262.592 60.8154C262.801 59.1357 263.152 57.4765 263.639 55.8555C264.117 54.0866 264.594 52.3188 265.071 50.552C265.778 47.937 266.536 45.2205 268.328 43.1878C268.951 42.4722 269.713 41.8921 270.569 41.4833C271.425 41.0746 272.355 40.846 273.303 40.8116C273.658 40.8112 274.013 40.8494 274.36 40.9256C274.417 40.9397 274.475 40.9537 274.533 40.9693C274.911 41.0682 275.274 41.2185 275.612 41.4158C276.164 41.0646 276.445 41.1879 276.812 41.7296C277.133 42.303 277.285 42.9561 277.249 43.6125C277.28 45.3448 277.138 47.076 276.824 48.7801Z" fill="#FBBEBE"/>
<path d="M277.433 50.8503L277.41 50.8737L277.284 51.0002L276.029 52.2538L275.414 49.67L273.305 40.8117C273.66 40.8112 274.014 40.8494 274.361 40.9256C274.376 40.8241 274.401 40.7243 274.435 40.6274L274.535 40.9693L275.25 43.4017L276.603 48.0198L276.826 48.7801V48.7817L277.433 50.8503Z" fill="#6C63FF"/>
<path d="M285.397 22.5899C285.396 23.4102 285.233 24.2222 284.918 24.9795C284.603 25.7368 284.142 26.4246 283.561 27.0036C283.351 27.2144 283.125 27.4094 282.886 27.5873C281.809 28.3994 280.497 28.839 279.148 28.8397H271.66C270.005 28.8371 268.419 28.1778 267.25 27.0066C266.081 25.8354 265.424 24.248 265.424 22.593C265.424 20.9379 266.081 19.3505 267.25 18.1793C268.419 17.0081 270.005 16.3489 271.66 16.3463H279.148C280.803 16.3506 282.389 17.0096 283.56 18.1794C284.73 19.3492 285.391 20.9348 285.397 22.5899Z" fill="#2F2E41"/>
<path d="M292.417 23.0607C295.952 23.0607 298.817 20.1949 298.817 16.6597C298.817 13.1245 295.952 10.2587 292.417 10.2587C288.883 10.2587 286.018 13.1245 286.018 16.6597C286.018 20.1949 288.883 23.0607 292.417 23.0607Z" fill="#2F2E41"/>
<path opacity="0.1" d="M292.261 10.2587C292.183 10.2587 292.105 10.2618 292.027 10.2646C293.683 10.3248 295.251 11.025 296.4 12.2177C297.55 13.4104 298.193 15.0028 298.193 16.6597C298.193 18.3166 297.55 19.909 296.4 21.1017C295.251 22.2944 293.683 22.9945 292.027 23.0547C292.105 23.0576 292.183 23.0607 292.261 23.0607C293.959 23.0607 295.587 22.3863 296.787 21.1859C297.987 19.9855 298.661 18.3573 298.661 16.6597C298.661 14.9621 297.987 13.3339 296.787 12.1335C295.587 10.9331 293.959 10.2587 292.261 10.2587Z" fill="black"/>
<path opacity="0.1" d="M261.824 10.2587C261.902 10.2587 261.98 10.2618 262.058 10.2646C260.402 10.3248 258.835 11.025 257.685 12.2177C256.535 13.4104 255.892 15.0028 255.892 16.6597C255.892 18.3166 256.535 19.909 257.685 21.1017C258.835 22.2944 260.402 22.9945 262.058 23.0547C261.98 23.0576 261.902 23.0607 261.824 23.0607C260.127 23.0592 258.501 22.3841 257.302 21.1839C256.103 19.9836 255.43 18.3564 255.43 16.6597C255.43 14.963 256.103 13.3358 257.302 12.1355C258.501 10.9353 260.127 10.2602 261.824 10.2587Z" fill="black"/>
<path opacity="0.1" d="M282.885 27.5873C281.808 28.3994 280.496 28.839 279.147 28.8396H271.658C270.309 28.839 268.997 28.3994 267.92 27.5873H282.885Z" fill="black"/>
<path d="M331.244 73.9682C331.244 73.9682 332.857 78.618 334.334 77.3799L333.157 71.3021L331.244 73.9682Z" fill="#FBBEBE"/>
</g>
<defs>
<clipPath id="clip0">
<rect width="602" height="327" fill="white"/>
</clipPath>
</defs>
</svg>