<svg width="15" height="16" viewBox="0 0 15 16" fill="none" xmlns="http://www.w3.org/2000/svg">
<path d="M7.66669 0C3.80433 0 0.666687 3.048 0.666687 6.8C0.666687 10.552 3.80433 13.6 7.66669 13.6H8.07845V16C12.0808 14.128 14.6667 10.4 14.6667 6.8C14.6667 3.048 11.529 0 7.66669 0ZM7.65022 11.2C7.16433 11.2 6.78551 10.824 6.78551 10.36C6.78551 9.888 7.17257 9.528 7.65022 9.528C8.1361 9.528 8.50669 9.888 8.50669 10.36C8.50669 10.824 8.14433 11.2 7.65022 11.2ZM9.71728 6.264C9.19845 7.008 8.70433 7.232 8.43257 7.712C8.36669 7.824 8.32551 7.92 8.30081 8.104C8.25963 8.416 8.00433 8.648 7.68316 8.648H7.65845C7.2961 8.648 7.00786 8.344 7.0408 7.992C7.06551 7.768 7.11492 7.536 7.24669 7.32C7.58433 6.736 8.21845 6.392 8.58904 5.88C8.98433 5.336 8.76198 4.328 7.65022 4.328C7.14786 4.328 6.81845 4.584 6.61257 4.888C6.4561 5.12 6.14316 5.2 5.87963 5.088C5.53375 4.944 5.38551 4.528 5.59963 4.232C6.01963 3.64 6.71963 3.2 7.64198 3.2C8.65492 3.2 9.35492 3.648 9.70904 4.208C10.0055 4.696 10.1867 5.592 9.71728 6.264Z" fill="#5865F2"/>
</svg>