<svg width="1006" height="1006" viewBox="0 0 1006 1006" fill="none" xmlns="http://www.w3.org/2000/svg">
<path d="M503 1006C780.799 1006 1006 780.799 1006 503C1006 225.201 780.799 0 503 0C225.201 0 0 225.201 0 503C0 780.799 225.201 1006 503 1006Z" fill="#D6CFFF"/>
<path d="M508.172 951.35C752.929 951.35 951.344 752.935 951.344 508.178C951.344 263.42 752.929 65.0054 508.172 65.0054C263.414 65.0054 64.999 263.42 64.999 508.178C64.999 752.935 263.414 951.35 508.172 951.35Z" fill="#8E7AFC"/>
<path d="M664.375 93.3213C756.872 152.166 824.283 243.197 853.59 348.835C882.896 454.473 872.02 567.224 823.06 665.312C774.101 763.4 690.532 839.867 588.493 879.945C486.454 920.024 373.183 920.87 270.556 882.321C322.932 915.547 381.698 937.409 443.055 946.496C504.411 955.582 566.991 951.689 626.749 935.069C686.506 918.449 742.11 889.473 789.965 850.012C837.819 810.552 876.859 761.487 904.56 705.991C932.26 650.495 948.004 589.802 950.774 527.838C953.543 465.875 943.277 404.02 920.639 346.273C898.001 288.526 863.495 236.174 819.352 192.602C775.209 149.029 722.412 115.207 664.375 93.3213V93.3213Z" fill="#6A50FF"/>
<path d="M523.717 177.352L582.065 356.923C585.334 366.981 591.705 375.745 600.262 381.959C608.82 388.173 619.126 391.517 629.702 391.512H818.505C821.957 391.515 825.32 392.611 828.112 394.641C830.904 396.672 832.982 399.533 834.049 402.817C835.116 406.1 835.117 409.636 834.052 412.92C832.987 416.204 830.911 419.067 828.121 421.1L675.386 532.085C666.83 538.299 660.46 547.062 657.191 557.119C653.922 567.176 653.922 578.009 657.19 588.066L715.538 767.637C716.603 770.923 716.601 774.462 715.532 777.746C714.463 781.031 712.383 783.893 709.588 785.923C706.793 787.953 703.427 789.046 699.973 789.046C696.518 789.046 693.153 787.953 690.358 785.923L537.624 674.937C529.068 668.717 518.761 665.366 508.183 665.366C497.605 665.366 487.299 668.717 478.743 674.937L326.009 785.923C323.214 787.953 319.848 789.046 316.394 789.046C312.94 789.046 309.574 787.953 306.779 785.923C303.984 783.893 301.903 781.031 300.834 777.746C299.766 774.462 299.764 770.923 300.829 767.637L359.177 588.066C362.445 578.009 362.444 567.176 359.175 557.119C355.906 547.062 349.537 538.299 340.98 532.085L188.246 421.1C185.455 419.067 183.379 416.204 182.314 412.92C181.249 409.636 181.251 406.1 182.318 402.817C183.385 399.533 185.463 396.672 188.255 394.641C191.047 392.611 194.41 391.515 197.862 391.512H386.664C397.24 391.517 407.546 388.173 416.104 381.959C424.662 375.745 431.033 366.981 434.302 356.923L492.649 177.352C493.723 174.075 495.805 171.221 498.597 169.198C501.39 167.175 504.75 166.085 508.198 166.085C511.646 166.085 515.007 167.175 517.799 169.198C520.591 171.221 522.673 174.075 523.747 177.352H523.717Z" fill="#D6CFFF"/>
</svg>