<svg width="412" height="200" viewBox="0 0 412 200" fill="none" xmlns="http://www.w3.org/2000/svg">
<g clip-path="url(#clip0_858_3334)">
<g opacity="0.3" filter="url(#filter0_f_858_3334)">
<circle cx="182.888" cy="125.888" r="1.88767" fill="#38BAFF"/>
</g>
<g filter="url(#filter1_f_858_3334)">
<circle cx="181.629" cy="172.629" r="0.629223" fill="#38BAFF"/>
</g>
<g filter="url(#filter2_f_858_3334)">
<circle cx="204.629" cy="153.629" r="0.629223" fill="#38BAFF"/>
</g>
<g filter="url(#filter3_f_858_3334)">
<circle cx="159.097" cy="151.097" r="2.09741" fill="#38BAFF"/>
</g>
<g opacity="0.6" filter="url(#filter4_f_858_3334)">
<circle cx="233.678" cy="154.678" r="1.67793" fill="#38BAFF"/>
</g>
<g opacity="0.3" filter="url(#filter5_f_858_3334)">
<circle cx="1.88767" cy="1.88767" r="1.88767" transform="matrix(1 1.74846e-07 1.74846e-07 -1 157 63.2584)" fill="#38BAFF"/>
</g>
<g filter="url(#filter6_f_858_3334)">
<circle cx="0.629223" cy="0.629223" r="0.629223" transform="matrix(1 1.74846e-07 1.74846e-07 -1 157 15.2584)" fill="#38BAFF"/>
</g>
<g filter="url(#filter7_f_858_3334)">
<circle cx="0.629223" cy="0.629223" r="0.629223" transform="matrix(1 1.74846e-07 1.74846e-07 -1 180 34.2584)" fill="#38BAFF"/>
</g>
<g filter="url(#filter8_f_858_3334)">
<circle cx="2.09741" cy="2.09741" r="2.09741" transform="matrix(1 1.74846e-07 1.74846e-07 -1 133 38.2584)" fill="#38BAFF"/>
</g>
<g opacity="0.6" filter="url(#filter9_f_858_3334)">
<circle cx="1.67793" cy="1.67793" r="1.67793" transform="matrix(1 1.74846e-07 1.74846e-07 -1 208 34.2584)" fill="#38BAFF"/>
</g>
<g opacity="0.3" filter="url(#filter10_f_858_3334)">
<circle cx="1.88767" cy="1.88767" r="1.88767" transform="matrix(1 1.74846e-07 1.74846e-07 -1 307 61.2584)" fill="#38BAFF"/>
</g>
<g filter="url(#filter11_f_858_3334)">
<circle cx="0.629223" cy="0.629223" r="0.629223" transform="matrix(1 1.74846e-07 1.74846e-07 -1 307 13.2584)" fill="#38BAFF"/>
</g>
<g filter="url(#filter12_f_858_3334)">
<circle cx="0.629223" cy="0.629223" r="0.629223" transform="matrix(1 1.74846e-07 1.74846e-07 -1 330 32.2584)" fill="#38BAFF"/>
</g>
<g filter="url(#filter13_f_858_3334)">
<circle cx="2.09741" cy="2.09741" r="2.09741" transform="matrix(1 1.74846e-07 1.74846e-07 -1 283 36.2584)" fill="#38BAFF"/>
</g>
<g opacity="0.6" filter="url(#filter14_f_858_3334)">
<circle cx="1.67793" cy="1.67793" r="1.67793" transform="matrix(1 1.74846e-07 1.74846e-07 -1 358 32.2584)" fill="#38BAFF"/>
</g>
<g opacity="0.3" filter="url(#filter15_f_858_3334)">
<circle cx="1.88767" cy="1.88767" r="1.88767" transform="matrix(1 1.74846e-07 1.74846e-07 -1 322 196.258)" fill="#38BAFF"/>
</g>
<g filter="url(#filter16_f_858_3334)">
<circle cx="0.629223" cy="0.629223" r="0.629223" transform="matrix(1 1.74846e-07 1.74846e-07 -1 322 148.258)" fill="#38BAFF"/>
</g>
<g filter="url(#filter17_f_858_3334)">
<circle cx="0.629223" cy="0.629223" r="0.629223" transform="matrix(1 1.74846e-07 1.74846e-07 -1 345 167.258)" fill="#38BAFF"/>
</g>
<g filter="url(#filter18_f_858_3334)">
<circle cx="2.09741" cy="2.09741" r="2.09741" transform="matrix(1 1.74846e-07 1.74846e-07 -1 298 171.258)" fill="#38BAFF"/>
</g>
<g opacity="0.6" filter="url(#filter19_f_858_3334)">
<circle cx="1.67793" cy="1.67793" r="1.67793" transform="matrix(1 1.74846e-07 1.74846e-07 -1 373 167.258)" fill="#38BAFF"/>
</g>
<g filter="url(#filter20_dd_858_3334)">
<path d="M257.075 137.69V105.068H314.519V137.405C314.519 137.709 314.356 137.99 314.093 138.141L285.856 154.345C285.593 154.496 285.27 154.495 285.008 154.344L257.499 138.425C257.236 138.273 257.075 137.993 257.075 137.69Z" fill="#849DC4"/>
<path fill-rule="evenodd" clip-rule="evenodd" d="M273.771 105.068V147.841L257.499 138.425C257.236 138.273 257.075 137.993 257.075 137.69V105.068H273.771Z" fill="#6B84AA"/>
<path fill-rule="evenodd" clip-rule="evenodd" d="M273.205 147.513V105.068H273.771V147.841L273.205 147.513Z" fill="#B0C2DD"/>
<path fill-rule="evenodd" clip-rule="evenodd" d="M297.823 104.785V147.558L314.095 138.142C314.358 137.99 314.519 137.71 314.519 137.407V104.785H297.823Z" fill="#6B84AA"/>
<path fill-rule="evenodd" clip-rule="evenodd" d="M298.39 147.23V104.785H297.824V147.558L298.39 147.23Z" fill="#B0C2DD"/>
<g filter="url(#filter21_d_858_3334)">
<path d="M283.257 56.3018L251.442 73.609C249.83 74.4857 248.827 76.1735 248.827 78.0081L248.827 117.57C248.827 119.405 249.83 121.093 251.442 121.97L283.257 139.277C284.749 140.088 286.551 140.088 288.043 139.277L319.858 121.97C321.47 121.093 322.473 119.405 322.473 117.57L322.473 78.0081C322.473 76.1735 321.47 74.4857 319.858 73.609L288.043 56.3018C286.551 55.4901 284.749 55.4901 283.257 56.3018Z" fill="url(#paint0_linear_858_3334)"/>
<path d="M283.221 62.7775L257.029 77.0261C255.423 77.8995 254.424 79.581 254.424 81.4087L254.424 114.02C254.424 115.848 255.423 117.53 257.029 118.403L283.221 132.652C284.708 133.46 286.503 133.46 287.99 132.652L314.182 118.403C315.788 117.53 316.787 115.848 316.787 114.02L316.787 81.4087C316.787 79.581 315.788 77.8995 314.182 77.0261L287.99 62.7775C286.503 61.9689 284.708 61.9689 283.221 62.7775Z" fill="url(#paint1_linear_858_3334)"/>
<g filter="url(#filter22_f_858_3334)">
<path d="M283.221 62.7775L257.029 77.0261C255.423 77.8995 254.424 79.581 254.424 81.4087L254.424 114.02C254.424 115.848 255.423 117.53 257.029 118.403L283.221 132.652C284.708 133.46 286.503 133.46 287.99 132.652L314.182 118.403C315.788 117.53 316.787 115.848 316.787 114.02L316.787 81.4087C316.787 79.581 315.788 77.8995 314.182 77.0261L287.99 62.7775C286.503 61.9689 284.708 61.9689 283.221 62.7775Z" stroke="url(#paint2_linear_858_3334)" stroke-width="0.294585"/>
</g>
<g opacity="0.5">
<mask id="mask0_858_3334" style="mask-type:alpha" maskUnits="userSpaceOnUse" x="257" y="65" width="58" height="66">
<path d="M283.531 65.6582L259.554 78.6894C258.026 79.5199 257.075 81.1198 257.075 82.859L257.075 112.685C257.075 114.424 258.026 116.024 259.554 116.855L283.531 129.886C284.944 130.654 286.65 130.654 288.063 129.886L312.04 116.855C313.568 116.024 314.519 114.424 314.519 112.685L314.519 82.859C314.519 81.1198 313.568 79.5199 312.04 78.6894L288.063 65.6582C286.65 64.8901 284.944 64.8901 283.531 65.6582Z" fill="#A6D3DE"/>
</mask>
<g mask="url(#mask0_858_3334)">
<path d="M283.531 65.6582L259.554 78.6894C258.026 79.5199 257.075 81.1198 257.075 82.859L257.075 112.685C257.075 114.424 258.026 116.024 259.554 116.855L283.531 129.886C284.944 130.654 286.65 130.654 288.063 129.886L312.04 116.855C313.568 116.024 314.519 114.424 314.519 112.685L314.519 82.859C314.519 81.1198 313.568 79.5199 312.04 78.6894L288.063 65.6582C286.65 64.8901 284.944 64.8901 283.531 65.6582Z" fill="url(#paint3_radial_858_3334)"/>
<path opacity="0.5" d="M280.995 132.435L279.854 63.106H291.739L290.599 132.435H280.995Z" fill="url(#paint4_linear_858_3334)"/>
<path opacity="0.5" d="M280.843 131.82L245.19 72.3496L255.483 66.4071L289.159 127.018L280.843 131.82Z" fill="url(#paint5_linear_858_3334)"/>
<path opacity="0.5" d="M279.852 127.018L313.529 66.4071L323.822 72.3496L288.169 131.82L279.852 127.018Z" fill="url(#paint6_linear_858_3334)"/>
<rect x="257.075" y="93.8086" width="57.4441" height="37.3057" fill="url(#paint7_linear_858_3334)"/>
<g filter="url(#filter23_i_858_3334)">
<path d="M283.531 65.6582L259.554 78.6894C258.026 79.5199 257.075 81.1198 257.075 82.859L257.075 112.685C257.075 114.424 258.026 116.024 259.554 116.855L283.531 129.886C284.944 130.654 286.65 130.654 288.063 129.886L312.04 116.855C313.568 116.024 314.519 114.424 314.519 112.685L314.519 82.859C314.519 81.1198 313.568 79.5199 312.04 78.6894L288.063 65.6582C286.65 64.8901 284.944 64.8901 283.531 65.6582Z" fill="#38BAFF" fill-opacity="0.03"/>
</g>
</g>
</g>
</g>
</g>
<g filter="url(#filter24_d_858_3334)">
<path fill-rule="evenodd" clip-rule="evenodd" d="M285.694 86.9748C289.045 86.9748 289.866 86.9342 291.21 85.8668C291.392 85.7223 291.568 85.5771 291.74 85.4351L291.74 85.435L291.74 85.435C292.68 84.6595 293.509 83.9757 294.623 83.9757C294.811 83.9757 295.008 83.9952 295.214 84.0372C296.866 84.3726 305.659 86.8528 305.659 96.6925C305.659 106.044 299.368 113.054 285.694 113.054C272.02 113.054 265.729 106.044 265.729 96.6925C265.729 86.8528 274.521 84.3726 276.173 84.0372C277.601 83.7472 278.548 84.5284 279.647 85.4351L279.647 85.4351C279.819 85.5771 279.995 85.7223 280.177 85.8668C281.521 86.9342 282.343 86.9748 285.694 86.9748ZM292.06 95.2549C292.06 93.6533 293.358 92.3549 294.96 92.3549C296.561 92.3549 297.86 93.6533 297.86 95.2549V98.7916C297.86 100.393 296.561 101.692 294.96 101.692C293.358 101.692 292.06 100.393 292.06 98.7916V95.2549ZM276.428 92.3549C274.826 92.3549 273.528 93.6533 273.528 95.2549V98.7916C273.528 100.393 274.826 101.692 276.428 101.692C278.029 101.692 279.328 100.393 279.328 98.7916V95.2549C279.328 93.6533 278.029 92.3549 276.428 92.3549ZM281.931 105.231C283.134 105.338 284.395 105.395 285.694 105.395C286.992 105.395 288.253 105.338 289.456 105.231C288.747 106.936 287.328 108.1 285.694 108.1C284.059 108.1 282.64 106.936 281.931 105.231Z" fill="url(#paint8_linear_858_3334)"/>
</g>
<g filter="url(#filter25_f_858_3334)">
<circle cx="254.959" cy="61.7243" r="1.89491" fill="#38BAFF"/>
</g>
<g filter="url(#filter26_f_858_3334)">
<circle cx="261.275" cy="65.0927" r="0.631637" fill="#38BAFF"/>
</g>
<g filter="url(#filter27_f_858_3334)">
<circle cx="265.486" cy="141.731" r="0.631637" fill="#38BAFF"/>
</g>
<g filter="url(#filter28_f_858_3334)">
<circle cx="241.273" cy="111.624" r="2.10546" fill="#38BAFF"/>
</g>
<g filter="url(#filter29_f_858_3334)">
<circle cx="313.49" cy="68.8826" r="1.47382" fill="#38BAFF"/>
</g>
<g filter="url(#filter30_f_858_3334)">
<circle cx="330.124" cy="95.622" r="1.68437" fill="#38BAFF"/>
</g>
<g filter="url(#filter31_f_858_3334)">
<circle cx="278.33" cy="149.943" r="1.68437" fill="#38BAFF"/>
</g>
</g>
<defs>
<filter id="filter0_f_858_3334" x="175.966" y="118.966" width="13.843" height="13.843" filterUnits="userSpaceOnUse" color-interpolation-filters="sRGB">
<feFlood flood-opacity="0" result="BackgroundImageFix"/>
<feBlend mode="normal" in="SourceGraphic" in2="BackgroundImageFix" result="shape"/>
<feGaussianBlur stdDeviation="2.51689" result="effect1_foregroundBlur_858_3334"/>
</filter>
<filter id="filter1_f_858_3334" x="180.581" y="171.581" width="2.09739" height="2.09739" filterUnits="userSpaceOnUse" color-interpolation-filters="sRGB">
<feFlood flood-opacity="0" result="BackgroundImageFix"/>
<feBlend mode="normal" in="SourceGraphic" in2="BackgroundImageFix" result="shape"/>
<feGaussianBlur stdDeviation="0.209741" result="effect1_foregroundBlur_858_3334"/>
</filter>
<filter id="filter2_f_858_3334" x="202.513" y="151.513" width="4.23322" height="4.23322" filterUnits="userSpaceOnUse" color-interpolation-filters="sRGB">
<feFlood flood-opacity="0" result="BackgroundImageFix"/>
<feBlend mode="normal" in="SourceGraphic" in2="BackgroundImageFix" result="shape"/>
<feGaussianBlur stdDeviation="0.743698" result="effect1_foregroundBlur_858_3334"/>
</filter>
<filter id="filter3_f_858_3334" x="152.042" y="144.042" width="14.1108" height="14.1108" filterUnits="userSpaceOnUse" color-interpolation-filters="sRGB">
<feFlood flood-opacity="0" result="BackgroundImageFix"/>
<feBlend mode="normal" in="SourceGraphic" in2="BackgroundImageFix" result="shape"/>
<feGaussianBlur stdDeviation="2.47899" result="effect1_foregroundBlur_858_3334"/>
</filter>
<filter id="filter4_f_858_3334" x="227.805" y="148.805" width="11.7456" height="11.7455" filterUnits="userSpaceOnUse" color-interpolation-filters="sRGB">
<feFlood flood-opacity="0" result="BackgroundImageFix"/>
<feBlend mode="normal" in="SourceGraphic" in2="BackgroundImageFix" result="shape"/>
<feGaussianBlur stdDeviation="2.09741" result="effect1_foregroundBlur_858_3334"/>
</filter>
<filter id="filter5_f_858_3334" x="151.966" y="54.4492" width="13.843" height="13.843" filterUnits="userSpaceOnUse" color-interpolation-filters="sRGB">
<feFlood flood-opacity="0" result="BackgroundImageFix"/>
<feBlend mode="normal" in="SourceGraphic" in2="BackgroundImageFix" result="shape"/>
<feGaussianBlur stdDeviation="2.51689" result="effect1_foregroundBlur_858_3334"/>
</filter>
<filter id="filter6_f_858_3334" x="156.581" y="13.5805" width="2.09739" height="2.09739" filterUnits="userSpaceOnUse" color-interpolation-filters="sRGB">
<feFlood flood-opacity="0" result="BackgroundImageFix"/>
<feBlend mode="normal" in="SourceGraphic" in2="BackgroundImageFix" result="shape"/>
<feGaussianBlur stdDeviation="0.209741" result="effect1_foregroundBlur_858_3334"/>
</filter>
<filter id="filter7_f_858_3334" x="178.513" y="31.5126" width="4.23322" height="4.23322" filterUnits="userSpaceOnUse" color-interpolation-filters="sRGB">
<feFlood flood-opacity="0" result="BackgroundImageFix"/>
<feBlend mode="normal" in="SourceGraphic" in2="BackgroundImageFix" result="shape"/>
<feGaussianBlur stdDeviation="0.743698" result="effect1_foregroundBlur_858_3334"/>
</filter>
<filter id="filter8_f_858_3334" x="128.042" y="29.1056" width="14.1108" height="14.1108" filterUnits="userSpaceOnUse" color-interpolation-filters="sRGB">
<feFlood flood-opacity="0" result="BackgroundImageFix"/>
<feBlend mode="normal" in="SourceGraphic" in2="BackgroundImageFix" result="shape"/>
<feGaussianBlur stdDeviation="2.47899" result="effect1_foregroundBlur_858_3334"/>
</filter>
<filter id="filter9_f_858_3334" x="203.805" y="26.7078" width="11.7455" height="11.7455" filterUnits="userSpaceOnUse" color-interpolation-filters="sRGB">
<feFlood flood-opacity="0" result="BackgroundImageFix"/>
<feBlend mode="normal" in="SourceGraphic" in2="BackgroundImageFix" result="shape"/>
<feGaussianBlur stdDeviation="2.09741" result="effect1_foregroundBlur_858_3334"/>
</filter>
<filter id="filter10_f_858_3334" x="301.966" y="52.4492" width="13.843" height="13.843" filterUnits="userSpaceOnUse" color-interpolation-filters="sRGB">
<feFlood flood-opacity="0" result="BackgroundImageFix"/>
<feBlend mode="normal" in="SourceGraphic" in2="BackgroundImageFix" result="shape"/>
<feGaussianBlur stdDeviation="2.51689" result="effect1_foregroundBlur_858_3334"/>
</filter>
<filter id="filter11_f_858_3334" x="306.581" y="11.5805" width="2.09751" height="2.09739" filterUnits="userSpaceOnUse" color-interpolation-filters="sRGB">
<feFlood flood-opacity="0" result="BackgroundImageFix"/>
<feBlend mode="normal" in="SourceGraphic" in2="BackgroundImageFix" result="shape"/>
<feGaussianBlur stdDeviation="0.209741" result="effect1_foregroundBlur_858_3334"/>
</filter>
<filter id="filter12_f_858_3334" x="328.513" y="29.5126" width="4.23334" height="4.23322" filterUnits="userSpaceOnUse" color-interpolation-filters="sRGB">
<feFlood flood-opacity="0" result="BackgroundImageFix"/>
<feBlend mode="normal" in="SourceGraphic" in2="BackgroundImageFix" result="shape"/>
<feGaussianBlur stdDeviation="0.743698" result="effect1_foregroundBlur_858_3334"/>
</filter>
<filter id="filter13_f_858_3334" x="278.042" y="27.1056" width="14.1108" height="14.1108" filterUnits="userSpaceOnUse" color-interpolation-filters="sRGB">
<feFlood flood-opacity="0" result="BackgroundImageFix"/>
<feBlend mode="normal" in="SourceGraphic" in2="BackgroundImageFix" result="shape"/>
<feGaussianBlur stdDeviation="2.47899" result="effect1_foregroundBlur_858_3334"/>
</filter>
<filter id="filter14_f_858_3334" x="353.805" y="24.7078" width="11.7456" height="11.7455" filterUnits="userSpaceOnUse" color-interpolation-filters="sRGB">
<feFlood flood-opacity="0" result="BackgroundImageFix"/>
<feBlend mode="normal" in="SourceGraphic" in2="BackgroundImageFix" result="shape"/>
<feGaussianBlur stdDeviation="2.09741" result="effect1_foregroundBlur_858_3334"/>
</filter>
<filter id="filter15_f_858_3334" x="316.966" y="187.449" width="13.843" height="13.843" filterUnits="userSpaceOnUse" color-interpolation-filters="sRGB">
<feFlood flood-opacity="0" result="BackgroundImageFix"/>
<feBlend mode="normal" in="SourceGraphic" in2="BackgroundImageFix" result="shape"/>
<feGaussianBlur stdDeviation="2.51689" result="effect1_foregroundBlur_858_3334"/>
</filter>
<filter id="filter16_f_858_3334" x="321.581" y="146.581" width="2.09751" height="2.09739" filterUnits="userSpaceOnUse" color-interpolation-filters="sRGB">
<feFlood flood-opacity="0" result="BackgroundImageFix"/>
<feBlend mode="normal" in="SourceGraphic" in2="BackgroundImageFix" result="shape"/>
<feGaussianBlur stdDeviation="0.209741" result="effect1_foregroundBlur_858_3334"/>
</filter>
<filter id="filter17_f_858_3334" x="343.513" y="164.513" width="4.23334" height="4.23322" filterUnits="userSpaceOnUse" color-interpolation-filters="sRGB">
<feFlood flood-opacity="0" result="BackgroundImageFix"/>
<feBlend mode="normal" in="SourceGraphic" in2="BackgroundImageFix" result="shape"/>
<feGaussianBlur stdDeviation="0.743698" result="effect1_foregroundBlur_858_3334"/>
</filter>
<filter id="filter18_f_858_3334" x="293.042" y="162.106" width="14.1108" height="14.1108" filterUnits="userSpaceOnUse" color-interpolation-filters="sRGB">
<feFlood flood-opacity="0" result="BackgroundImageFix"/>
<feBlend mode="normal" in="SourceGraphic" in2="BackgroundImageFix" result="shape"/>
<feGaussianBlur stdDeviation="2.47899" result="effect1_foregroundBlur_858_3334"/>
</filter>
<filter id="filter19_f_858_3334" x="368.805" y="159.708" width="11.7456" height="11.7455" filterUnits="userSpaceOnUse" color-interpolation-filters="sRGB">
<feFlood flood-opacity="0" result="BackgroundImageFix"/>
<feBlend mode="normal" in="SourceGraphic" in2="BackgroundImageFix" result="shape"/>
<feGaussianBlur stdDeviation="2.09741" result="effect1_foregroundBlur_858_3334"/>
</filter>
<filter id="filter20_dd_858_3334" x="230.799" y="38.8673" width="109.701" height="134.82" filterUnits="userSpaceOnUse" color-interpolation-filters="sRGB">
<feFlood flood-opacity="0" result="BackgroundImageFix"/>
<feColorMatrix in="SourceAlpha" type="matrix" values="0 0 0 0 0 0 0 0 0 0 0 0 0 0 0 0 0 0 127 0" result="hardAlpha"/>
<feOffset/>
<feGaussianBlur stdDeviation="3.0046"/>
<feColorMatrix type="matrix" values="0 0 0 0 0.558594 0 0 0 0 0.596484 0 0 0 0 0.9375 0 0 0 0.04 0"/>
<feBlend mode="normal" in2="BackgroundImageFix" result="effect1_dropShadow_858_3334"/>
<feColorMatrix in="SourceAlpha" type="matrix" values="0 0 0 0 0 0 0 0 0 0 0 0 0 0 0 0 0 0 127 0" result="hardAlpha"/>
<feOffset dy="1.20184"/>
<feGaussianBlur stdDeviation="9.01379"/>
<feColorMatrix type="matrix" values="0 0 0 0 0.670833 0 0 0 0 0.8025 0 0 0 0 1 0 0 0 0.33 0"/>
<feBlend mode="normal" in2="effect1_dropShadow_858_3334" result="effect2_dropShadow_858_3334"/>
<feBlend mode="normal" in="SourceGraphic" in2="effect2_dropShadow_858_3334" result="shape"/>
</filter>
<filter id="filter21_d_858_3334" x="247.059" y="55.693" width="77.1813" height="88.3167" filterUnits="userSpaceOnUse" color-interpolation-filters="sRGB">
<feFlood flood-opacity="0" result="BackgroundImageFix"/>
<feColorMatrix in="SourceAlpha" type="matrix" values="0 0 0 0 0 0 0 0 0 0 0 0 0 0 0 0 0 0 127 0" result="hardAlpha"/>
<feOffset dy="2.35668"/>
<feGaussianBlur stdDeviation="0.883756"/>
<feColorMatrix type="matrix" values="0 0 0 0 0.208958 0 0 0 0 0.389892 0 0 0 0 0.491667 0 0 0 0.54 0"/>
<feBlend mode="normal" in2="BackgroundImageFix" result="effect1_dropShadow_858_3334"/>
<feBlend mode="normal" in="SourceGraphic" in2="effect1_dropShadow_858_3334" result="shape"/>
</filter>
<filter id="filter22_f_858_3334" x="254.188" y="61.9353" width="62.835" height="71.5586" filterUnits="userSpaceOnUse" color-interpolation-filters="sRGB">
<feFlood flood-opacity="0" result="BackgroundImageFix"/>
<feBlend mode="normal" in="SourceGraphic" in2="BackgroundImageFix" result="shape"/>
<feGaussianBlur stdDeviation="0.0441878" result="effect1_foregroundBlur_858_3334"/>
</filter>
<filter id="filter23_i_858_3334" x="257.075" y="65.0822" width="57.4441" height="65.38" filterUnits="userSpaceOnUse" color-interpolation-filters="sRGB">
<feFlood flood-opacity="0" result="BackgroundImageFix"/>
<feBlend mode="normal" in="SourceGraphic" in2="BackgroundImageFix" result="shape"/>
<feColorMatrix in="SourceAlpha" type="matrix" values="0 0 0 0 0 0 0 0 0 0 0 0 0 0 0 0 0 0 127 0" result="hardAlpha"/>
<feOffset/>
<feGaussianBlur stdDeviation="1.98083"/>
<feComposite in2="hardAlpha" operator="arithmetic" k2="-1" k3="1"/>
<feColorMatrix type="matrix" values="0 0 0 0 0.37849 0 0 0 0 0.586923 0 0 0 0 0.704167 0 0 0 1 0"/>
<feBlend mode="normal" in2="shape" result="effect1_innerShadow_858_3334"/>
</filter>
<filter id="filter24_d_858_3334" x="263.779" y="82.9499" width="44.034" height="33.1821" filterUnits="userSpaceOnUse" color-interpolation-filters="sRGB">
<feFlood flood-opacity="0" result="BackgroundImageFix"/>
<feColorMatrix in="SourceAlpha" type="matrix" values="0 0 0 0 0 0 0 0 0 0 0 0 0 0 0 0 0 0 127 0" result="hardAlpha"/>
<feOffset dx="0.102584" dy="1.02584"/>
<feGaussianBlur stdDeviation="1.02584"/>
<feColorMatrix type="matrix" values="0 0 0 0 0.564618 0 0 0 0 0.642192 0 0 0 0 0.841667 0 0 0 0.65 0"/>
<feBlend mode="normal" in2="BackgroundImageFix" result="effect1_dropShadow_858_3334"/>
<feBlend mode="normal" in="SourceGraphic" in2="effect1_dropShadow_858_3334" result="shape"/>
</filter>
<filter id="filter25_f_858_3334" x="248.011" y="54.7762" width="13.896" height="13.896" filterUnits="userSpaceOnUse" color-interpolation-filters="sRGB">
<feFlood flood-opacity="0" result="BackgroundImageFix"/>
<feBlend mode="normal" in="SourceGraphic" in2="BackgroundImageFix" result="shape"/>
<feGaussianBlur stdDeviation="2.52655" result="effect1_foregroundBlur_858_3334"/>
</filter>
<filter id="filter26_f_858_3334" x="259.381" y="63.1978" width="3.78973" height="3.78986" filterUnits="userSpaceOnUse" color-interpolation-filters="sRGB">
<feFlood flood-opacity="0" result="BackgroundImageFix"/>
<feBlend mode="normal" in="SourceGraphic" in2="BackgroundImageFix" result="shape"/>
<feGaussianBlur stdDeviation="0.631638" result="effect1_foregroundBlur_858_3334"/>
</filter>
<filter id="filter27_f_858_3334" x="264.434" y="140.679" width="2.10537" height="2.10549" filterUnits="userSpaceOnUse" color-interpolation-filters="sRGB">
<feFlood flood-opacity="0" result="BackgroundImageFix"/>
<feBlend mode="normal" in="SourceGraphic" in2="BackgroundImageFix" result="shape"/>
<feGaussianBlur stdDeviation="0.210546" result="effect1_foregroundBlur_858_3334"/>
</filter>
<filter id="filter28_f_858_3334" x="238.326" y="108.676" width="5.8953" height="5.8953" filterUnits="userSpaceOnUse" color-interpolation-filters="sRGB">
<feFlood flood-opacity="0" result="BackgroundImageFix"/>
<feBlend mode="normal" in="SourceGraphic" in2="BackgroundImageFix" result="shape"/>
<feGaussianBlur stdDeviation="0.421092" result="effect1_foregroundBlur_858_3334"/>
</filter>
<filter id="filter29_f_858_3334" x="310.332" y="65.7244" width="6.31649" height="6.31637" filterUnits="userSpaceOnUse" color-interpolation-filters="sRGB">
<feFlood flood-opacity="0" result="BackgroundImageFix"/>
<feBlend mode="normal" in="SourceGraphic" in2="BackgroundImageFix" result="shape"/>
<feGaussianBlur stdDeviation="0.842183" result="effect1_foregroundBlur_858_3334"/>
</filter>
<filter id="filter30_f_858_3334" x="324.228" y="89.7267" width="11.7905" height="11.7906" filterUnits="userSpaceOnUse" color-interpolation-filters="sRGB">
<feFlood flood-opacity="0" result="BackgroundImageFix"/>
<feBlend mode="normal" in="SourceGraphic" in2="BackgroundImageFix" result="shape"/>
<feGaussianBlur stdDeviation="2.10546" result="effect1_foregroundBlur_858_3334"/>
</filter>
<filter id="filter31_f_858_3334" x="272.434" y="144.048" width="11.7905" height="11.7906" filterUnits="userSpaceOnUse" color-interpolation-filters="sRGB">
<feFlood flood-opacity="0" result="BackgroundImageFix"/>
<feBlend mode="normal" in="SourceGraphic" in2="BackgroundImageFix" result="shape"/>
<feGaussianBlur stdDeviation="2.10546" result="effect1_foregroundBlur_858_3334"/>
</filter>
<linearGradient id="paint0_linear_858_3334" x1="270.184" y1="65.3105" x2="303.325" y2="131.15" gradientUnits="userSpaceOnUse">
<stop stop-color="#D8E2F1"/>
<stop offset="1" stop-color="#82A2BF"/>
</linearGradient>
<linearGradient id="paint1_linear_858_3334" x1="269.889" y1="70.76" x2="298.464" y2="123.491" gradientUnits="userSpaceOnUse">
<stop stop-color="#A1B5D3"/>
<stop offset="1" stop-color="#D0DEF2"/>
</linearGradient>
<linearGradient id="paint2_linear_858_3334" x1="272.982" y1="68.8452" x2="303.767" y2="124.227" gradientUnits="userSpaceOnUse">
<stop stop-color="#D0DEF2"/>
<stop offset="1" stop-color="#E6EFFC"/>
</linearGradient>
<radialGradient id="paint3_radial_858_3334" cx="0" cy="0" r="1" gradientUnits="userSpaceOnUse" gradientTransform="translate(285.797 97.7721) rotate(90) scale(33.3456 28.7221)">
<stop stop-color="#D0DEF2"/>
<stop offset="1" stop-color="#8DAFE2"/>
</radialGradient>
<linearGradient id="paint4_linear_858_3334" x1="285.797" y1="63.106" x2="285.797" y2="132.435" gradientUnits="userSpaceOnUse">
<stop stop-color="white"/>
<stop offset="1" stop-color="#F2EDED" stop-opacity="0"/>
</linearGradient>
<linearGradient id="paint5_linear_858_3334" x1="250.336" y1="69.3784" x2="285.001" y2="129.419" gradientUnits="userSpaceOnUse">
<stop stop-color="white"/>
<stop offset="1" stop-color="#F2EDED" stop-opacity="0"/>
</linearGradient>
<linearGradient id="paint6_linear_858_3334" x1="318.675" y1="69.3784" x2="284.011" y2="129.419" gradientUnits="userSpaceOnUse">
<stop stop-color="white"/>
<stop offset="1" stop-color="#F2EDED" stop-opacity="0"/>
</linearGradient>
<linearGradient id="paint7_linear_858_3334" x1="285.797" y1="109.985" x2="285.624" y2="128.803" gradientUnits="userSpaceOnUse">
<stop stop-color="#EEF5FF" stop-opacity="0"/>
<stop offset="1" stop-color="#B5D1FB"/>
</linearGradient>
<linearGradient id="paint8_linear_858_3334" x1="282.531" y1="120.344" x2="307.992" y2="109.718" gradientUnits="userSpaceOnUse">
<stop offset="0.168737" stop-color="#E3EEFF"/>
<stop offset="0.360439" stop-color="#DDEBFF"/>
<stop offset="0.451944" stop-color="#CBDDF8"/>
<stop offset="0.627859" stop-color="#C8DCFA"/>
<stop offset="0.80404" stop-color="#D8E6FC"/>
</linearGradient>
<clipPath id="clip0_858_3334">
<path d="M0 200L-8.74228e-06 1.52588e-05L408 -2.57546e-06C410.209 -2.67202e-06 412 1.79086 412 4L412 196C412 198.209 410.209 200 408 200L0 200Z" fill="white"/>
</clipPath>
</defs>
</svg>