<svg width="412" height="200" viewBox="0 0 412 200" fill="none" xmlns="http://www.w3.org/2000/svg">
<g clip-path="url(#clip0_858_3256)">
<g opacity="0.3" filter="url(#filter0_f_858_3256)">
<circle cx="182.888" cy="125.888" r="1.88767" fill="#C8DCFE"/>
</g>
<g filter="url(#filter1_f_858_3256)">
<circle cx="181.629" cy="172.629" r="0.629223" fill="#C8DCFE"/>
</g>
<g filter="url(#filter2_f_858_3256)">
<circle cx="204.629" cy="153.629" r="0.629223" fill="#C8DCFE"/>
</g>
<g filter="url(#filter3_f_858_3256)">
<circle cx="159.097" cy="151.097" r="2.09741" fill="#C8DCFE"/>
</g>
<g opacity="0.6" filter="url(#filter4_f_858_3256)">
<circle cx="233.678" cy="154.678" r="1.67793" fill="#C8DCFE"/>
</g>
<g opacity="0.3" filter="url(#filter5_f_858_3256)">
<circle cx="1.88767" cy="1.88767" r="1.88767" transform="matrix(1 1.74846e-07 1.74846e-07 -1 157 63.2583)" fill="#C8DCFE"/>
</g>
<g filter="url(#filter6_f_858_3256)">
<circle cx="0.629223" cy="0.629223" r="0.629223" transform="matrix(1 1.74846e-07 1.74846e-07 -1 157 15.2583)" fill="#C8DCFE"/>
</g>
<g filter="url(#filter7_f_858_3256)">
<circle cx="0.629223" cy="0.629223" r="0.629223" transform="matrix(1 1.74846e-07 1.74846e-07 -1 180 34.2583)" fill="#C8DCFE"/>
</g>
<g filter="url(#filter8_f_858_3256)">
<circle cx="2.09741" cy="2.09741" r="2.09741" transform="matrix(1 1.74846e-07 1.74846e-07 -1 133 38.2583)" fill="#C8DCFE"/>
</g>
<g opacity="0.6" filter="url(#filter9_f_858_3256)">
<circle cx="1.67793" cy="1.67793" r="1.67793" transform="matrix(1 1.74846e-07 1.74846e-07 -1 208 34.2583)" fill="#C8DCFE"/>
</g>
<g opacity="0.3" filter="url(#filter10_f_858_3256)">
<circle cx="1.88767" cy="1.88767" r="1.88767" transform="matrix(1 1.74846e-07 1.74846e-07 -1 307 61.2585)" fill="#C8DCFE"/>
</g>
<g filter="url(#filter11_f_858_3256)">
<circle cx="0.629223" cy="0.629223" r="0.629223" transform="matrix(1 1.74846e-07 1.74846e-07 -1 307 13.2585)" fill="#C8DCFE"/>
</g>
<g filter="url(#filter12_f_858_3256)">
<circle cx="0.629223" cy="0.629223" r="0.629223" transform="matrix(1 1.74846e-07 1.74846e-07 -1 330 32.2585)" fill="#C8DCFE"/>
</g>
<g filter="url(#filter13_f_858_3256)">
<circle cx="2.09741" cy="2.09741" r="2.09741" transform="matrix(1 1.74846e-07 1.74846e-07 -1 283 36.2585)" fill="#C8DCFE"/>
</g>
<g opacity="0.6" filter="url(#filter14_f_858_3256)">
<circle cx="1.67793" cy="1.67793" r="1.67793" transform="matrix(1 1.74846e-07 1.74846e-07 -1 358 32.2585)" fill="#C8DCFE"/>
</g>
<g opacity="0.3" filter="url(#filter15_f_858_3256)">
<circle cx="1.88767" cy="1.88767" r="1.88767" transform="matrix(1 1.74846e-07 1.74846e-07 -1 322 196.258)" fill="#C8DCFE"/>
</g>
<g filter="url(#filter16_f_858_3256)">
<circle cx="0.629223" cy="0.629223" r="0.629223" transform="matrix(1 1.74846e-07 1.74846e-07 -1 322 148.259)" fill="#C8DCFE"/>
</g>
<g filter="url(#filter17_f_858_3256)">
<circle cx="0.629223" cy="0.629223" r="0.629223" transform="matrix(1 1.74846e-07 1.74846e-07 -1 345 167.259)" fill="#C8DCFE"/>
</g>
<g filter="url(#filter18_f_858_3256)">
<circle cx="2.09741" cy="2.09741" r="2.09741" transform="matrix(1 1.74846e-07 1.74846e-07 -1 298 171.258)" fill="#C8DCFE"/>
</g>
<g opacity="0.6" filter="url(#filter19_f_858_3256)">
<circle cx="1.67793" cy="1.67793" r="1.67793" transform="matrix(1 1.74846e-07 1.74846e-07 -1 373 167.259)" fill="#C8DCFE"/>
</g>
<g filter="url(#filter20_f_858_3256)">
<circle cx="255.384" cy="57.1958" r="1.87471" fill="#C8DCFE"/>
</g>
<g filter="url(#filter21_f_858_3256)">
<circle cx="261.633" cy="60.5282" r="0.624903" fill="#C8DCFE"/>
</g>
<g filter="url(#filter22_f_858_3256)">
<circle cx="265.799" cy="136.35" r="0.624903" fill="#C8DCFE"/>
</g>
<g filter="url(#filter23_f_858_3256)">
<circle cx="241.844" cy="106.563" r="2.08301" fill="#C8DCFE"/>
</g>
<g filter="url(#filter24_f_858_3256)">
<circle cx="313.291" cy="64.2779" r="1.45811" fill="#C8DCFE"/>
</g>
<g filter="url(#filter25_f_858_3256)">
<circle cx="329.747" cy="90.7321" r="1.66641" fill="#C8DCFE"/>
</g>
<g filter="url(#filter26_f_858_3256)">
<circle cx="278.505" cy="144.474" r="1.66641" fill="#C8DCFE"/>
</g>
<g filter="url(#filter27_dd_858_3256)">
<path d="M281.787 57.1621L251.375 73.7058C249.096 74.9457 247.677 77.3326 247.677 79.9271L247.677 117.853C247.677 120.447 249.096 122.834 251.375 124.074L281.787 140.618C283.897 141.766 286.445 141.766 288.555 140.618L318.967 124.074C321.246 122.834 322.665 120.447 322.665 117.853L322.665 79.9271C322.665 77.3326 321.246 74.9457 318.967 73.7059L288.555 57.1621C286.445 56.0142 283.897 56.0142 281.787 57.1621Z" fill="url(#paint0_linear_858_3256)"/>
<path d="M281.755 63.754L257.06 77.1876C254.789 78.4228 253.376 80.8007 253.376 83.3855L253.376 114.243C253.376 116.828 254.789 119.206 257.06 120.441L281.755 133.874C283.857 135.018 286.395 135.018 288.498 133.874L313.192 120.441C315.463 119.206 316.876 116.828 316.876 114.243L316.876 83.3855C316.876 80.8007 315.463 78.4228 313.192 77.1876L288.498 63.754C286.395 62.6104 283.857 62.6104 281.755 63.754Z" fill="url(#paint1_linear_858_3256)"/>
<g filter="url(#filter28_f_858_3256)">
<path d="M281.755 63.754L257.06 77.1876C254.789 78.4228 253.376 80.8007 253.376 83.3855L253.376 114.243C253.376 116.828 254.789 119.206 257.06 120.441L281.755 133.874C283.857 135.018 286.395 135.018 288.498 133.874L313.192 120.441C315.463 119.206 316.876 116.828 316.876 114.243L316.876 83.3855C316.876 80.8007 315.463 78.4228 313.192 77.1876L288.498 63.754C286.395 62.6104 283.857 62.6104 281.755 63.754Z" stroke="url(#paint2_linear_858_3256)" stroke-width="0.416602"/>
</g>
<g opacity="0.5">
<mask id="mask0_858_3256" style="mask-type:alpha" maskUnits="userSpaceOnUse" x="256" y="65" width="59" height="67">
<path d="M282.116 66.6613L259.582 78.9086C257.421 80.0831 256.075 82.3457 256.075 84.8053L256.075 112.94C256.075 115.4 257.421 117.662 259.582 118.837L282.116 131.084C284.115 132.17 286.527 132.17 288.526 131.084L311.06 118.837C313.221 117.662 314.566 115.4 314.566 112.94L314.566 84.8053C314.566 82.3457 313.221 80.0831 311.06 78.9086L288.526 66.6613C286.527 65.5751 284.115 65.5751 282.116 66.6613Z" fill="#A6D3DE"/>
</mask>
<g mask="url(#mask0_858_3256)">
<path d="M282.116 66.6613L259.582 78.9086C257.421 80.0831 256.075 82.3457 256.075 84.8053L256.075 112.94C256.075 115.4 257.421 117.662 259.582 118.837L282.116 131.084C284.115 132.17 286.527 132.17 288.526 131.084L311.06 118.837C313.221 117.662 314.566 115.4 314.566 112.94L314.566 84.8053C314.566 82.3457 313.221 80.0831 311.06 78.9086L288.526 66.6613C286.527 65.5751 284.115 65.5751 282.116 66.6613Z" fill="url(#paint3_radial_858_3256)"/>
<path opacity="0.5" d="M280.432 134.167L279.27 63.5745H291.372L290.21 134.167H280.432Z" fill="url(#paint4_linear_858_3256)"/>
<path opacity="0.5" d="M280.276 133.541L243.974 72.9868L254.454 66.936L288.744 128.652L280.276 133.541Z" fill="url(#paint5_linear_858_3256)"/>
<path opacity="0.5" d="M279.268 128.652L313.558 66.9358L324.038 72.9866L287.736 133.541L279.268 128.652Z" fill="url(#paint6_linear_858_3256)"/>
<rect x="256.075" y="94.8367" width="58.4909" height="37.9855" fill="url(#paint7_linear_858_3256)"/>
<g filter="url(#filter29_i_858_3256)">
<path d="M282.116 66.6613L259.582 78.9086C257.421 80.0831 256.075 82.3457 256.075 84.8053L256.075 112.94C256.075 115.4 257.421 117.662 259.582 118.837L282.116 131.084C284.115 132.17 286.527 132.17 288.526 131.084L311.06 118.837C313.221 117.662 314.566 115.4 314.566 112.94L314.566 84.8053C314.566 82.3457 313.221 80.0831 311.06 78.9086L288.526 66.6613C286.527 65.5751 284.115 65.5751 282.116 66.6613Z" fill="#6052B4" fill-opacity="0.01"/>
</g>
</g>
</g>
<g filter="url(#filter30_d_858_3256)">
<path fill-rule="evenodd" clip-rule="evenodd" d="M285.15 88.1429C288.458 88.1429 289.269 88.1028 290.596 87.0492C290.775 86.9064 290.949 86.7632 291.119 86.6229C292.047 85.8574 292.865 85.1823 293.965 85.1823C294.15 85.1823 294.344 85.2016 294.548 85.2431C296.179 85.5742 304.859 88.0225 304.859 97.7355C304.859 106.967 298.648 113.887 285.15 113.887C271.652 113.887 265.442 106.967 265.442 97.7355C265.442 88.0225 274.121 85.5742 275.752 85.2431C277.162 84.9568 278.097 85.728 279.181 86.623C279.351 86.7632 279.525 86.9065 279.705 87.0492C281.032 88.1028 281.842 88.1429 285.15 88.1429ZM291.434 96.3165C291.434 94.7355 292.716 93.4538 294.297 93.4538C295.878 93.4538 297.16 94.7355 297.16 96.3165V99.8077C297.16 101.389 295.878 102.67 294.297 102.67C292.716 102.67 291.434 101.389 291.434 99.8077V96.3165ZM276.003 93.4538C274.422 93.4538 273.141 94.7355 273.141 96.3165V99.8077C273.141 101.389 274.422 102.67 276.003 102.67C277.584 102.67 278.866 101.389 278.866 99.8077V96.3165C278.866 94.7355 277.584 93.4538 276.003 93.4538ZM281.436 106.164C282.624 106.27 283.868 106.326 285.15 106.326C286.432 106.326 287.676 106.27 288.865 106.164C288.164 107.847 286.764 108.996 285.15 108.996C283.536 108.996 282.136 107.847 281.436 106.164Z" fill="url(#paint8_linear_858_3256)"/>
</g>
</g>
</g>
<defs>
<filter id="filter0_f_858_3256" x="175.966" y="118.966" width="13.843" height="13.843" filterUnits="userSpaceOnUse" color-interpolation-filters="sRGB">
<feFlood flood-opacity="0" result="BackgroundImageFix"/>
<feBlend mode="normal" in="SourceGraphic" in2="BackgroundImageFix" result="shape"/>
<feGaussianBlur stdDeviation="2.51689" result="effect1_foregroundBlur_858_3256"/>
</filter>
<filter id="filter1_f_858_3256" x="180.581" y="171.581" width="2.09739" height="2.09751" filterUnits="userSpaceOnUse" color-interpolation-filters="sRGB">
<feFlood flood-opacity="0" result="BackgroundImageFix"/>
<feBlend mode="normal" in="SourceGraphic" in2="BackgroundImageFix" result="shape"/>
<feGaussianBlur stdDeviation="0.209741" result="effect1_foregroundBlur_858_3256"/>
</filter>
<filter id="filter2_f_858_3256" x="202.513" y="151.513" width="4.23322" height="4.23334" filterUnits="userSpaceOnUse" color-interpolation-filters="sRGB">
<feFlood flood-opacity="0" result="BackgroundImageFix"/>
<feBlend mode="normal" in="SourceGraphic" in2="BackgroundImageFix" result="shape"/>
<feGaussianBlur stdDeviation="0.743698" result="effect1_foregroundBlur_858_3256"/>
</filter>
<filter id="filter3_f_858_3256" x="152.042" y="144.042" width="14.1108" height="14.1108" filterUnits="userSpaceOnUse" color-interpolation-filters="sRGB">
<feFlood flood-opacity="0" result="BackgroundImageFix"/>
<feBlend mode="normal" in="SourceGraphic" in2="BackgroundImageFix" result="shape"/>
<feGaussianBlur stdDeviation="2.47899" result="effect1_foregroundBlur_858_3256"/>
</filter>
<filter id="filter4_f_858_3256" x="227.805" y="148.805" width="11.7456" height="11.7456" filterUnits="userSpaceOnUse" color-interpolation-filters="sRGB">
<feFlood flood-opacity="0" result="BackgroundImageFix"/>
<feBlend mode="normal" in="SourceGraphic" in2="BackgroundImageFix" result="shape"/>
<feGaussianBlur stdDeviation="2.09741" result="effect1_foregroundBlur_858_3256"/>
</filter>
<filter id="filter5_f_858_3256" x="151.966" y="54.4491" width="13.843" height="13.843" filterUnits="userSpaceOnUse" color-interpolation-filters="sRGB">
<feFlood flood-opacity="0" result="BackgroundImageFix"/>
<feBlend mode="normal" in="SourceGraphic" in2="BackgroundImageFix" result="shape"/>
<feGaussianBlur stdDeviation="2.51689" result="effect1_foregroundBlur_858_3256"/>
</filter>
<filter id="filter6_f_858_3256" x="156.581" y="13.5803" width="2.09739" height="2.09751" filterUnits="userSpaceOnUse" color-interpolation-filters="sRGB">
<feFlood flood-opacity="0" result="BackgroundImageFix"/>
<feBlend mode="normal" in="SourceGraphic" in2="BackgroundImageFix" result="shape"/>
<feGaussianBlur stdDeviation="0.209741" result="effect1_foregroundBlur_858_3256"/>
</filter>
<filter id="filter7_f_858_3256" x="178.513" y="31.5124" width="4.23322" height="4.23334" filterUnits="userSpaceOnUse" color-interpolation-filters="sRGB">
<feFlood flood-opacity="0" result="BackgroundImageFix"/>
<feBlend mode="normal" in="SourceGraphic" in2="BackgroundImageFix" result="shape"/>
<feGaussianBlur stdDeviation="0.743698" result="effect1_foregroundBlur_858_3256"/>
</filter>
<filter id="filter8_f_858_3256" x="128.042" y="29.1055" width="14.1108" height="14.1108" filterUnits="userSpaceOnUse" color-interpolation-filters="sRGB">
<feFlood flood-opacity="0" result="BackgroundImageFix"/>
<feBlend mode="normal" in="SourceGraphic" in2="BackgroundImageFix" result="shape"/>
<feGaussianBlur stdDeviation="2.47899" result="effect1_foregroundBlur_858_3256"/>
</filter>
<filter id="filter9_f_858_3256" x="203.805" y="26.7075" width="11.7455" height="11.7456" filterUnits="userSpaceOnUse" color-interpolation-filters="sRGB">
<feFlood flood-opacity="0" result="BackgroundImageFix"/>
<feBlend mode="normal" in="SourceGraphic" in2="BackgroundImageFix" result="shape"/>
<feGaussianBlur stdDeviation="2.09741" result="effect1_foregroundBlur_858_3256"/>
</filter>
<filter id="filter10_f_858_3256" x="301.966" y="52.4494" width="13.843" height="13.843" filterUnits="userSpaceOnUse" color-interpolation-filters="sRGB">
<feFlood flood-opacity="0" result="BackgroundImageFix"/>
<feBlend mode="normal" in="SourceGraphic" in2="BackgroundImageFix" result="shape"/>
<feGaussianBlur stdDeviation="2.51689" result="effect1_foregroundBlur_858_3256"/>
</filter>
<filter id="filter11_f_858_3256" x="306.581" y="11.5805" width="2.09751" height="2.09751" filterUnits="userSpaceOnUse" color-interpolation-filters="sRGB">
<feFlood flood-opacity="0" result="BackgroundImageFix"/>
<feBlend mode="normal" in="SourceGraphic" in2="BackgroundImageFix" result="shape"/>
<feGaussianBlur stdDeviation="0.209741" result="effect1_foregroundBlur_858_3256"/>
</filter>
<filter id="filter12_f_858_3256" x="328.513" y="29.5126" width="4.23334" height="4.23334" filterUnits="userSpaceOnUse" color-interpolation-filters="sRGB">
<feFlood flood-opacity="0" result="BackgroundImageFix"/>
<feBlend mode="normal" in="SourceGraphic" in2="BackgroundImageFix" result="shape"/>
<feGaussianBlur stdDeviation="0.743698" result="effect1_foregroundBlur_858_3256"/>
</filter>
<filter id="filter13_f_858_3256" x="278.042" y="27.1057" width="14.1108" height="14.1108" filterUnits="userSpaceOnUse" color-interpolation-filters="sRGB">
<feFlood flood-opacity="0" result="BackgroundImageFix"/>
<feBlend mode="normal" in="SourceGraphic" in2="BackgroundImageFix" result="shape"/>
<feGaussianBlur stdDeviation="2.47899" result="effect1_foregroundBlur_858_3256"/>
</filter>
<filter id="filter14_f_858_3256" x="353.805" y="24.7078" width="11.7456" height="11.7456" filterUnits="userSpaceOnUse" color-interpolation-filters="sRGB">
<feFlood flood-opacity="0" result="BackgroundImageFix"/>
<feBlend mode="normal" in="SourceGraphic" in2="BackgroundImageFix" result="shape"/>
<feGaussianBlur stdDeviation="2.09741" result="effect1_foregroundBlur_858_3256"/>
</filter>
<filter id="filter15_f_858_3256" x="316.966" y="187.449" width="13.843" height="13.843" filterUnits="userSpaceOnUse" color-interpolation-filters="sRGB">
<feFlood flood-opacity="0" result="BackgroundImageFix"/>
<feBlend mode="normal" in="SourceGraphic" in2="BackgroundImageFix" result="shape"/>
<feGaussianBlur stdDeviation="2.51689" result="effect1_foregroundBlur_858_3256"/>
</filter>
<filter id="filter16_f_858_3256" x="321.581" y="146.581" width="2.09751" height="2.09751" filterUnits="userSpaceOnUse" color-interpolation-filters="sRGB">
<feFlood flood-opacity="0" result="BackgroundImageFix"/>
<feBlend mode="normal" in="SourceGraphic" in2="BackgroundImageFix" result="shape"/>
<feGaussianBlur stdDeviation="0.209741" result="effect1_foregroundBlur_858_3256"/>
</filter>
<filter id="filter17_f_858_3256" x="343.513" y="164.513" width="4.23334" height="4.23334" filterUnits="userSpaceOnUse" color-interpolation-filters="sRGB">
<feFlood flood-opacity="0" result="BackgroundImageFix"/>
<feBlend mode="normal" in="SourceGraphic" in2="BackgroundImageFix" result="shape"/>
<feGaussianBlur stdDeviation="0.743698" result="effect1_foregroundBlur_858_3256"/>
</filter>
<filter id="filter18_f_858_3256" x="293.042" y="162.105" width="14.1108" height="14.1108" filterUnits="userSpaceOnUse" color-interpolation-filters="sRGB">
<feFlood flood-opacity="0" result="BackgroundImageFix"/>
<feBlend mode="normal" in="SourceGraphic" in2="BackgroundImageFix" result="shape"/>
<feGaussianBlur stdDeviation="2.47899" result="effect1_foregroundBlur_858_3256"/>
</filter>
<filter id="filter19_f_858_3256" x="368.805" y="159.708" width="11.7456" height="11.7456" filterUnits="userSpaceOnUse" color-interpolation-filters="sRGB">
<feFlood flood-opacity="0" result="BackgroundImageFix"/>
<feBlend mode="normal" in="SourceGraphic" in2="BackgroundImageFix" result="shape"/>
<feGaussianBlur stdDeviation="2.09741" result="effect1_foregroundBlur_858_3256"/>
</filter>
<filter id="filter20_f_858_3256" x="248.51" y="50.3218" width="13.748" height="13.748" filterUnits="userSpaceOnUse" color-interpolation-filters="sRGB">
<feFlood flood-opacity="0" result="BackgroundImageFix"/>
<feBlend mode="normal" in="SourceGraphic" in2="BackgroundImageFix" result="shape"/>
<feGaussianBlur stdDeviation="2.49961" result="effect1_foregroundBlur_858_3256"/>
</filter>
<filter id="filter21_f_858_3256" x="259.758" y="58.6535" width="3.74937" height="3.74937" filterUnits="userSpaceOnUse" color-interpolation-filters="sRGB">
<feFlood flood-opacity="0" result="BackgroundImageFix"/>
<feBlend mode="normal" in="SourceGraphic" in2="BackgroundImageFix" result="shape"/>
<feGaussianBlur stdDeviation="0.624903" result="effect1_foregroundBlur_858_3256"/>
</filter>
<filter id="filter22_f_858_3256" x="264.757" y="135.308" width="2.08296" height="2.08296" filterUnits="userSpaceOnUse" color-interpolation-filters="sRGB">
<feFlood flood-opacity="0" result="BackgroundImageFix"/>
<feBlend mode="normal" in="SourceGraphic" in2="BackgroundImageFix" result="shape"/>
<feGaussianBlur stdDeviation="0.208301" result="effect1_foregroundBlur_858_3256"/>
</filter>
<filter id="filter23_f_858_3256" x="238.928" y="103.647" width="5.83242" height="5.83242" filterUnits="userSpaceOnUse" color-interpolation-filters="sRGB">
<feFlood flood-opacity="0" result="BackgroundImageFix"/>
<feBlend mode="normal" in="SourceGraphic" in2="BackgroundImageFix" result="shape"/>
<feGaussianBlur stdDeviation="0.416602" result="effect1_foregroundBlur_858_3256"/>
</filter>
<filter id="filter24_f_858_3256" x="310.167" y="61.1534" width="6.24907" height="6.24907" filterUnits="userSpaceOnUse" color-interpolation-filters="sRGB">
<feFlood flood-opacity="0" result="BackgroundImageFix"/>
<feBlend mode="normal" in="SourceGraphic" in2="BackgroundImageFix" result="shape"/>
<feGaussianBlur stdDeviation="0.833204" result="effect1_foregroundBlur_858_3256"/>
</filter>
<filter id="filter25_f_858_3256" x="323.915" y="84.8997" width="11.6648" height="11.6648" filterUnits="userSpaceOnUse" color-interpolation-filters="sRGB">
<feFlood flood-opacity="0" result="BackgroundImageFix"/>
<feBlend mode="normal" in="SourceGraphic" in2="BackgroundImageFix" result="shape"/>
<feGaussianBlur stdDeviation="2.08301" result="effect1_foregroundBlur_858_3256"/>
</filter>
<filter id="filter26_f_858_3256" x="272.673" y="138.641" width="11.6648" height="11.6648" filterUnits="userSpaceOnUse" color-interpolation-filters="sRGB">
<feFlood flood-opacity="0" result="BackgroundImageFix"/>
<feBlend mode="normal" in="SourceGraphic" in2="BackgroundImageFix" result="shape"/>
<feGaussianBlur stdDeviation="2.08301" result="effect1_foregroundBlur_858_3256"/>
</filter>
<filter id="filter27_dd_858_3256" x="222.681" y="32.9713" width="124.981" height="135.17" filterUnits="userSpaceOnUse" color-interpolation-filters="sRGB">
<feFlood flood-opacity="0" result="BackgroundImageFix"/>
<feColorMatrix in="SourceAlpha" type="matrix" values="0 0 0 0 0 0 0 0 0 0 0 0 0 0 0 0 0 0 127 0" result="hardAlpha"/>
<feOffset/>
<feGaussianBlur stdDeviation="4.16602"/>
<feColorMatrix type="matrix" values="0 0 0 0 0.558594 0 0 0 0 0.710156 0 0 0 0 0.9375 0 0 0 1 0"/>
<feBlend mode="normal" in2="BackgroundImageFix" result="effect1_dropShadow_858_3256"/>
<feColorMatrix in="SourceAlpha" type="matrix" values="0 0 0 0 0 0 0 0 0 0 0 0 0 0 0 0 0 0 127 0" result="hardAlpha"/>
<feOffset dy="1.66641"/>
<feGaussianBlur stdDeviation="12.4981"/>
<feColorMatrix type="matrix" values="0 0 0 0 0.670833 0 0 0 0 0.8025 0 0 0 0 1 0 0 0 0.6 0"/>
<feBlend mode="normal" in2="effect1_dropShadow_858_3256" result="effect2_dropShadow_858_3256"/>
<feBlend mode="normal" in="SourceGraphic" in2="effect2_dropShadow_858_3256" result="shape"/>
</filter>
<filter id="filter28_f_858_3256" x="253.043" y="62.563" width="64.1667" height="72.5024" filterUnits="userSpaceOnUse" color-interpolation-filters="sRGB">
<feFlood flood-opacity="0" result="BackgroundImageFix"/>
<feBlend mode="normal" in="SourceGraphic" in2="BackgroundImageFix" result="shape"/>
<feGaussianBlur stdDeviation="0.0624903" result="effect1_foregroundBlur_858_3256"/>
</filter>
<filter id="filter29_i_858_3256" x="256.075" y="65.8467" width="58.491" height="66.052" filterUnits="userSpaceOnUse" color-interpolation-filters="sRGB">
<feFlood flood-opacity="0" result="BackgroundImageFix"/>
<feBlend mode="normal" in="SourceGraphic" in2="BackgroundImageFix" result="shape"/>
<feColorMatrix in="SourceAlpha" type="matrix" values="0 0 0 0 0 0 0 0 0 0 0 0 0 0 0 0 0 0 127 0" result="hardAlpha"/>
<feOffset/>
<feGaussianBlur stdDeviation="2.80129"/>
<feComposite in2="hardAlpha" operator="arithmetic" k2="-1" k3="1"/>
<feColorMatrix type="matrix" values="0 0 0 0 0.297222 0 0 0 0 0.329917 0 0 0 0 0.445833 0 0 0 1 0"/>
<feBlend mode="normal" in2="shape" result="effect1_innerShadow_858_3256"/>
</filter>
<filter id="filter30_d_858_3256" x="261.554" y="82.3026" width="48.056" height="37.3439" filterUnits="userSpaceOnUse" color-interpolation-filters="sRGB">
<feFlood flood-opacity="0" result="BackgroundImageFix"/>
<feColorMatrix in="SourceAlpha" type="matrix" values="0 0 0 0 0 0 0 0 0 0 0 0 0 0 0 0 0 0 127 0" result="hardAlpha"/>
<feOffset dx="0.431963" dy="1.43988"/>
<feGaussianBlur stdDeviation="2.15982"/>
<feColorMatrix type="matrix" values="0 0 0 0 0.625387 0 0 0 0 0.624375 0 0 0 0 0.675 0 0 0 0.8 0"/>
<feBlend mode="normal" in2="BackgroundImageFix" result="effect1_dropShadow_858_3256"/>
<feBlend mode="normal" in="SourceGraphic" in2="effect1_dropShadow_858_3256" result="shape"/>
</filter>
<linearGradient id="paint0_linear_858_3256" x1="269.423" y1="65.8194" x2="303.168" y2="132.859" gradientUnits="userSpaceOnUse">
<stop stop-color="#FAFAFA"/>
<stop offset="1" stop-color="#C2C4CD"/>
</linearGradient>
<linearGradient id="paint1_linear_858_3256" x1="269.124" y1="71.3685" x2="298.219" y2="125.06" gradientUnits="userSpaceOnUse">
<stop stop-color="#CDCFD6"/>
<stop offset="1" stop-color="#EFEFF1"/>
</linearGradient>
<linearGradient id="paint2_linear_858_3256" x1="272.273" y1="69.4188" x2="303.618" y2="125.81" gradientUnits="userSpaceOnUse">
<stop stop-color="#DDDFE2"/>
<stop offset="1" stop-color="white"/>
</linearGradient>
<radialGradient id="paint3_radial_858_3256" cx="0" cy="0" r="1" gradientUnits="userSpaceOnUse" gradientTransform="translate(285.321 98.8727) rotate(90) scale(33.9533 29.2454)">
<stop stop-color="#F5F7FF"/>
<stop offset="1" stop-color="#B3B5C5"/>
</radialGradient>
<linearGradient id="paint4_linear_858_3256" x1="285.321" y1="63.5745" x2="285.321" y2="134.167" gradientUnits="userSpaceOnUse">
<stop stop-color="white"/>
<stop offset="1" stop-color="#F2EDED" stop-opacity="0"/>
</linearGradient>
<linearGradient id="paint5_linear_858_3256" x1="249.214" y1="69.9614" x2="284.51" y2="131.096" gradientUnits="userSpaceOnUse">
<stop stop-color="white"/>
<stop offset="1" stop-color="#F2EDED" stop-opacity="0"/>
</linearGradient>
<linearGradient id="paint6_linear_858_3256" x1="318.798" y1="69.9612" x2="283.502" y2="131.096" gradientUnits="userSpaceOnUse">
<stop stop-color="white"/>
<stop offset="1" stop-color="#F2EDED" stop-opacity="0"/>
</linearGradient>
<linearGradient id="paint7_linear_858_3256" x1="285.321" y1="111.308" x2="285.144" y2="130.469" gradientUnits="userSpaceOnUse">
<stop stop-color="white" stop-opacity="0"/>
<stop offset="1" stop-color="#D0DBFF"/>
</linearGradient>
<linearGradient id="paint8_linear_858_3256" x1="282.028" y1="121.082" x2="307.161" y2="110.594" gradientUnits="userSpaceOnUse">
<stop offset="0.168737" stop-color="#F4F3F8"/>
<stop offset="0.360439" stop-color="white"/>
<stop offset="0.451944" stop-color="white"/>
<stop offset="0.627859" stop-color="#E7E6EE"/>
<stop offset="0.80404" stop-color="#F3F3F3"/>
</linearGradient>
<clipPath id="clip0_858_3256">
<path d="M0 200L-8.74228e-06 1.52588e-05L408 -2.57546e-06C410.209 -2.67202e-06 412 1.79086 412 4L412 196C412 198.209 410.209 200 408 200L0 200Z" fill="white"/>
</clipPath>
</defs>
</svg>