<svg width="20" height="20" viewBox="0 0 20 20" fill="none" xmlns="http://www.w3.org/2000/svg">
<path opacity="0.1" d="M17.8332 10C17.8332 14.3263 14.3261 17.8334 9.99984 17.8334C5.67361 17.8334 2.1665 14.3263 2.1665 10C2.1665 5.67379 5.67361 2.16669 9.99984 2.16669C14.3261 2.16669 17.8332 5.67379 17.8332 10Z" fill="#9A9EB3" stroke="#9A9EB3"/>
<path d="M10 11.4584C10.3417 11.4584 10.625 11.175 10.625 10.8334V6.66669C10.625 6.32502 10.3417 6.04169 10 6.04169C9.65833 6.04169 9.375 6.32502 9.375 6.66669V10.8334C9.375 11.175 9.65833 11.4584 10 11.4584Z" fill="#9A9EB3"/>
<path d="M10.7665 13.0167C10.7248 12.9167 10.6665 12.825 10.5915 12.7417C10.5082 12.6667 10.4165 12.6083 10.3165 12.5667C10.1165 12.4833 9.88317 12.4833 9.68317 12.5667C9.58317 12.6083 9.4915 12.6667 9.40817 12.7417C9.33317 12.825 9.27484 12.9167 9.23317 13.0167C9.1915 13.1167 9.1665 13.225 9.1665 13.3333C9.1665 13.4417 9.1915 13.55 9.23317 13.65C9.27484 13.7583 9.33317 13.8417 9.40817 13.925C9.4915 14 9.58317 14.0583 9.68317 14.1C9.78317 14.1417 9.8915 14.1667 9.99984 14.1667C10.1082 14.1667 10.2165 14.1417 10.3165 14.1C10.4165 14.0583 10.5082 14 10.5915 13.925C10.6665 13.8417 10.7248 13.7583 10.7665 13.65C10.8082 13.55 10.8332 13.4417 10.8332 13.3333C10.8332 13.225 10.8082 13.1167 10.7665 13.0167Z" fill="#9A9EB3"/>
</svg>