<svg width="140" height="37" viewBox="0 0 140 37" fill="none" xmlns="http://www.w3.org/2000/svg">
<path d="M1.01516 4.44041C0.14307 4.82346 -0.100342 5.87395 0.444485 6.65524C3.02858 10.3608 0.894532 15.6381 0.894532 19.3413C0.894532 32.1796 12.4616 36.4287 24.823 36.4287C37.1844 36.4287 48.7515 32.1796 48.7515 19.3413C48.7515 15.6381 46.6175 10.3608 49.2016 6.65524C49.7464 5.87395 49.503 4.82346 48.6309 4.44041C46.5687 3.5348 36.8818 -5.72205e-05 24.823 -5.72205e-05C12.7642 -5.72205e-05 3.07737 3.5348 1.01516 4.44041Z" fill="url(#paint0_linear_1553_8804)"/>
<path d="M29.7237 9.62008C28.5296 10.5683 27.7999 10.6044 24.823 10.6044C21.8461 10.6044 21.1164 10.5683 19.9224 9.62008C18.7283 8.67194 17.8327 7.69665 16.365 7.99465C14.8973 8.29265 7.08618 10.496 7.08618 19.2375C7.08618 27.5455 12.6751 33.7732 24.823 33.7732C36.971 33.7732 42.5599 27.5455 42.5599 19.2375C42.5599 10.496 34.7486 8.29265 33.281 7.99465C33.0975 7.95736 32.923 7.94 32.7557 7.94C31.5847 7.94 30.7685 8.79045 29.7237 9.62008Z" fill="url(#paint1_linear_1553_8804)"/>
<path d="M33.0549 15.384C31.632 15.384 30.4785 16.5375 30.4785 17.9604V21.1024C30.4785 22.5252 31.632 23.6787 33.0549 23.6787C34.4778 23.6787 35.6313 22.5252 35.6313 21.1024V17.9604C35.6313 16.5375 34.4778 15.384 33.0549 15.384Z" fill="#183456"/>
<path d="M16.5912 15.384C15.1683 15.384 14.0148 16.5375 14.0148 17.9604V21.1024C14.0148 22.5252 15.1683 23.6787 16.5912 23.6787C18.0141 23.6787 19.1675 22.5252 19.1675 21.1024V17.9604C19.1675 16.5375 18.0141 15.384 16.5912 15.384Z" fill="#183456"/>
<path d="M24.8231 26.9684C23.6694 26.9684 22.5496 26.9178 21.4802 26.8228C22.1107 28.3375 23.3706 29.3716 24.8231 29.3716C26.2755 29.3716 27.5354 28.3375 28.1659 26.8228C27.0965 26.9178 25.9767 26.9684 24.8231 26.9684Z" fill="#183456"/>
<path d="M66.9354 26.2144V10.6364H73.5128C73.6642 10.6364 73.8662 10.6436 74.1186 10.6581C74.3782 10.6653 74.609 10.6869 74.8109 10.723C75.7413 10.8672 76.5021 11.1737 77.0935 11.6425C77.6921 12.1113 78.1321 12.7027 78.4133 13.4166C78.6946 14.1234 78.8352 14.9131 78.8352 15.7858C78.8352 16.6584 78.691 17.4518 78.4025 18.1658C78.1212 18.8725 77.6813 19.4603 77.0827 19.9291C76.4913 20.3979 75.7341 20.7044 74.8109 20.8486C74.609 20.8775 74.3782 20.8991 74.1186 20.9135C73.8589 20.928 73.657 20.9352 73.5128 20.9352H69.8779V26.2144H66.9354ZM69.8779 18.1874H73.383C73.5344 18.1874 73.7003 18.1802 73.8806 18.1658C74.0609 18.1513 74.2268 18.1225 74.3782 18.0792C74.7749 17.971 75.0814 17.7907 75.2977 17.5383C75.5141 17.2787 75.6619 16.9938 75.7413 16.6837C75.8278 16.3664 75.8711 16.0671 75.8711 15.7858C75.8711 15.5045 75.8278 15.2088 75.7413 14.8987C75.6619 14.5814 75.5141 14.2965 75.2977 14.0441C75.0814 13.7845 74.7749 13.6006 74.3782 13.4924C74.2268 13.4491 74.0609 13.4203 73.8806 13.4058C73.7003 13.3914 73.5344 13.3842 73.383 13.3842H69.8779V18.1874ZM81.0073 26.2144V14.5309H83.6036V17.3869L83.3223 17.019C83.4738 16.6152 83.6757 16.2474 83.9281 15.9156C84.1806 15.5839 84.4907 15.3098 84.8585 15.0934C85.1398 14.9204 85.4463 14.7869 85.778 14.6932C86.1098 14.5922 86.4523 14.5309 86.8057 14.5093C87.1591 14.4804 87.5125 14.4876 87.8659 14.5309V17.2787C87.5414 17.1777 87.1627 17.1453 86.73 17.1813C86.3045 17.2102 85.9187 17.3075 85.5725 17.4734C85.2263 17.6321 84.9342 17.8448 84.6962 18.1117C84.4582 18.3713 84.2779 18.6814 84.1553 19.042C84.0327 19.3954 83.9714 19.7957 83.9714 20.2428V26.2144H81.0073ZM94.97 26.5389C93.7944 26.5389 92.7631 26.2757 91.876 25.7492C90.9889 25.2227 90.2966 24.4979 89.7989 23.5748C89.3085 22.6444 89.0633 21.577 89.0633 20.3726C89.0633 19.1538 89.3157 18.0828 89.8206 17.1597C90.3254 16.2293 91.0214 15.5045 91.9085 14.9853C92.7955 14.466 93.816 14.2064 94.97 14.2064C96.1455 14.2064 97.1768 14.4696 98.0639 14.9961C98.9582 15.5226 99.6542 16.251 100.152 17.1813C100.649 18.1045 100.898 19.1682 100.898 20.3726C100.898 21.5842 100.646 22.6552 100.141 23.5856C99.6433 24.5087 98.9474 25.2335 98.0531 25.76C97.166 26.2793 96.1383 26.5389 94.97 26.5389ZM94.97 23.7911C95.9147 23.7911 96.6179 23.4738 97.0795 22.8391C97.5482 22.1973 97.7826 21.3751 97.7826 20.3726C97.7826 19.3341 97.5446 18.5047 97.0686 17.8845C96.5999 17.2643 95.9003 16.9541 94.97 16.9541C94.3281 16.9541 93.8016 17.0984 93.3905 17.3869C92.9794 17.6753 92.6729 18.0756 92.471 18.5877C92.2763 19.0997 92.1789 19.6947 92.1789 20.3726C92.1789 21.4184 92.4133 22.2514 92.8821 22.8716C93.3581 23.4846 94.054 23.7911 94.97 23.7911ZM103.277 26.2144V10.6364H109.508C110.619 10.6364 111.517 10.86 112.202 11.3071C112.887 11.7471 113.388 12.3024 113.706 12.9731C114.023 13.6438 114.182 14.3218 114.182 15.0069C114.182 15.8796 113.983 16.6044 113.587 17.1813C113.197 17.7583 112.66 18.1441 111.975 18.3388V17.7979C112.948 17.9999 113.677 18.4506 114.16 19.1502C114.651 19.8498 114.896 20.6323 114.896 21.4977C114.896 22.4281 114.723 23.2466 114.376 23.9534C114.037 24.6602 113.518 25.2155 112.819 25.6194C112.119 26.016 111.239 26.2144 110.179 26.2144H103.277ZM106.263 23.4449H109.876C110.273 23.4449 110.626 23.362 110.936 23.1961C111.246 23.023 111.488 22.785 111.661 22.4821C111.841 22.172 111.932 21.8078 111.932 21.3895C111.932 21.0217 111.856 20.6936 111.704 20.4051C111.553 20.1166 111.322 19.8894 111.012 19.7235C110.709 19.5505 110.331 19.4639 109.876 19.4639H106.263V23.4449ZM106.263 16.7161H109.465C109.797 16.7161 110.093 16.6584 110.352 16.5431C110.612 16.4277 110.817 16.251 110.969 16.013C111.12 15.7678 111.196 15.454 111.196 15.0718C111.196 14.5958 111.048 14.1955 110.752 13.871C110.457 13.5465 110.028 13.3842 109.465 13.3842H106.263V16.7161ZM122.311 26.5389C121.135 26.5389 120.104 26.2757 119.217 25.7492C118.33 25.2227 117.637 24.4979 117.14 23.5748C116.649 22.6444 116.404 21.577 116.404 20.3726C116.404 19.1538 116.657 18.0828 117.161 17.1597C117.666 16.2293 118.362 15.5045 119.249 14.9853C120.136 14.466 121.157 14.2064 122.311 14.2064C123.486 14.2064 124.518 14.4696 125.405 14.9961C126.299 15.5226 126.995 16.251 127.493 17.1813C127.99 18.1045 128.239 19.1682 128.239 20.3726C128.239 21.5842 127.987 22.6552 127.482 23.5856C126.984 24.5087 126.288 25.2335 125.394 25.76C124.507 26.2793 123.479 26.5389 122.311 26.5389ZM122.311 23.7911C123.256 23.7911 123.959 23.4738 124.42 22.8391C124.889 22.1973 125.123 21.3751 125.123 20.3726C125.123 19.3341 124.885 18.5047 124.409 17.8845C123.941 17.2643 123.241 16.9541 122.311 16.9541C121.669 16.9541 121.142 17.0984 120.731 17.3869C120.32 17.6753 120.014 18.0756 119.812 18.5877C119.617 19.0997 119.52 19.6947 119.52 20.3726C119.52 21.4184 119.754 22.2514 120.223 22.8716C120.699 23.4846 121.395 23.7911 122.311 23.7911ZM137.628 26.2144C136.82 26.3658 136.027 26.4307 135.248 26.4091C134.476 26.3947 133.784 26.2612 133.171 26.0088C132.565 25.7492 132.104 25.3345 131.786 24.7647C131.498 24.2311 131.346 23.6902 131.332 23.142C131.318 22.5867 131.31 21.9593 131.31 21.2597V11.2855H134.253V21.0866C134.253 21.541 134.256 21.9521 134.264 22.3199C134.278 22.6805 134.354 22.969 134.491 23.1853C134.75 23.5964 135.165 23.82 135.735 23.856C136.305 23.8921 136.936 23.8632 137.628 23.7695V26.2144ZM129.32 16.8027V14.5309H137.628V16.8027H129.32Z" fill="white"/>
<defs>
<linearGradient id="paint0_linear_1553_8804" x1="24.823" y1="-7.71611" x2="24.823" y2="66.3064" gradientUnits="userSpaceOnUse">
<stop stop-color="#819AFF"/>
<stop offset="1" stop-color="#6A50FF"/>
</linearGradient>
<linearGradient id="paint1_linear_1553_8804" x1="24.823" y1="9.64449" x2="24.823" y2="33.1705" gradientUnits="userSpaceOnUse">
<stop stop-color="white"/>
<stop offset="1" stop-color="#E3F0FF"/>
</linearGradient>
</defs>
</svg>