<svg width="21" height="20" viewBox="0 0 21 20" fill="none" xmlns="http://www.w3.org/2000/svg">
<path style="mix-blend-mode:screen" d="M7.9987 5.41658C7.9987 5.27276 7.88211 5.15617 7.73828 5.15617C6.87533 5.15617 6.17578 4.45662 6.17578 3.59367C6.17578 3.44984 6.05919 3.33325 5.91536 3.33325C5.77154 3.33325 5.65495 3.44984 5.65495 3.59367C5.65495 4.45662 4.9554 5.15617 4.09245 5.15617C3.94862 5.15617 3.83203 5.27276 3.83203 5.41658C3.83203 5.56041 3.94862 5.677 4.09245 5.677C4.9554 5.677 5.65495 6.37655 5.65495 7.2395C5.65495 7.38333 5.77154 7.49992 5.91536 7.49992C6.05919 7.49992 6.17578 7.38333 6.17578 7.2395C6.17578 6.37655 6.87533 5.677 7.73828 5.677C7.88211 5.677 7.9987 5.56041 7.9987 5.41658Z" fill="#EFB442"/>
<path d="M7.9987 5.41658C7.9987 5.27276 7.88211 5.15617 7.73828 5.15617C6.87533 5.15617 6.17578 4.45662 6.17578 3.59367C6.17578 3.44984 6.05919 3.33325 5.91536 3.33325C5.77154 3.33325 5.65495 3.44984 5.65495 3.59367C5.65495 4.45662 4.9554 5.15617 4.09245 5.15617C3.94862 5.15617 3.83203 5.27276 3.83203 5.41658C3.83203 5.56041 3.94862 5.677 4.09245 5.677C4.9554 5.677 5.65495 6.37655 5.65495 7.2395C5.65495 7.38333 5.77154 7.49992 5.91536 7.49992C6.05919 7.49992 6.17578 7.38333 6.17578 7.2395C6.17578 6.37655 6.87533 5.677 7.73828 5.677C7.88211 5.677 7.9987 5.56041 7.9987 5.41658Z" fill="#EFB442" fill-opacity="0.5"/>
<path style="mix-blend-mode:screen" d="M14.25 4.99992C14.25 4.7698 14.0634 4.58325 13.8333 4.58325C13.6033 4.58325 13.4167 4.7698 13.4167 4.99992C13.4167 7.07065 11.7377 8.74992 9.66667 8.74992C9.43658 8.74992 9.25 8.9365 9.25 9.16659C9.25 9.39667 9.43658 9.58325 9.66667 9.58325C11.7378 9.58325 13.4167 11.2618 13.4167 13.3333C13.4167 13.5633 13.6033 13.7499 13.8333 13.7499C14.0634 13.7499 14.25 13.5633 14.25 13.3333C14.25 11.2617 15.9284 9.58325 18 9.58325C18.2301 9.58325 18.4167 9.39667 18.4167 9.16659C18.4167 8.9365 18.2301 8.74992 18 8.74992C15.9285 8.74992 14.25 7.07069 14.25 4.99992Z" fill="#EFB442"/>
<path d="M14.25 4.99992C14.25 4.7698 14.0634 4.58325 13.8333 4.58325C13.6033 4.58325 13.4167 4.7698 13.4167 4.99992C13.4167 7.07065 11.7377 8.74992 9.66667 8.74992C9.43658 8.74992 9.25 8.9365 9.25 9.16659C9.25 9.39667 9.43658 9.58325 9.66667 9.58325C11.7378 9.58325 13.4167 11.2618 13.4167 13.3333C13.4167 13.5633 13.6033 13.7499 13.8333 13.7499C14.0634 13.7499 14.25 13.5633 14.25 13.3333C14.25 11.2617 15.9284 9.58325 18 9.58325C18.2301 9.58325 18.4167 9.39667 18.4167 9.16659C18.4167 8.9365 18.2301 8.74992 18 8.74992C15.9285 8.74992 14.25 7.07069 14.25 4.99992Z" fill="#EFB442" fill-opacity="0.5"/>
<path style="mix-blend-mode:screen" d="M6.75 10.4167C6.75 10.1866 6.56345 10 6.33333 10C6.10322 10 5.91667 10.1866 5.91667 10.4167C5.91667 11.7974 4.79738 12.9167 3.41667 12.9167C3.18655 12.9167 3 13.1032 3 13.3333C3 13.5634 3.18655 13.75 3.41667 13.75C4.79738 13.75 5.91667 14.8692 5.91667 16.25C5.91667 16.4801 6.10322 16.6667 6.33333 16.6667C6.56345 16.6667 6.75 16.4801 6.75 16.25C6.75 14.8692 7.86928 13.75 9.25 13.75C9.48008 13.75 9.66667 13.5634 9.66667 13.3333C9.66667 13.1032 9.48008 12.9167 9.25 12.9167C7.86928 12.9167 6.75 11.7974 6.75 10.4167Z" fill="#EFB442"/>
<path d="M6.75 10.4167C6.75 10.1866 6.56345 10 6.33333 10C6.10322 10 5.91667 10.1866 5.91667 10.4167C5.91667 11.7974 4.79738 12.9167 3.41667 12.9167C3.18655 12.9167 3 13.1032 3 13.3333C3 13.5634 3.18655 13.75 3.41667 13.75C4.79738 13.75 5.91667 14.8692 5.91667 16.25C5.91667 16.4801 6.10322 16.6667 6.33333 16.6667C6.56345 16.6667 6.75 16.4801 6.75 16.25C6.75 14.8692 7.86928 13.75 9.25 13.75C9.48008 13.75 9.66667 13.5634 9.66667 13.3333C9.66667 13.1032 9.48008 12.9167 9.25 12.9167C7.86928 12.9167 6.75 11.7974 6.75 10.4167Z" fill="#EFB442" fill-opacity="0.5"/>
</svg>