<svg width="1840" height="810" viewBox="0 0 1840 810" fill="none" xmlns="http://www.w3.org/2000/svg">
<path d="M1176.48 379.056C1080.48 354.256 1121.98 452.056 951.985 515.056C577.975 653.66 -75.182 780.833 -106.515 772C-76.682 791 -372.015 1116 1126.48 931C1240.39 916.938 1319.48 756.056 1694.98 819.556C2070.48 883.056 1857.48 759.556 1905.98 660.056C1954.48 560.556 2110.99 -113.444 2110.99 -134.444C2110.99 -155.444 1701.48 -823.944 1740.48 -201.444C1779.48 421.056 1296.48 410.056 1176.48 379.056Z" fill="#745BFF" stroke="url(#paint0_linear_1940_49378)" stroke-width="2"/>
<path d="M1061.5 778C1160.08 767.365 1141.5 536 1311.5 473C1685.51 334.396 1855.16 -53.3049 1886.5 -44.4716C1856.66 -63.4716 2152 -388.472 653.496 -203.472C539.594 -189.41 460.496 -28.5277 84.9957 -92.0277C-290.504 -155.528 -77.5043 -32.0275 -126.004 67.4725C-174.504 166.972 -331.005 840.973 -331.005 861.973C-331.005 882.973 -545.131 1146.32 39.4957 928.973C589.5 724.5 510 837.5 1061.5 778Z" fill="#745BFF" stroke="url(#paint1_linear_1940_49378)" stroke-width="2"/>
<path d="M465.787 852.209C564.366 841.573 545.787 610.208 715.787 547.208C1089.8 408.605 1321.67 -103.833 1353 -95C1244.5 -174.5 1556.28 -314.263 57.7826 -129.263C-56.1188 -115.201 -135.217 45.6807 -510.717 -17.8193C-886.217 -81.3193 -673.218 42.1809 -721.718 141.681C-770.218 241.181 -926.718 915.181 -926.718 936.181C-926.718 957.181 -1140.84 1220.53 -556.217 1003.18C-6.21313 798.708 -85.7134 911.709 465.787 852.209Z" fill="#745BFF" stroke="url(#paint2_linear_1940_49378)" stroke-width="2"/>
<path d="M-291.314 990.463C-209.966 979.508 -225.298 741.178 -85.0138 676.281C223.62 533.505 363.618 134.132 389.474 143.231C364.856 123.66 608.565 -211.125 -628 -20.5552C-721.992 -6.06995 -787.264 159.655 -1097.13 94.2437C-1406.99 28.832 -1231.22 156.05 -1271.25 258.546C-1311.27 361.041 -1440.41 1055.33 -1440.41 1076.96C-1440.41 1098.6 -1617.11 1369.87 -1134.67 1145.98C-680.81 935.353 -746.413 1051.75 -291.314 990.463Z" fill="#745BFF" stroke="url(#paint3_linear_1940_49378)" stroke-width="2"/>
<path d="M1307 568.5C805.719 557.169 -238.667 836.5 -273 909C-273 942.5 764.584 824.031 862.984 846.831C985.984 875.331 991.984 869.331 1149.48 867.331C1306.98 865.331 1444.48 895.831 1880.48 807.831C2316.48 719.831 1949.98 760.831 2003.48 678.831C2056.98 596.831 2095.48 412.831 2142.48 177.331C2189.48 -58.1686 1919.48 -217.669 1923.48 -19.1686C1927.48 179.331 1771.5 579 1307 568.5Z" fill="#7E67FF" stroke="#836EF5" stroke-width="2"/>
<path d="M505.496 217.028C1006.78 228.36 1592.66 -246.472 1627 -318.972C1627 -352.472 1015.4 -96.5029 916.996 -119.303C793.996 -147.803 787.996 -141.803 630.496 -139.803C472.996 -137.803 335.496 -168.303 -100.504 -80.3029C-536.504 7.69714 -170.004 -33.3029 -223.504 48.6971C-277.004 130.697 -315.504 314.697 -362.504 550.197C-409.504 785.697 -139.504 945.197 -143.504 746.697C-147.504 548.197 40.9961 206.528 505.496 217.028Z" fill="#7E67FF" stroke="#836EF5" stroke-width="2"/>
<path d="M-348.215 777.209C-249.635 766.573 -268.215 535.208 -98.2148 472.208C275.795 333.605 445.448 -54.0966 476.781 -45.2632C446.948 -64.2632 742.28 -389.263 -756.219 -204.263C-870.12 -190.201 -949.219 -29.3193 -1324.72 -92.8193C-1700.22 -156.319 -1487.22 -32.8191 -1535.72 66.6808C-1584.22 166.181 -1740.72 840.181 -1740.72 861.181C-1740.72 882.181 -1954.85 1145.53 -1370.22 928.181C-820.215 723.708 -899.715 836.709 -348.215 777.209Z" fill="#745BFF" stroke="url(#paint4_linear_1940_49378)" stroke-width="2"/>
<defs>
<linearGradient id="paint0_linear_1940_49378" x1="1032.49" y1="158.5" x2="1090.74" y2="836.946" gradientUnits="userSpaceOnUse">
<stop stop-color="#8570FC"/>
<stop offset="1" stop-color="#8570FC" stop-opacity="0"/>
</linearGradient>
<linearGradient id="paint1_linear_1940_49378" x1="747.494" y1="569.028" x2="689.244" y2="-109.418" gradientUnits="userSpaceOnUse">
<stop stop-color="#8570FC"/>
<stop offset="1" stop-color="#8570FC" stop-opacity="0"/>
</linearGradient>
<linearGradient id="paint2_linear_1940_49378" x1="151.779" y1="643.236" x2="93.5291" y2="-35.2099" gradientUnits="userSpaceOnUse">
<stop stop-color="#8570FC"/>
<stop offset="1" stop-color="#8570FC" stop-opacity="0"/>
</linearGradient>
<linearGradient id="paint3_linear_1940_49378" x1="-550.433" y1="775.2" x2="-625.031" y2="79.1731" gradientUnits="userSpaceOnUse">
<stop stop-color="#8570FC"/>
<stop offset="1" stop-color="#8570FC" stop-opacity="0"/>
</linearGradient>
<linearGradient id="paint4_linear_1940_49378" x1="-662.221" y1="568.236" x2="-720.471" y2="-110.21" gradientUnits="userSpaceOnUse">
<stop stop-color="#8570FC"/>
<stop offset="1" stop-color="#8570FC" stop-opacity="0"/>
</linearGradient>
</defs>
</svg>