<svg width="25" height="25" viewBox="0 0 25 25" fill="none" xmlns="http://www.w3.org/2000/svg">
<path d="M19.4698 4.60278V8.10278C19.4698 9.07278 18.6898 9.85278 17.7198 9.85278H9.45987C9.06987 9.85278 8.67985 9.71278 8.36985 9.47278L6.17984 7.72278C5.30984 7.02278 5.30984 5.68279 6.17984 4.98279L8.36985 3.23279C8.67985 2.99279 9.06987 2.85278 9.45987 2.85278H17.7198C18.6898 2.85278 19.4698 3.63278 19.4698 4.60278Z" fill="#9A9EB3"/>
<path d="M18.8398 17.7228L16.6598 19.4728C16.3498 19.7128 15.9598 19.8528 15.5598 19.8528H7.2998C6.3298 19.8528 5.5498 19.0728 5.5498 18.1028V14.6028C5.5498 13.6328 6.3298 12.8528 7.2998 12.8528H15.5598C15.9598 12.8528 16.3498 12.9928 16.6598 13.2328L18.8398 14.9828C19.7198 15.6828 19.7198 17.0228 18.8398 17.7228Z" fill="#9A9EB3"/>
<path opacity="0.4" d="M13.25 9.85278H11.75V12.8528H13.25V9.85278Z" fill="#9A9EB3"/>
<path opacity="0.4" d="M16.25 22.8528C16.25 23.2628 15.91 23.6028 15.5 23.6028H9.5C9.09 23.6028 8.75 23.2628 8.75 22.8528C8.75 22.4428 9.09 22.1028 9.5 22.1028H11.75V19.8528H13.25V22.1028H15.5C15.91 22.1028 16.25 22.4428 16.25 22.8528Z" fill="#9A9EB3"/>
</svg>