<svg width="25" height="24" viewBox="0 0 25 24" fill="none" xmlns="http://www.w3.org/2000/svg">
<path opacity="0.4" d="M16.69 2H8.31C4.67 2 2.5 4.17 2.5 7.81V16.18C2.5 19.83 4.67 22 8.31 22H16.68C20.32 22 22.49 19.83 22.49 16.19V7.81C22.5 4.17 20.33 2 16.69 2Z" fill="#9A9EB3"/>
<path d="M9.32 9.75C8.47 9.75 7.62 9.43 6.97 8.78C6.68 8.49 6.68 8.01 6.97 7.72C7.26 7.43 7.74 7.43 8.03 7.72C8.74 8.43 9.9 8.43 10.61 7.72C10.9 7.43 11.38 7.43 11.67 7.72C11.96 8.01 11.96 8.49 11.67 8.78C11.02 9.42 10.17 9.75 9.32 9.75Z" fill="#9A9EB3"/>
<path d="M15.68 9.75C14.83 9.75 13.98 9.43 13.33 8.78C13.04 8.49 13.04 8.01 13.33 7.72C13.62 7.43 14.1 7.43 14.39 7.72C15.1 8.43 16.26 8.43 16.97 7.72C17.26 7.43 17.74 7.43 18.03 7.72C18.32 8.01 18.32 8.49 18.03 8.78C17.38 9.42 16.53 9.75 15.68 9.75Z" fill="#9A9EB3"/>
<path d="M16.1 12.62H8.9C8.2 12.62 7.63 13.19 7.63 13.9C7.63 16.59 9.82 18.78 12.51 18.78C15.2 18.78 17.39 16.59 17.39 13.9C17.38 13.2 16.8 12.62 16.1 12.62Z" fill="#9A9EB3"/>
</svg>