<svg width="25" height="24" viewBox="0 0 25 24" fill="none" xmlns="http://www.w3.org/2000/svg">
<path opacity="0.4" d="M9.17 14H4.5C3.4 14 2.5 14.9 2.5 16V22H9.17V14Z" fill="#9A9EB3"/>
<path d="M13.83 10H11.16C10.06 10 9.15997 10.9 9.15997 12V22H15.83V12C15.83 10.9 14.94 10 13.83 10Z" fill="#9A9EB3"/>
<path opacity="0.4" d="M20.5 17H15.83V22H22.5V19C22.5 17.9 21.6 17 20.5 17Z" fill="#9A9EB3"/>
<path d="M15.51 4.84999C15.82 4.53999 15.94 4.16999 15.84 3.84999C15.74 3.52999 15.43 3.3 14.99 3.23L14.03 3.06999C13.99 3.05999 13.9 2.99998 13.88 2.95998L13.35 1.89998C12.95 1.08998 12.04 1.08998 11.64 1.89998L11.11 2.95998C11.09 2.99998 11 3.05999 10.96 3.06999L9.99999 3.23C9.55999 3.3 9.25999 3.52999 9.14999 3.84999C9.04999 4.16999 9.16999 4.53999 9.47999 4.84999L10.22 5.59999C10.25 5.62999 10.29 5.75 10.28 5.79L10.07 6.70998C9.90999 7.38998 10.17 7.69997 10.34 7.82997C10.51 7.94997 10.88 8.10999 11.49 7.74999L12.39 7.21999C12.43 7.18999 12.56 7.18999 12.6 7.21999L13.5 7.74999C13.78 7.91999 14.01 7.96999 14.19 7.96999C14.4 7.96999 14.55 7.88997 14.64 7.82997C14.81 7.70997 15.07 7.39998 14.91 6.70998L14.7 5.79C14.69 5.74 14.72 5.62999 14.76 5.59999L15.51 4.84999Z" fill="#9A9EB3"/>
</svg>