<svg width="25" height="24" viewBox="0 0 25 24" fill="none" xmlns="http://www.w3.org/2000/svg">
<path opacity="0.4" d="M16.5 2H8.5C4.5 2 2.5 4 2.5 8V21C2.5 21.55 2.95 22 3.5 22H16.5C20.5 22 22.5 20 22.5 16V8C22.5 4 20.5 2 16.5 2Z" fill="#9A9EB3"/>
<path d="M17.5 8.75H7.5C7.09 8.75 6.75 9.09 6.75 9.5C6.75 9.91 7.09 10.25 7.5 10.25H17.5C17.91 10.25 18.25 9.91 18.25 9.5C18.25 9.09 17.91 8.75 17.5 8.75Z" fill="#9A9EB3"/>
<path d="M14.5 13.75H7.5C7.09 13.75 6.75 14.09 6.75 14.5C6.75 14.91 7.09 15.25 7.5 15.25H14.5C14.91 15.25 15.25 14.91 15.25 14.5C15.25 14.09 14.91 13.75 14.5 13.75Z" fill="#9A9EB3"/>
</svg>