<svg width="555" height="349" viewBox="0 0 555 349" fill="none" xmlns="http://www.w3.org/2000/svg">
<g clip-path="url(#clip0_1251_33237)">
<rect x="49" y="33.3" width="457.271" height="273.979" rx="4.86" fill="url(#paint0_linear_1251_33237)"/>
<rect x="84.9023" y="-301.7" width="386.135" height="908.307" rx="8.0028" fill="#1C1D26"/>
<rect x="95.5" y="26.8499" width="365" height="293" rx="3.5" fill="url(#paint1_linear_1251_33237)"/>
<rect x="115.416" y="62.4158" width="328.115" height="39.0084" rx="4.0014" fill="#1C1D26"/>
<path d="M134.351 86.4199V79.0613H131.47V78.017H138.42V79.0613H135.539V86.4199H134.351ZM139.56 86.4199V80.0577H140.712V86.4199H139.56ZM140.136 78.8333C139.912 78.8333 139.724 78.7612 139.572 78.6172C139.428 78.4731 139.356 78.2971 139.356 78.089C139.356 77.8729 139.428 77.6929 139.572 77.5488C139.724 77.4048 139.912 77.3327 140.136 77.3327C140.36 77.3327 140.544 77.4048 140.688 77.5488C140.84 77.6849 140.916 77.8569 140.916 78.065C140.916 78.2811 140.844 78.4651 140.7 78.6172C140.556 78.7612 140.368 78.8333 140.136 78.8333ZM145.097 86.4919C144.457 86.4919 143.961 86.3199 143.609 85.9758C143.257 85.6316 143.08 85.1395 143.08 84.4992V78.6652H144.233V84.4512C144.233 84.7954 144.317 85.0594 144.485 85.2435C144.661 85.4276 144.909 85.5196 145.229 85.5196C145.589 85.5196 145.889 85.4196 146.13 85.2195L146.49 86.0478C146.314 86.1998 146.102 86.3119 145.853 86.3839C145.613 86.4559 145.361 86.4919 145.097 86.4919ZM142 81.006V80.0577H146.058V81.006H142ZM147.883 86.4199V77.5128H149.035V86.4199H147.883ZM154.069 86.4919C153.388 86.4919 152.788 86.3519 152.268 86.0718C151.756 85.7917 151.356 85.4076 151.068 84.9194C150.787 84.4312 150.647 83.871 150.647 83.2388C150.647 82.6066 150.783 82.0464 151.056 81.5582C151.336 81.07 151.716 80.6899 152.196 80.4178C152.684 80.1377 153.232 79.9977 153.841 79.9977C154.457 79.9977 155.001 80.1337 155.473 80.4058C155.945 80.6779 156.313 81.062 156.578 81.5582C156.85 82.0464 156.986 82.6186 156.986 83.2748C156.986 83.3228 156.982 83.3789 156.974 83.4429C156.974 83.5069 156.97 83.5669 156.962 83.6229H151.548V82.7947H156.361L155.893 83.0828C155.901 82.6746 155.817 82.3105 155.641 81.9904C155.465 81.6703 155.221 81.4222 154.909 81.2461C154.605 81.062 154.249 80.97 153.841 80.97C153.44 80.97 153.084 81.062 152.772 81.2461C152.46 81.4222 152.216 81.6743 152.04 82.0024C151.864 82.3225 151.776 82.6906 151.776 83.1068V83.2988C151.776 83.723 151.872 84.1031 152.064 84.4392C152.264 84.7673 152.54 85.0234 152.892 85.2075C153.244 85.3916 153.648 85.4836 154.105 85.4836C154.481 85.4836 154.821 85.4196 155.125 85.2915C155.437 85.1635 155.709 84.9714 155.941 84.7153L156.578 85.4596C156.289 85.7957 155.929 86.0518 155.497 86.2279C155.073 86.4039 154.597 86.4919 154.069 86.4919Z" fill="#696C80"/>
<rect x="115.416" y="113.428" width="328.115" height="66.0231" rx="4.0014" fill="#1C1D26"/>
<rect x="131.424" y="125.433" width="104.036" height="15.0052" rx="7.50262" fill="#282A37"/>
<rect x="239.96" y="125.432" width="38.0133" height="15.0052" rx="7.50262" fill="#282A37"/>
<rect x="115.416" y="190.463" width="192.067" height="39.0084" rx="4.0014" fill="#1C1D26"/>
<path d="M133.763 210.037H138.096V211.07H133.763V210.037ZM133.883 214.467H132.682V206.064H138.612V207.108H133.883V214.467ZM140.134 214.467V208.105H141.287V214.467H140.134ZM140.71 206.88C140.486 206.88 140.298 206.808 140.146 206.664C140.002 206.52 139.93 206.344 139.93 206.136C139.93 205.92 140.002 205.74 140.146 205.596C140.298 205.452 140.486 205.38 140.71 205.38C140.934 205.38 141.118 205.452 141.263 205.596C141.415 205.732 141.491 205.904 141.491 206.112C141.491 206.328 141.419 206.512 141.275 206.664C141.13 206.808 140.942 206.88 140.71 206.88ZM146.32 214.539C145.64 214.539 145.039 214.399 144.519 214.119C144.007 213.839 143.607 213.455 143.319 212.967C143.039 212.478 142.899 211.918 142.899 211.286C142.899 210.654 143.035 210.094 143.307 209.605C143.587 209.117 143.967 208.737 144.447 208.465C144.935 208.185 145.484 208.045 146.092 208.045C146.708 208.045 147.252 208.181 147.724 208.453C148.196 208.725 148.565 209.109 148.829 209.605C149.101 210.094 149.237 210.666 149.237 211.322C149.237 211.37 149.233 211.426 149.225 211.49C149.225 211.554 149.221 211.614 149.213 211.67H143.799V210.842H148.613L148.144 211.13C148.152 210.722 148.068 210.358 147.892 210.037C147.716 209.717 147.472 209.469 147.16 209.293C146.856 209.109 146.5 209.017 146.092 209.017C145.692 209.017 145.335 209.109 145.023 209.293C144.711 209.469 144.467 209.721 144.291 210.049C144.115 210.37 144.027 210.738 144.027 211.154V211.346C144.027 211.77 144.123 212.15 144.315 212.486C144.515 212.814 144.791 213.071 145.143 213.255C145.496 213.439 145.9 213.531 146.356 213.531C146.732 213.531 147.072 213.467 147.376 213.339C147.688 213.211 147.96 213.019 148.192 212.762L148.829 213.507C148.541 213.843 148.18 214.099 147.748 214.275C147.324 214.451 146.848 214.539 146.32 214.539ZM150.837 214.467V205.56H151.989V214.467H150.837ZM156.819 214.539C156.203 214.539 155.65 214.403 155.162 214.131C154.682 213.859 154.302 213.479 154.022 212.991C153.742 212.502 153.602 211.934 153.602 211.286C153.602 210.638 153.742 210.074 154.022 209.593C154.302 209.105 154.682 208.725 155.162 208.453C155.65 208.181 156.203 208.045 156.819 208.045C157.355 208.045 157.839 208.165 158.271 208.405C158.703 208.645 159.048 209.005 159.304 209.485C159.568 209.965 159.7 210.566 159.7 211.286C159.7 212.006 159.572 212.606 159.316 213.087C159.068 213.567 158.727 213.931 158.295 214.179C157.863 214.419 157.371 214.539 156.819 214.539ZM156.915 213.531C157.315 213.531 157.675 213.439 157.995 213.255C158.323 213.071 158.579 212.81 158.763 212.474C158.955 212.13 159.052 211.734 159.052 211.286C159.052 210.83 158.955 210.438 158.763 210.11C158.579 209.773 158.323 209.513 157.995 209.329C157.675 209.145 157.315 209.053 156.915 209.053C156.507 209.053 156.142 209.145 155.822 209.329C155.502 209.513 155.246 209.773 155.054 210.11C154.862 210.438 154.766 210.83 154.766 211.286C154.766 211.734 154.862 212.13 155.054 212.474C155.246 212.81 155.502 213.071 155.822 213.255C156.142 213.439 156.507 213.531 156.915 213.531ZM159.088 214.467V212.75L159.16 211.274L159.04 209.797V205.56H160.192V214.467H159.088ZM168.993 208.045C169.514 208.045 169.97 208.145 170.362 208.345C170.762 208.545 171.074 208.849 171.298 209.257C171.522 209.665 171.634 210.182 171.634 210.806V214.467H170.482V210.938C170.482 210.322 170.33 209.857 170.026 209.545C169.73 209.233 169.309 209.077 168.765 209.077C168.357 209.077 168.001 209.157 167.697 209.317C167.393 209.477 167.157 209.713 166.989 210.025C166.829 210.338 166.749 210.726 166.749 211.19V214.467H165.596V208.105H166.701V209.821L166.52 209.365C166.729 208.949 167.049 208.625 167.481 208.393C167.913 208.161 168.417 208.045 168.993 208.045ZM177.716 214.467V213.123L177.656 212.87V210.578C177.656 210.09 177.512 209.713 177.224 209.449C176.944 209.177 176.52 209.041 175.952 209.041C175.576 209.041 175.207 209.105 174.847 209.233C174.487 209.353 174.183 209.517 173.935 209.725L173.455 208.861C173.783 208.597 174.175 208.397 174.631 208.261C175.095 208.117 175.58 208.045 176.084 208.045C176.956 208.045 177.628 208.257 178.1 208.681C178.573 209.105 178.809 209.753 178.809 210.626V214.467H177.716ZM175.628 214.539C175.155 214.539 174.739 214.459 174.379 214.299C174.027 214.139 173.755 213.919 173.563 213.639C173.371 213.351 173.275 213.027 173.275 212.666C173.275 212.322 173.355 212.01 173.515 211.73C173.683 211.45 173.951 211.226 174.319 211.058C174.695 210.89 175.199 210.806 175.832 210.806H177.848V211.634H175.88C175.304 211.634 174.915 211.73 174.715 211.922C174.515 212.114 174.415 212.346 174.415 212.618C174.415 212.931 174.539 213.183 174.787 213.375C175.035 213.559 175.38 213.651 175.82 213.651C176.252 213.651 176.628 213.555 176.948 213.363C177.276 213.171 177.512 212.89 177.656 212.522L177.884 213.315C177.732 213.691 177.464 213.991 177.08 214.215C176.696 214.431 176.212 214.539 175.628 214.539ZM188.9 208.045C189.412 208.045 189.864 208.145 190.257 208.345C190.649 208.545 190.953 208.849 191.169 209.257C191.393 209.665 191.505 210.182 191.505 210.806V214.467H190.353V210.938C190.353 210.322 190.209 209.857 189.921 209.545C189.632 209.233 189.228 209.077 188.708 209.077C188.324 209.077 187.988 209.157 187.7 209.317C187.412 209.477 187.188 209.713 187.027 210.025C186.875 210.338 186.799 210.726 186.799 211.19V214.467H185.647V210.938C185.647 210.322 185.503 209.857 185.215 209.545C184.935 209.233 184.531 209.077 184.002 209.077C183.626 209.077 183.294 209.157 183.006 209.317C182.718 209.477 182.494 209.713 182.334 210.025C182.174 210.338 182.094 210.726 182.094 211.19V214.467H180.941V208.105H182.046V209.797L181.866 209.365C182.066 208.949 182.374 208.625 182.79 208.393C183.206 208.161 183.69 208.045 184.243 208.045C184.851 208.045 185.375 208.197 185.815 208.501C186.255 208.797 186.543 209.249 186.679 209.857L186.211 209.665C186.403 209.177 186.739 208.785 187.22 208.489C187.7 208.193 188.26 208.045 188.9 208.045ZM196.458 214.539C195.778 214.539 195.178 214.399 194.658 214.119C194.146 213.839 193.746 213.455 193.457 212.967C193.177 212.478 193.037 211.918 193.037 211.286C193.037 210.654 193.173 210.094 193.445 209.605C193.726 209.117 194.106 208.737 194.586 208.465C195.074 208.185 195.622 208.045 196.23 208.045C196.847 208.045 197.391 208.181 197.863 208.453C198.335 208.725 198.703 209.109 198.967 209.605C199.239 210.094 199.376 210.666 199.376 211.322C199.376 211.37 199.372 211.426 199.364 211.49C199.364 211.554 199.36 211.614 199.351 211.67H193.938V210.842H198.751L198.283 211.13C198.291 210.722 198.207 210.358 198.031 210.037C197.855 209.717 197.611 209.469 197.299 209.293C196.995 209.109 196.639 209.017 196.23 209.017C195.83 209.017 195.474 209.109 195.162 209.293C194.85 209.469 194.606 209.721 194.43 210.049C194.254 210.37 194.166 210.738 194.166 211.154V211.346C194.166 211.77 194.262 212.15 194.454 212.486C194.654 212.814 194.93 213.071 195.282 213.255C195.634 213.439 196.038 213.531 196.494 213.531C196.871 213.531 197.211 213.467 197.515 213.339C197.827 213.211 198.099 213.019 198.331 212.762L198.967 213.507C198.679 213.843 198.319 214.099 197.887 214.275C197.463 214.451 196.987 214.539 196.458 214.539Z" fill="#696C80"/>
<rect x="319.487" y="190.46" width="75.0263" height="39.0137" rx="4.0014" fill="#1C1D26"/>
<g filter="url(#filter0_d_1251_33237)">
<path d="M333.856 213.793V206.141C333.856 205.078 334.31 204.653 335.437 204.653H336.174C337.3 204.653 337.754 205.078 337.754 206.141V213.793C337.754 214.856 337.3 215.281 336.174 215.281H335.437C334.31 215.281 333.856 214.856 333.856 213.793Z" stroke="#696C80" stroke-width="1.20042" stroke-linecap="round" stroke-linejoin="round"/>
<path d="M339.88 212.376V207.558C339.88 206.495 340.333 206.07 341.46 206.07H342.197C343.324 206.07 343.777 206.495 343.777 207.558V212.376C343.777 213.439 343.324 213.864 342.197 213.864H341.46C340.333 213.864 339.88 213.439 339.88 212.376Z" stroke="#696C80" stroke-width="1.20042" stroke-linecap="round" stroke-linejoin="round"/>
<path d="M331.908 209.967H333.608" stroke="#696C80" stroke-width="1.20042" stroke-linecap="round" stroke-linejoin="round"/>
<path d="M338.286 209.967H339.703" stroke="#696C80" stroke-width="1.20042" stroke-linecap="round" stroke-linejoin="round"/>
<path d="M346.079 209.967H344.174" stroke="#696C80" stroke-width="1.20042" stroke-linecap="round" stroke-linejoin="round"/>
</g>
<path d="M358.501 197.463C358.501 195.253 360.292 193.461 362.502 193.461H387.511C389.721 193.461 391.513 195.253 391.513 197.463V222.471C391.513 224.681 389.721 226.473 387.511 226.473H362.502C360.292 226.473 358.501 224.681 358.501 222.471V197.463Z" fill="#6A50FF"/>
<path d="M370.117 215.104H378.478C379.541 215.104 379.966 214.651 379.966 213.524V212.787C379.966 211.661 379.541 211.207 378.478 211.207H370.117" stroke="white" stroke-width="1.20042" stroke-linecap="round" stroke-linejoin="round"/>
<path d="M370.117 205.184H374.936C375.998 205.184 376.424 205.638 376.424 206.764V207.501C376.424 208.628 375.998 209.081 374.936 209.081H370.117" stroke="white" stroke-width="1.20042" stroke-linecap="round" stroke-linejoin="round"/>
<path d="M370.047 202.874V217.046" stroke="white" stroke-width="1.20042" stroke-linecap="round" stroke-linejoin="round"/>
<ellipse opacity="0.1" cx="424.524" cy="209.967" rx="18.0063" ry="18.0063" fill="#ED4C5C"/>
<path d="M432.027 204.949C429.251 204.673 426.458 204.532 423.674 204.532C422.023 204.532 420.373 204.615 418.722 204.782L417.021 204.949" stroke="#ED4C5C" stroke-width="1.40049" stroke-linecap="round" stroke-linejoin="round"/>
<path d="M421.606 204.106L421.79 203.014C421.923 202.222 422.023 201.63 423.432 201.63H425.616C427.025 201.63 427.133 202.255 427.258 203.022L427.442 204.106" stroke="#ED4C5C" stroke-width="1.40049" stroke-linecap="round" stroke-linejoin="round"/>
<path d="M430.235 207.583L429.693 215.977C429.602 217.286 429.527 218.303 427.201 218.303H421.849C419.523 218.303 419.448 217.286 419.356 215.977L418.814 207.583" stroke="#ED4C5C" stroke-width="1.40049" stroke-linecap="round" stroke-linejoin="round"/>
<path d="M423.132 213.718H425.907" stroke="#ED4C5C" stroke-width="1.40049" stroke-linecap="round" stroke-linejoin="round"/>
<path d="M422.44 210.383H426.609" stroke="#ED4C5C" stroke-width="1.40049" stroke-linecap="round" stroke-linejoin="round"/>
<rect x="115.416" y="241.478" width="327.115" height="63.022" rx="4.0014" fill="#1C1D26"/>
<rect x="131.422" y="253.482" width="104.036" height="15.0052" rx="7.50262" fill="#282A37"/>
<rect x="95.5" y="26.8499" width="365" height="293" rx="3.5" stroke="url(#paint2_linear_1251_33237)"/>
</g>
<rect x="49.4393" y="33.7394" width="456.392" height="273.1" rx="4.42067" stroke="url(#paint3_linear_1251_33237)" stroke-width="0.878658"/>
<defs>
<filter id="filter0_d_1251_33237" x="318.487" y="191.46" width="41.0145" height="41.0143" filterUnits="userSpaceOnUse" color-interpolation-filters="sRGB">
<feFlood flood-opacity="0" result="BackgroundImageFix"/>
<feColorMatrix in="SourceAlpha" type="matrix" values="0 0 0 0 0 0 0 0 0 0 0 0 0 0 0 0 0 0 127 0" result="hardAlpha"/>
<feOffset dy="2.0007"/>
<feGaussianBlur stdDeviation="2.0007"/>
<feComposite in2="hardAlpha" operator="out"/>
<feColorMatrix type="matrix" values="0 0 0 0 0.121569 0 0 0 0 0.121569 0 0 0 0 0.145098 0 0 0 0.29 0"/>
<feBlend mode="normal" in2="BackgroundImageFix" result="effect1_dropShadow_1251_33237"/>
<feBlend mode="normal" in="SourceGraphic" in2="effect1_dropShadow_1251_33237" result="shape"/>
</filter>
<linearGradient id="paint0_linear_1251_33237" x1="277.636" y1="33.3" x2="301.5" y2="307.35" gradientUnits="userSpaceOnUse">
<stop stop-color="#1C1D26"/>
<stop offset="1" stop-color="#1C1D26" stop-opacity="0"/>
</linearGradient>
<linearGradient id="paint1_linear_1251_33237" x1="217.384" y1="-635.956" x2="782.789" y2="-38.362" gradientUnits="userSpaceOnUse">
<stop stop-color="#282A37"/>
<stop offset="1" stop-color="#282A37" stop-opacity="0"/>
</linearGradient>
<linearGradient id="paint2_linear_1251_33237" x1="217.856" y1="-267.45" x2="509.779" y2="-110.354" gradientUnits="userSpaceOnUse">
<stop stop-color="#333546"/>
<stop offset="1" stop-color="#282A37" stop-opacity="0"/>
</linearGradient>
<linearGradient id="paint3_linear_1251_33237" x1="277.636" y1="33.3" x2="324.085" y2="291.098" gradientUnits="userSpaceOnUse">
<stop stop-color="#3A3D4D"/>
<stop offset="1" stop-color="#3A3D4D" stop-opacity="0"/>
</linearGradient>
<clipPath id="clip0_1251_33237">
<rect x="49" y="33.3" width="457.271" height="273.979" rx="4.86" fill="white"/>
</clipPath>
</defs>
</svg>