<svg width="555" height="349" viewBox="0 0 555 349" fill="none" xmlns="http://www.w3.org/2000/svg">
<g clip-path="url(#clip0_1251_33389)">
<rect x="49" y="33" width="457.271" height="273.979" rx="4.86" fill="url(#paint0_linear_1251_33389)"/>
<rect x="76.5" y="58.7998" width="386.282" height="72" rx="3.5" fill="url(#paint1_linear_1251_33389)"/>
<path d="M96.1818 92.2998V80.1443H97.9713L103.956 89.1765V80.1443H105.746V92.2998H103.956L97.9713 83.2591V92.2998H96.1818ZM112.145 92.553C111.239 92.553 110.443 92.3561 109.756 91.9622C109.075 91.5626 108.544 91.0083 108.161 90.2992C107.784 89.5845 107.595 88.7573 107.595 87.8175C107.595 86.8214 107.781 85.9575 108.153 85.226C108.53 84.4944 109.053 83.9288 109.723 83.5293C110.392 83.1297 111.172 82.9299 112.061 82.9299C112.989 82.9299 113.78 83.1466 114.433 83.5799C115.086 84.0076 115.572 84.6182 115.893 85.4117C116.22 86.2052 116.349 87.1478 116.282 88.2395H114.517V87.598C114.506 86.54 114.303 85.7578 113.91 85.2513C113.521 84.7448 112.928 84.4916 112.128 84.4916C111.245 84.4916 110.581 84.7701 110.136 85.3273C109.692 85.8844 109.469 86.6891 109.469 87.7415C109.469 88.7432 109.692 89.5198 110.136 90.0713C110.581 90.6172 111.222 90.8901 112.061 90.8901C112.612 90.8901 113.088 90.7663 113.487 90.5187C113.893 90.2654 114.208 89.9053 114.433 89.4382L116.163 89.9869C115.809 90.8029 115.271 91.436 114.551 91.8862C113.831 92.3308 113.029 92.553 112.145 92.553ZM108.895 88.2395V86.8636H115.404V88.2395H108.895ZM119.787 92.2998L117.002 83.1747L118.749 83.1832L120.657 89.4382L122.581 83.1832H124.101L126.025 89.4382L127.933 83.1832H129.672L126.886 92.2998H125.468L123.341 85.6987L121.205 92.2998H119.787ZM135.399 92.2998V82.8624C135.399 82.6317 135.408 82.3869 135.424 82.128C135.441 81.8635 135.489 81.6046 135.568 81.3514C135.652 81.0925 135.79 80.8562 135.982 80.6423C136.212 80.3891 136.466 80.209 136.741 80.1021C137.017 79.9952 137.29 79.9332 137.56 79.9164C137.836 79.8995 138.089 79.891 138.32 79.891H139.468V81.343H138.404C137.988 81.343 137.676 81.4471 137.467 81.6553C137.265 81.8579 137.163 82.1477 137.163 82.5247V92.2998H135.399ZM133.888 84.6013V83.1832H139.468V84.6013H133.888ZM144.526 92.553C143.62 92.553 142.823 92.3561 142.137 91.9622C141.456 91.5626 140.924 91.0083 140.541 90.2992C140.164 89.5845 139.976 88.7573 139.976 87.8175C139.976 86.8214 140.162 85.9575 140.533 85.226C140.91 84.4944 141.433 83.9288 142.103 83.5293C142.773 83.1297 143.552 82.9299 144.441 82.9299C145.37 82.9299 146.161 83.1466 146.813 83.5799C147.466 84.0076 147.953 84.6182 148.274 85.4117C148.6 86.2052 148.729 87.1478 148.662 88.2395H146.898V87.598C146.886 86.54 146.684 85.7578 146.29 85.2513C145.902 84.7448 145.308 84.4916 144.509 84.4916C143.625 84.4916 142.961 84.7701 142.517 85.3273C142.072 85.8844 141.85 86.6891 141.85 87.7415C141.85 88.7432 142.072 89.5198 142.517 90.0713C142.961 90.6172 143.603 90.8901 144.441 90.8901C144.993 90.8901 145.468 90.7663 145.868 90.5187C146.273 90.2654 146.588 89.9053 146.813 89.4382L148.544 89.9869C148.189 90.8029 147.652 91.436 146.931 91.8862C146.211 92.3308 145.409 92.553 144.526 92.553ZM141.276 88.2395V86.8636H147.784V88.2395H141.276ZM152.966 92.553C152.29 92.553 151.725 92.4292 151.269 92.1816C150.813 91.9284 150.467 91.5964 150.231 91.1855C150 90.7691 149.884 90.3133 149.884 89.8181C149.884 89.3566 149.966 88.9514 150.129 88.6025C150.292 88.2536 150.534 87.9581 150.855 87.7162C151.176 87.4685 151.57 87.2688 152.037 87.1168C152.442 86.9986 152.901 86.8945 153.413 86.8045C153.925 86.7145 154.463 86.63 155.025 86.5513C155.594 86.4725 156.156 86.3937 156.714 86.3149L156.072 86.6694C156.083 85.9547 155.931 85.4257 155.616 85.0825C155.307 84.7336 154.772 84.5591 154.012 84.5591C153.534 84.5591 153.095 84.6717 152.695 84.8968C152.296 85.1162 152.017 85.482 151.86 85.9941L150.214 85.4876C150.439 84.7054 150.867 84.0836 151.497 83.6221C152.133 83.1607 152.977 82.9299 154.029 82.9299C154.845 82.9299 155.554 83.0706 156.156 83.352C156.764 83.6277 157.209 84.0667 157.49 84.6688C157.636 84.9671 157.726 85.2822 157.76 85.6143C157.794 85.9463 157.811 86.3036 157.811 86.6863V92.2998H156.249V90.2148L156.553 90.4849C156.176 91.1827 155.695 91.7033 155.11 92.0466C154.53 92.3842 153.815 92.553 152.966 92.553ZM153.278 91.1096C153.779 91.1096 154.209 91.0223 154.569 90.8479C154.93 90.6678 155.219 90.4399 155.439 90.1641C155.658 89.8884 155.802 89.6014 155.869 89.3031C155.965 89.033 156.019 88.7291 156.03 88.3915C156.047 88.0538 156.055 87.7837 156.055 87.5811L156.629 87.7921C156.072 87.8765 155.566 87.9525 155.11 88.02C154.654 88.0876 154.24 88.1551 153.869 88.2226C153.503 88.2845 153.177 88.3605 152.89 88.4506C152.648 88.535 152.431 88.6363 152.24 88.7544C152.054 88.8726 151.905 89.0161 151.792 89.185C151.685 89.3538 151.632 89.5592 151.632 89.8012C151.632 90.0375 151.691 90.257 151.809 90.4596C151.927 90.6566 152.107 90.8141 152.349 90.9323C152.591 91.0505 152.901 91.1096 153.278 91.1096ZM165.22 92.2998C164.646 92.4124 164.083 92.4602 163.531 92.4433C162.98 92.4264 162.487 92.3195 162.054 92.1225C161.621 91.9256 161.294 91.6161 161.075 91.194C160.878 90.8169 160.771 90.4343 160.754 90.046C160.743 89.652 160.737 89.2075 160.737 88.7122V80.6508H162.51V88.6278C162.51 88.9936 162.513 89.3116 162.518 89.5817C162.53 89.8518 162.589 90.0797 162.696 90.2654C162.898 90.6144 163.219 90.8141 163.658 90.8648C164.103 90.9098 164.623 90.8901 165.22 90.8057V92.2998ZM158.99 84.6013V83.1832H165.22V84.6013H158.99ZM170.577 92.5446C169.947 92.5446 169.418 92.4433 168.99 92.2407C168.563 92.0381 168.214 91.7736 167.944 91.4472C167.679 91.1152 167.477 90.755 167.336 90.3667C167.195 89.9784 167.1 89.5986 167.049 89.2272C166.998 88.8557 166.973 88.5293 166.973 88.248V83.1832H168.762V87.6655C168.762 88.02 168.791 88.3858 168.847 88.7629C168.909 89.1343 169.021 89.4804 169.185 89.8012C169.353 90.1219 169.587 90.3808 169.885 90.5778C170.189 90.7747 170.583 90.8732 171.067 90.8732C171.382 90.8732 171.68 90.8226 171.962 90.7213C172.243 90.6144 172.488 90.4455 172.696 90.2148C172.91 89.9841 173.076 89.6802 173.194 89.3031C173.318 88.9261 173.38 88.4674 173.38 87.9272L174.477 88.3408C174.477 89.1681 174.323 89.8997 174.013 90.5356C173.703 91.1659 173.259 91.6583 172.679 92.0128C172.1 92.3673 171.399 92.5446 170.577 92.5446ZM173.591 92.2998V89.6661H173.38V83.1832H175.161V92.2998H173.591ZM177.529 92.2998V83.1832H179.099V85.3948L178.879 85.1078C178.992 84.8152 179.138 84.5478 179.318 84.3059C179.498 84.0582 179.706 83.8557 179.943 83.6981C180.173 83.5293 180.43 83.3998 180.711 83.3098C180.998 83.2141 181.291 83.1578 181.589 83.141C181.887 83.1184 182.174 83.1325 182.45 83.1832V84.8377C182.152 84.7589 181.82 84.7364 181.454 84.7701C181.094 84.8039 180.762 84.9193 180.458 85.1162C180.171 85.3019 179.943 85.527 179.774 85.7915C179.611 86.056 179.493 86.3515 179.419 86.6779C179.346 86.9986 179.31 87.3391 179.31 87.6993V92.2998H177.529ZM187.936 92.553C187.03 92.553 186.234 92.3561 185.547 91.9622C184.866 91.5626 184.334 91.0083 183.952 90.2992C183.575 89.5845 183.386 88.7573 183.386 87.8175C183.386 86.8214 183.572 85.9575 183.943 85.226C184.32 84.4944 184.844 83.9288 185.513 83.5293C186.183 83.1297 186.962 82.9299 187.852 82.9299C188.78 82.9299 189.571 83.1466 190.224 83.5799C190.876 84.0076 191.363 84.6182 191.684 85.4117C192.01 86.2052 192.14 87.1478 192.072 88.2395H190.308V87.598C190.297 86.54 190.094 85.7578 189.7 85.2513C189.312 84.7448 188.718 84.4916 187.919 84.4916C187.036 84.4916 186.371 84.7701 185.927 85.3273C185.482 85.8844 185.26 86.6891 185.26 87.7415C185.26 88.7432 185.482 89.5198 185.927 90.0713C186.371 90.6172 187.013 90.8901 187.852 90.8901C188.403 90.8901 188.879 90.7663 189.278 90.5187C189.683 90.2654 189.998 89.9053 190.224 89.4382L191.954 89.9869C191.599 90.8029 191.062 91.436 190.342 91.8862C189.621 92.3308 188.819 92.553 187.936 92.553ZM184.686 88.2395V86.8636H191.194V88.2395H184.686Z" fill="white"/>
<path d="M97.976 112.292L98.8093 109.175H95.8928L96.2276 107.91H99.1515L99.7244 105.738H96.8079L97.1502 104.48H100.067L100.84 101.586H102.15L101.369 104.48H103.638L104.412 101.586H105.721L104.94 104.48H107.856L107.522 105.738H104.605L104.017 107.91H106.934L106.599 109.175H103.682L102.849 112.292H101.547L102.373 109.175H100.111L99.278 112.292H97.976ZM100.454 107.91H102.715L103.296 105.738H101.034L100.454 107.91ZM115.51 112.3V108.275C115.51 107.893 115.475 107.526 115.405 107.174C115.341 106.821 115.224 106.507 115.056 106.229C114.892 105.946 114.669 105.723 114.386 105.559C114.108 105.395 113.756 105.314 113.33 105.314C112.997 105.314 112.695 105.371 112.422 105.485C112.154 105.594 111.923 105.763 111.73 105.991C111.537 106.219 111.385 106.507 111.276 106.854C111.172 107.196 111.12 107.6 111.12 108.066L110.249 107.799C110.249 107.02 110.388 106.353 110.666 105.797C110.949 105.237 111.343 104.808 111.849 104.51C112.36 104.208 112.96 104.056 113.65 104.056C114.17 104.056 114.614 104.138 114.981 104.302C115.348 104.465 115.653 104.684 115.896 104.957C116.139 105.224 116.33 105.527 116.469 105.864C116.608 106.197 116.705 106.536 116.759 106.883C116.819 107.226 116.849 107.551 116.849 107.858V112.3H115.51ZM109.781 112.3V104.265H110.971V106.415H111.12V112.3H109.781ZM122.192 112.523C121.404 112.523 120.714 112.349 120.124 112.002C119.539 111.65 119.082 111.161 118.755 110.537C118.428 109.907 118.264 109.173 118.264 108.334C118.264 107.456 118.425 106.697 118.748 106.058C119.07 105.413 119.519 104.917 120.094 104.57C120.675 104.217 121.354 104.041 122.133 104.041C122.941 104.041 123.628 104.227 124.194 104.599C124.764 104.971 125.191 105.502 125.473 106.192C125.761 106.881 125.885 107.702 125.845 108.654H124.506V108.178C124.491 107.191 124.29 106.454 123.903 105.968C123.517 105.477 122.941 105.232 122.177 105.232C121.359 105.232 120.737 105.495 120.31 106.02C119.883 106.546 119.67 107.3 119.67 108.282C119.67 109.23 119.883 109.964 120.31 110.484C120.737 111.005 121.344 111.266 122.133 111.266C122.663 111.266 123.125 111.144 123.517 110.901C123.908 110.658 124.216 110.308 124.439 109.852L125.711 110.291C125.399 111 124.928 111.551 124.298 111.943C123.673 112.33 122.971 112.523 122.192 112.523ZM119.224 108.654V107.59H125.161V108.654H119.224ZM128.922 112.3L126.467 104.257L127.784 104.265L129.577 110.142L131.385 104.265H132.553L134.354 110.142L136.154 104.265H137.463L135.008 112.3H133.907L131.965 106.192L130.023 112.3H128.922ZM141.552 112.516C140.595 112.516 139.809 112.307 139.193 111.891C138.583 111.469 138.209 110.881 138.07 110.127L139.424 109.912C139.533 110.348 139.784 110.695 140.176 110.953C140.567 111.206 141.053 111.333 141.634 111.333C142.184 111.333 142.616 111.219 142.928 110.99C143.241 110.762 143.397 110.452 143.397 110.06C143.397 109.832 143.345 109.649 143.241 109.51C143.137 109.366 142.921 109.232 142.594 109.108C142.271 108.984 141.783 108.835 141.128 108.662C140.419 108.473 139.861 108.277 139.454 108.074C139.047 107.871 138.757 107.635 138.583 107.367C138.41 107.099 138.323 106.774 138.323 106.392C138.323 105.921 138.452 105.51 138.71 105.157C138.968 104.8 139.327 104.525 139.789 104.332C140.255 104.138 140.796 104.041 141.411 104.041C142.021 104.041 142.566 104.138 143.047 104.332C143.529 104.525 143.915 104.8 144.208 105.157C144.506 105.51 144.682 105.921 144.736 106.392L143.382 106.638C143.318 106.206 143.109 105.867 142.757 105.619C142.41 105.371 141.961 105.239 141.411 105.224C140.89 105.205 140.466 105.296 140.138 105.5C139.816 105.703 139.655 105.978 139.655 106.325C139.655 106.519 139.714 106.685 139.833 106.824C139.957 106.963 140.183 107.094 140.51 107.218C140.843 107.342 141.324 107.484 141.954 107.642C142.663 107.821 143.221 108.017 143.628 108.23C144.039 108.438 144.332 108.686 144.506 108.974C144.679 109.257 144.766 109.607 144.766 110.023C144.766 110.797 144.481 111.407 143.91 111.853C143.34 112.295 142.554 112.516 141.552 112.516Z" fill="#9A9EB3"/>
<rect x="340.263" y="77.2998" width="57.02" height="35" rx="4.0014" fill="#282A37"/>
<path d="M363.631 98.2554V99.2998H357.533V90.8969H363.463V91.9412H358.733V94.5221H362.947V95.5425H358.733V98.2554H363.631ZM371.327 90.3927V99.2998H370.222V98.2915C369.966 98.6436 369.642 98.9117 369.25 99.0957C368.858 99.2798 368.426 99.3718 367.954 99.3718C367.337 99.3718 366.785 99.2358 366.297 98.9637C365.809 98.6916 365.425 98.3115 365.145 97.8233C364.873 97.3271 364.736 96.7589 364.736 96.1187C364.736 95.4785 364.873 94.9143 365.145 94.4261C365.425 93.9379 365.809 93.5578 366.297 93.2857C366.785 93.0136 367.337 92.8776 367.954 92.8776C368.41 92.8776 368.83 92.9656 369.214 93.1416C369.598 93.3097 369.918 93.5618 370.174 93.8979V90.3927H371.327ZM368.05 98.3635C368.45 98.3635 368.814 98.2714 369.142 98.0874C369.47 97.8953 369.726 97.6312 369.91 97.2951C370.094 96.951 370.186 96.5588 370.186 96.1187C370.186 95.6785 370.094 95.2904 369.91 94.9543C369.726 94.6102 369.47 94.3461 369.142 94.162C368.814 93.9779 368.45 93.8859 368.05 93.8859C367.641 93.8859 367.273 93.9779 366.945 94.162C366.625 94.3461 366.369 94.6102 366.177 94.9543C365.993 95.2904 365.901 95.6785 365.901 96.1187C365.901 96.5588 365.993 96.951 366.177 97.2951C366.369 97.6312 366.625 97.8953 366.945 98.0874C367.273 98.2714 367.641 98.3635 368.05 98.3635ZM373.507 92.9376H374.66V99.2998H373.507V92.9376ZM374.083 91.7131C373.859 91.7131 373.671 91.6411 373.519 91.4971C373.375 91.353 373.303 91.177 373.303 90.9689C373.303 90.7608 373.375 90.5848 373.519 90.4407C373.671 90.2887 373.859 90.2126 374.083 90.2126C374.307 90.2126 374.492 90.2846 374.636 90.4287C374.788 90.5647 374.864 90.7368 374.864 90.9449C374.864 91.161 374.788 91.345 374.636 91.4971C374.492 91.6411 374.307 91.7131 374.083 91.7131ZM380.437 98.9277C380.269 99.0717 380.061 99.1838 379.813 99.2638C379.565 99.3358 379.309 99.3718 379.045 99.3718C378.404 99.3718 377.908 99.1998 377.556 98.8556C377.204 98.5115 377.028 98.0194 377.028 97.3791V93.8859H375.948V92.9376H377.028V91.5451H378.18V92.9376H380.005V93.8859H378.18V97.3311C378.18 97.6752 378.264 97.9393 378.432 98.1234C378.609 98.3075 378.857 98.3995 379.177 98.3995C379.529 98.3995 379.829 98.2995 380.077 98.0994L380.437 98.9277Z" fill="white"/>
<ellipse opacity="0.1" cx="426.782" cy="94.7998" rx="17.5" ry="17.5" fill="#ED4C5C"/>
<path d="M434.075 89.9227C431.377 89.6553 428.663 89.5176 425.956 89.5176C424.352 89.5176 422.748 89.5986 421.144 89.7606L419.491 89.9227" stroke="#ED4C5C" stroke-width="1.40049" stroke-linecap="round" stroke-linejoin="round"/>
<path d="M423.946 89.104L424.125 88.0427C424.254 87.273 424.351 86.6978 425.721 86.6978H427.843C429.212 86.6978 429.318 87.3054 429.439 88.0508L429.618 89.104" stroke="#ED4C5C" stroke-width="1.40049" stroke-linecap="round" stroke-linejoin="round"/>
<path d="M432.332 92.4824L431.805 100.641C431.716 101.913 431.643 102.901 429.383 102.901H424.181C421.921 102.901 421.848 101.913 421.759 100.641L421.232 92.4824" stroke="#ED4C5C" stroke-width="1.40049" stroke-linecap="round" stroke-linejoin="round"/>
<path d="M425.43 98.4458H428.127" stroke="#ED4C5C" stroke-width="1.40049" stroke-linecap="round" stroke-linejoin="round"/>
<path d="M424.758 95.2046H428.809" stroke="#ED4C5C" stroke-width="1.40049" stroke-linecap="round" stroke-linejoin="round"/>
<rect x="76.5" y="58.7998" width="386.282" height="72" rx="3.5" stroke="url(#paint2_linear_1251_33389)"/>
<g opacity="0.6">
<rect x="76.5" y="149.8" width="386.02" height="72" rx="3.5" fill="url(#paint3_linear_1251_33389)"/>
<rect x="95" y="166.3" width="160" height="17" rx="8" fill="#3A3D4D"/>
<rect x="95" y="191.3" width="56" height="14" rx="7" fill="#282A37"/>
<rect x="340" y="168.3" width="57.02" height="35" rx="4.0014" fill="#282A37"/>
<path d="M363.368 189.255V190.3H357.27V181.897H363.2V182.941H358.471V185.522H362.684V186.542H358.471V189.255H363.368ZM371.064 181.393V190.3H369.96V189.291C369.704 189.644 369.379 189.912 368.987 190.096C368.595 190.28 368.163 190.372 367.691 190.372C367.075 190.372 366.522 190.236 366.034 189.964C365.546 189.692 365.162 189.311 364.882 188.823C364.61 188.327 364.474 187.759 364.474 187.119C364.474 186.478 364.61 185.914 364.882 185.426C365.162 184.938 365.546 184.558 366.034 184.286C366.522 184.014 367.075 183.878 367.691 183.878C368.147 183.878 368.567 183.966 368.951 184.142C369.335 184.31 369.656 184.562 369.912 184.898V181.393H371.064ZM367.787 189.363C368.187 189.363 368.551 189.271 368.879 189.087C369.207 188.895 369.464 188.631 369.648 188.295C369.832 187.951 369.924 187.559 369.924 187.119C369.924 186.679 369.832 186.29 369.648 185.954C369.464 185.61 369.207 185.346 368.879 185.162C368.551 184.978 368.187 184.886 367.787 184.886C367.379 184.886 367.011 184.978 366.683 185.162C366.362 185.346 366.106 185.61 365.914 185.954C365.73 186.29 365.638 186.679 365.638 187.119C365.638 187.559 365.73 187.951 365.914 188.295C366.106 188.631 366.362 188.895 366.683 189.087C367.011 189.271 367.379 189.363 367.787 189.363ZM373.245 183.938H374.397V190.3H373.245V183.938ZM373.821 182.713C373.597 182.713 373.409 182.641 373.257 182.497C373.112 182.353 373.04 182.177 373.04 181.969C373.04 181.761 373.112 181.585 373.257 181.441C373.409 181.289 373.597 181.213 373.821 181.213C374.045 181.213 374.229 181.285 374.373 181.429C374.525 181.565 374.601 181.737 374.601 181.945C374.601 182.161 374.525 182.345 374.373 182.497C374.229 182.641 374.045 182.713 373.821 182.713ZM380.175 189.928C380.006 190.072 379.798 190.184 379.55 190.264C379.302 190.336 379.046 190.372 378.782 190.372C378.142 190.372 377.646 190.2 377.293 189.856C376.941 189.512 376.765 189.019 376.765 188.379V184.886H375.685V183.938H376.765V182.545H377.918V183.938H379.742V184.886H377.918V188.331C377.918 188.675 378.002 188.939 378.17 189.123C378.346 189.307 378.594 189.399 378.914 189.399C379.266 189.399 379.566 189.299 379.814 189.099L380.175 189.928Z" fill="white"/>
<ellipse opacity="0.1" cx="426.52" cy="185.8" rx="17.5" ry="17.5" fill="#ED4C5C"/>
<path d="M433.812 180.923C431.114 180.655 428.4 180.518 425.694 180.518C424.09 180.518 422.485 180.599 420.881 180.761L419.229 180.923" stroke="#ED4C5C" stroke-width="1.40049" stroke-linecap="round" stroke-linejoin="round"/>
<path d="M423.684 180.104L423.862 179.043C423.991 178.273 424.089 177.698 425.458 177.698H427.581C428.95 177.698 429.055 178.305 429.177 179.051L429.355 180.104" stroke="#ED4C5C" stroke-width="1.40049" stroke-linecap="round" stroke-linejoin="round"/>
<path d="M432.069 183.482L431.543 191.641C431.454 192.913 431.381 193.901 429.12 193.901H423.919C421.658 193.901 421.585 192.913 421.496 191.641L420.97 183.482" stroke="#ED4C5C" stroke-width="1.40049" stroke-linecap="round" stroke-linejoin="round"/>
<path d="M425.167 189.446H427.864" stroke="#ED4C5C" stroke-width="1.40049" stroke-linecap="round" stroke-linejoin="round"/>
<path d="M424.495 186.205H428.546" stroke="#ED4C5C" stroke-width="1.40049" stroke-linecap="round" stroke-linejoin="round"/>
<rect x="76.5" y="149.8" width="386.02" height="72" rx="3.5" stroke="url(#paint4_linear_1251_33389)"/>
</g>
<g opacity="0.3">
<rect x="76.5" y="240.8" width="386.02" height="72" rx="3.5" fill="url(#paint5_linear_1251_33389)"/>
<rect x="95" y="257.3" width="160" height="17" rx="8" fill="#3A3D4D"/>
<rect x="95" y="282.3" width="56" height="14" rx="7" fill="#282A37"/>
<rect x="340" y="259.3" width="57.02" height="35" rx="4.0014" fill="#282A37"/>
<path d="M363.368 280.255V281.3H357.27V272.897H363.2V273.941H358.471V276.522H362.684V277.542H358.471V280.255H363.368ZM371.064 272.393V281.3H369.96V280.291C369.704 280.644 369.379 280.912 368.987 281.096C368.595 281.28 368.163 281.372 367.691 281.372C367.075 281.372 366.522 281.236 366.034 280.964C365.546 280.692 365.162 280.311 364.882 279.823C364.61 279.327 364.474 278.759 364.474 278.119C364.474 277.478 364.61 276.914 364.882 276.426C365.162 275.938 365.546 275.558 366.034 275.286C366.522 275.014 367.075 274.878 367.691 274.878C368.147 274.878 368.567 274.966 368.951 275.142C369.335 275.31 369.656 275.562 369.912 275.898V272.393H371.064ZM367.787 280.363C368.187 280.363 368.551 280.271 368.879 280.087C369.207 279.895 369.464 279.631 369.648 279.295C369.832 278.951 369.924 278.559 369.924 278.119C369.924 277.679 369.832 277.29 369.648 276.954C369.464 276.61 369.207 276.346 368.879 276.162C368.551 275.978 368.187 275.886 367.787 275.886C367.379 275.886 367.011 275.978 366.683 276.162C366.362 276.346 366.106 276.61 365.914 276.954C365.73 277.29 365.638 277.679 365.638 278.119C365.638 278.559 365.73 278.951 365.914 279.295C366.106 279.631 366.362 279.895 366.683 280.087C367.011 280.271 367.379 280.363 367.787 280.363ZM373.245 274.938H374.397V281.3H373.245V274.938ZM373.821 273.713C373.597 273.713 373.409 273.641 373.257 273.497C373.112 273.353 373.04 273.177 373.04 272.969C373.04 272.761 373.112 272.585 373.257 272.441C373.409 272.289 373.597 272.213 373.821 272.213C374.045 272.213 374.229 272.285 374.373 272.429C374.525 272.565 374.601 272.737 374.601 272.945C374.601 273.161 374.525 273.345 374.373 273.497C374.229 273.641 374.045 273.713 373.821 273.713ZM380.175 280.928C380.006 281.072 379.798 281.184 379.55 281.264C379.302 281.336 379.046 281.372 378.782 281.372C378.142 281.372 377.646 281.2 377.293 280.856C376.941 280.512 376.765 280.019 376.765 279.379V275.886H375.685V274.938H376.765V273.545H377.918V274.938H379.742V275.886H377.918V279.331C377.918 279.675 378.002 279.939 378.17 280.123C378.346 280.307 378.594 280.399 378.914 280.399C379.266 280.399 379.566 280.299 379.814 280.099L380.175 280.928Z" fill="white"/>
<ellipse opacity="0.1" cx="426.52" cy="276.8" rx="17.5" ry="17.5" fill="#ED4C5C"/>
<path d="M433.812 271.923C431.114 271.655 428.4 271.518 425.694 271.518C424.09 271.518 422.485 271.599 420.881 271.761L419.229 271.923" stroke="#ED4C5C" stroke-width="1.40049" stroke-linecap="round" stroke-linejoin="round"/>
<path d="M423.684 271.104L423.862 270.043C423.991 269.273 424.089 268.698 425.458 268.698H427.581C428.95 268.698 429.055 269.305 429.177 270.051L429.355 271.104" stroke="#ED4C5C" stroke-width="1.40049" stroke-linecap="round" stroke-linejoin="round"/>
<path d="M432.069 274.482L431.543 282.641C431.454 283.913 431.381 284.901 429.12 284.901H423.919C421.658 284.901 421.585 283.913 421.496 282.641L420.97 274.482" stroke="#ED4C5C" stroke-width="1.40049" stroke-linecap="round" stroke-linejoin="round"/>
<path d="M425.167 280.446H427.864" stroke="#ED4C5C" stroke-width="1.40049" stroke-linecap="round" stroke-linejoin="round"/>
<path d="M424.495 277.205H428.546" stroke="#ED4C5C" stroke-width="1.40049" stroke-linecap="round" stroke-linejoin="round"/>
<rect x="76.5" y="240.8" width="386.02" height="72" rx="3.5" stroke="url(#paint6_linear_1251_33389)"/>
</g>
</g>
<rect x="49.4393" y="33.4393" width="456.392" height="273.1" rx="4.42067" stroke="url(#paint7_linear_1251_33389)" stroke-width="0.878658"/>
<defs>
<linearGradient id="paint0_linear_1251_33389" x1="277.636" y1="33" x2="301.5" y2="307.05" gradientUnits="userSpaceOnUse">
<stop stop-color="#1C1D26"/>
<stop offset="1" stop-color="#1C1D26" stop-opacity="0"/>
</linearGradient>
<linearGradient id="paint1_linear_1251_33389" x1="205.5" y1="-106.15" x2="265" y2="161.85" gradientUnits="userSpaceOnUse">
<stop stop-color="#282A37"/>
<stop offset="1" stop-color="#282A37" stop-opacity="0"/>
</linearGradient>
<linearGradient id="paint2_linear_1251_33389" x1="206" y1="-14.6504" x2="269.641" y2="131.3" gradientUnits="userSpaceOnUse">
<stop stop-color="#333546"/>
<stop offset="1" stop-color="#282A37" stop-opacity="0"/>
</linearGradient>
<linearGradient id="paint3_linear_1251_33389" x1="205.412" y1="-15.1504" x2="264.949" y2="252.833" gradientUnits="userSpaceOnUse">
<stop stop-color="#282A37"/>
<stop offset="1" stop-color="#282A37" stop-opacity="0"/>
</linearGradient>
<linearGradient id="paint4_linear_1251_33389" x1="205.912" y1="76.3496" x2="269.582" y2="222.268" gradientUnits="userSpaceOnUse">
<stop stop-color="#333546"/>
<stop offset="1" stop-color="#282A37" stop-opacity="0"/>
</linearGradient>
<linearGradient id="paint5_linear_1251_33389" x1="205.412" y1="75.8496" x2="264.949" y2="343.833" gradientUnits="userSpaceOnUse">
<stop stop-color="#282A37"/>
<stop offset="1" stop-color="#282A37" stop-opacity="0"/>
</linearGradient>
<linearGradient id="paint6_linear_1251_33389" x1="205.912" y1="167.35" x2="269.582" y2="313.268" gradientUnits="userSpaceOnUse">
<stop stop-color="#333546"/>
<stop offset="1" stop-color="#282A37" stop-opacity="0"/>
</linearGradient>
<linearGradient id="paint7_linear_1251_33389" x1="277.636" y1="33" x2="324.085" y2="290.798" gradientUnits="userSpaceOnUse">
<stop stop-color="#3A3D4D"/>
<stop offset="1" stop-color="#3A3D4D" stop-opacity="0"/>
</linearGradient>
<clipPath id="clip0_1251_33389">
<rect x="49" y="33" width="457.271" height="273.979" rx="4.86" fill="white"/>
</clipPath>
</defs>
</svg>